<?xml version="1.0" encoding="utf-8"?>
<!-- Generator: Adobe Illustrator 24.3.0, SVG Export Plug-In . SVG Version: 6.00 Build 0)  -->
<svg version="1.1" id="Layer_1" xmlns="http://www.w3.org/2000/svg" xmlns:xlink="http://www.w3.org/1999/xlink" x="0px" y="0px"
	 viewBox="0 0 292.1 39.5" style="enable-background:new 0 0 292.1 39.5;" xml:space="preserve">
<style type="text/css">
	.st0{fill:#FFFFFF;}
	.st1{fill:#E21D3E;}
	.st2{fill:#B51E23;}
</style>
<g id="Layer_2_1_">
	<g id="Layer_1-2">
		<rect x="7.4" y="6.9" class="st0" width="17.2" height="22.1"/>
		<polygon class="st0" points="53.5,5.3 47.3,5.3 47.3,32.6 65.2,32.6 65.2,27.2 53.5,27.2 		"/>
		<path class="st0" d="M84.2,5.1c-8.3,0-14.7,5.9-14.7,13.9s6.3,13.9,14.7,13.9s14.7-6,14.7-13.9S92.6,5.1,84.2,5.1z M84.3,27.5
			c-4.7,0-8.5-3.9-8.4-8.5c0-4.6,3.7-8.4,8.3-8.5c0,0,0.1,0,0.1,0c4.6,0,8.3,3.7,8.3,8.3c0,0.1,0,0.1,0,0.2
			C92.7,23.6,89,27.4,84.3,27.5C84.4,27.5,84.3,27.5,84.3,27.5z"/>
		<path class="st0" d="M119.7,10.4c2.8,0.1,5.4,1.1,7.5,3l3.5-4.4c-3.1-2.6-7-4-11-4c-8.5,0-14.9,6-14.9,13.9s6.3,14,14.6,14
			c4-0.1,7.8-1.3,11.1-3.5V17.6h-10.1v4.8h4.7V26c-1.6,0.9-3.5,1.4-5.3,1.5c-4.7,0.3-8.8-3.2-9.1-7.9s3.2-8.8,7.9-9.1
			C118.9,10.5,119.3,10.5,119.7,10.4L119.7,10.4z"/>
		<rect x="139.3" y="5.3" class="st0" width="6.2" height="27.3"/>
		<polygon class="st0" points="173.8,22.8 160.5,5.3 154.9,5.3 154.9,32.6 160.8,32.6 160.8,15.1 174,32.6 179.6,32.6 179.6,5.3 
			173.8,5.3 		"/>
		<path class="st0" d="M191.3,25.7c-1.9,0-3.4,1.4-3.5,3.3c0,0.1,0,0.2,0,0.3c0,1.9,1.6,3.5,3.5,3.5s3.5-1.6,3.5-3.5
			c0.1-1.9-1.3-3.4-3.2-3.6C191.5,25.7,191.4,25.7,191.3,25.7z"/>
		<path class="st0" d="M214.4,10.4c2.8,0.1,5.4,1.1,7.5,3l3.5-4.4c-3.1-2.6-7-4-11-4c-8.5,0-14.9,6-14.9,13.9s6.3,13.9,14.6,13.9
			c4-0.1,7.8-1.3,11.1-3.5V17.6H215v4.8h4.8V26c-1.6,0.9-3.5,1.4-5.3,1.5c-4.7,0.3-8.8-3.2-9.1-7.9c-0.3-4.7,3.2-8.8,7.9-9.1
			C213.7,10.5,214,10.5,214.4,10.4L214.4,10.4z"/>
		<path class="st0" d="M246.6,5.1c-8.4,0-14.6,5.9-14.6,13.9s6.3,13.9,14.7,13.9s14.7-6,14.7-13.9S255,5.1,246.6,5.1z M246.7,27.5
			c-4.7,0-8.5-3.9-8.4-8.5c0-4.6,3.7-8.4,8.3-8.5c0,0,0.1,0,0.1,0c4.6,0,8.3,3.7,8.3,8.3c0,0.1,0,0.1,0,0.2c0.1,4.6-3.6,8.4-8.2,8.5
			C246.8,27.5,246.8,27.5,246.7,27.5z"/>
		<polygon class="st0" points="285.7,5.3 278.2,25.9 270.8,5.3 264.2,5.3 274.9,32.6 281.3,32.6 292.1,5.3 		"/>
		<path class="st1" d="M11.4,25.3l1.4-8.3c-1.9-1.5-2.3-4.2-0.8-6.2c0.8-1.1,2.1-1.7,3.5-1.7V0H4.3C1.9,0,0,1.9,0,4.3v21.3
			c0,0.4,0.1,0.8,0.3,1.2c0.9,1.9,4.6,8,15.3,12.7V25.7C14.1,25.7,12.8,25.6,11.4,25.3z"/>
		<path class="st2" d="M26.7,0H15.5v9.2l0,0c2.4,0,4.4,2,4.4,4.4c0,1.3-0.6,2.6-1.6,3.4l1.5,8.3c-1.4,0.2-2.8,0.4-4.2,0.4v13.8
			c10.6-4.7,14.3-10.8,15.3-12.7c0.2-0.4,0.3-0.8,0.3-1.2V4.3C31.1,1.9,29.1,0,26.7,0z"/>
	</g>
</g>
</svg>
