<svg width="144" height="20" viewBox="0 0 144 20" fill="none" xmlns="http://www.w3.org/2000/svg">
<path d="M12.1386 3.39429H3.66522V14.2619H12.1386V3.39429Z" fill="white"/>
<path d="M26.3316 2.60114H23.2969V16.0551H32.1004V13.4047H26.3316V2.60114Z" fill="#FFFDF8"/>
<path d="M41.4851 2.50751C37.3716 2.50751 34.2581 5.40915 34.2581 9.33056C34.2581 13.252 37.3716 16.193 41.4851 16.193C45.5987 16.193 48.7121 13.2372 48.7121 9.33056C48.7121 5.42393 45.5987 2.50751 41.4851 2.50751ZM41.5245 13.5377C40.4161 13.5299 39.3561 13.0824 38.5774 12.2935C37.7988 11.5047 37.365 10.439 37.3716 9.33056C37.367 8.78299 37.4712 8.23995 37.678 7.73293C37.8849 7.2259 38.1903 6.76497 38.5766 6.37685C38.9629 5.98873 39.4223 5.68114 39.9284 5.4719C40.4344 5.26266 40.977 5.15593 41.5245 5.15791C42.0676 5.15909 42.6049 5.26855 43.1051 5.4799C43.6053 5.69125 44.0584 6.00023 44.4378 6.38877C44.8171 6.77731 45.1152 7.23761 45.3145 7.74273C45.5139 8.24785 45.6105 8.78765 45.5987 9.33056C45.6104 9.87511 45.5141 10.4166 45.3151 10.9236C45.1162 11.4307 44.8187 11.8932 44.4398 12.2845C44.0608 12.6758 43.6081 12.988 43.1077 13.2031C42.6073 13.4182 42.0692 13.532 41.5245 13.5377Z" fill="#FFFDF8"/>
<path d="M58.9443 5.1382C60.313 5.16591 61.6247 5.69131 62.6341 6.61612L64.3436 4.44358C62.823 3.17378 60.9057 2.47658 58.9246 2.47302C54.7322 2.47302 51.5842 5.42886 51.5842 9.29607C51.5842 13.1633 54.6829 16.1881 58.7669 16.1881C60.7185 16.1528 62.6166 15.5446 64.2254 14.4392V8.65564H59.2448V11.0302H61.5799V12.8086C60.7691 13.2466 59.8698 13.4959 58.9492 13.5377C58.3751 13.5771 57.7991 13.498 57.2569 13.3054C56.7147 13.1129 56.2178 12.8108 55.7973 12.4181C55.3767 12.0254 55.0414 11.5505 54.8121 11.0227C54.5828 10.4949 54.4645 9.92567 54.4645 9.35026C54.4645 8.77485 54.5828 8.20559 54.8121 7.67783C55.0414 7.15007 55.3767 6.6751 55.7973 6.2824C56.2178 5.8897 56.7147 5.58767 57.2569 5.39508C57.7991 5.20248 58.3751 5.12343 58.9492 5.16283L58.9443 5.1382Z" fill="#FFFDF8"/>
<path d="M71.6445 2.60114H68.6049V16.0551H71.6445V2.60114Z" fill="#FFFDF8"/>
<path d="M85.6157 11.2519L79.0784 2.60114H76.3147V16.0551H79.2164V7.42407L85.7291 16.0551H88.4977V2.60114H85.6157V11.2519Z" fill="#FFFDF8"/>
<path d="M94.2221 12.6559C93.9923 12.6502 93.7637 12.692 93.5508 12.7787C93.3379 12.8654 93.1451 12.9951 92.9847 13.1597C92.8242 13.3244 92.6994 13.5204 92.6182 13.7355C92.537 13.9505 92.5011 14.1801 92.5127 14.4097C92.5127 14.8631 92.6928 15.2979 93.0133 15.6185C93.3339 15.939 93.7687 16.1191 94.2221 16.1191C94.6755 16.1191 95.1103 15.939 95.4309 15.6185C95.7515 15.2979 95.9316 14.8631 95.9316 14.4097C95.9454 14.1795 95.9111 13.949 95.8307 13.7329C95.7502 13.5168 95.6256 13.3199 95.4646 13.1548C95.3037 12.9897 95.11 12.86 94.8961 12.7741C94.6821 12.6882 94.4525 12.6479 94.2221 12.6559Z" fill="#FFFDF8"/>
<path d="M105.627 5.1382C106.995 5.16591 108.307 5.69131 109.317 6.61612L111.026 4.44358C109.505 3.17378 107.588 2.47658 105.607 2.47302C101.415 2.47302 98.2667 5.42886 98.2667 9.29607C98.2667 13.1633 101.36 16.1585 105.435 16.1585C107.386 16.1232 109.284 15.5151 110.893 14.4097V8.65564H105.917V11.0302H108.267V12.8086C107.456 13.2466 106.557 13.4959 105.637 13.5377C105.063 13.5771 104.486 13.498 103.944 13.3054C103.402 13.1129 102.905 12.8108 102.485 12.4181C102.064 12.0254 101.729 11.5505 101.499 11.0227C101.27 10.4949 101.152 9.92567 101.152 9.35026C101.152 8.77485 101.27 8.20559 101.499 7.67783C101.729 7.15007 102.064 6.6751 102.485 6.2824C102.905 5.8897 103.402 5.58767 103.944 5.39508C104.486 5.20248 105.063 5.12343 105.637 5.16283L105.627 5.1382Z" fill="#FFFDF8"/>
<path d="M121.504 2.50751C117.391 2.50751 114.292 5.419 114.292 9.33056C114.292 13.2421 117.406 16.193 121.519 16.193C125.633 16.193 128.746 13.2372 128.746 9.33056C128.746 5.42393 125.623 2.50751 121.504 2.50751ZM121.544 13.5377C120.435 13.5299 119.375 13.0824 118.597 12.2935C117.818 11.5047 117.384 10.439 117.391 9.33056C117.386 8.78299 117.491 8.23995 117.697 7.73293C117.904 7.2259 118.21 6.76497 118.596 6.37685C118.982 5.98873 119.442 5.68114 119.948 5.4719C120.454 5.26266 120.996 5.15593 121.544 5.15791C122.087 5.15843 122.625 5.26742 123.126 5.47847C123.627 5.68953 124.08 5.99841 124.46 6.38701C124.84 6.77562 125.139 7.23614 125.338 7.74159C125.538 8.24703 125.635 8.78724 125.623 9.33056C125.635 9.87552 125.538 10.4174 125.339 10.9248C125.14 11.4321 124.842 11.8949 124.462 12.2862C124.083 12.6776 123.63 12.9897 123.129 13.2045C122.628 13.4194 122.089 13.5326 121.544 13.5377Z" fill="#FFFDF8"/>
<path d="M140.767 2.60114L137.077 12.7495L133.407 2.60114H130.14L135.426 16.0551H138.56L143.9 2.60114H140.767Z" fill="#FFFDF8"/>
<path d="M5.60619 12.4835L6.32051 8.40442C5.96333 8.12763 5.70181 7.7459 5.5727 7.31286C5.44359 6.87982 5.45337 6.41721 5.60066 5.99C5.74795 5.5628 6.02536 5.19247 6.39392 4.93101C6.76248 4.66956 7.20369 4.53012 7.65556 4.53228V0H2.13801C1.57096 0 1.02714 0.225259 0.626175 0.626221C0.225212 1.02718 -4.63841e-05 1.57101 -4.63841e-05 2.13805V12.6214C-0.00170097 12.8192 0.0421224 13.0147 0.12804 13.1929C0.59112 14.1289 2.41881 17.134 7.65064 19.4445V12.6608C6.96533 12.6603 6.28134 12.601 5.60619 12.4835Z" fill="#E21D3E"/>
<path d="M13.1633 0H7.6507V4.52735C8.0982 4.5276 8.53461 4.66665 8.89975 4.92535C9.2649 5.18405 9.54081 5.54965 9.68944 5.97176C9.83806 6.39386 9.85209 6.85167 9.72959 7.28208C9.60708 7.71248 9.35408 8.09429 9.00545 8.37486L9.71978 12.4736C9.03653 12.5926 8.34423 12.6519 7.6507 12.651V19.4445C12.8776 17.1438 14.7102 14.1289 15.1733 13.1978C15.2592 13.0196 15.303 12.8241 15.3014 12.6263V2.13805C15.3014 1.85728 15.2461 1.57926 15.1386 1.31986C15.0312 1.06046 14.8737 0.824758 14.6752 0.626221C14.4766 0.427685 14.2409 0.270197 13.9815 0.16275C13.7221 0.0553024 13.4441 0 13.1633 0V0Z" fill="#B51E23"/>
</svg>
