<svg xmlns="http://www.w3.org/2000/svg" xmlns:xlink="http://www.w3.org/1999/xlink" viewBox="0 0 378.14 201.07"><defs><style>.cls-1{fill:#ff6839;}.cls-2{fill:url(#linear-gradient);}.cls-3{fill:url(#linear-gradient-2);}.cls-4{fill:url(#linear-gradient-3);}.cls-5{fill:url(#linear-gradient-4);}.cls-6{fill:url(#linear-gradient-5);}.cls-7{fill:url(#linear-gradient-6);}.cls-8{fill:url(#linear-gradient-7);}.cls-9{fill:url(#linear-gradient-8);}.cls-10{fill:url(#linear-gradient-9);}.cls-11{fill:url(#linear-gradient-10);}.cls-12{fill:url(#linear-gradient-11);}.cls-13{fill:url(#linear-gradient-12);}.cls-14{fill:url(#linear-gradient-13);}.cls-15{fill:url(#linear-gradient-14);}.cls-16{fill:url(#linear-gradient-15);}.cls-17{fill:url(#linear-gradient-16);}.cls-18{fill:url(#linear-gradient-17);}.cls-19{fill:url(#linear-gradient-18);}.cls-20{fill:url(#linear-gradient-19);}.cls-21{fill:url(#linear-gradient-20);}.cls-22{fill:url(#linear-gradient-21);}.cls-23{fill:url(#linear-gradient-22);}.cls-24{fill:url(#linear-gradient-23);}.cls-25{fill:url(#linear-gradient-24);}.cls-26{fill:url(#linear-gradient-25);}.cls-27{fill:url(#linear-gradient-26);}.cls-28{fill:url(#linear-gradient-27);}.cls-29{fill:url(#linear-gradient-28);}.cls-30{fill:url(#linear-gradient-29);}.cls-31{fill:url(#linear-gradient-30);}.cls-32{fill:url(#linear-gradient-31);}.cls-33{fill:url(#linear-gradient-32);}.cls-34{fill:url(#linear-gradient-33);}.cls-35{fill:url(#linear-gradient-34);}.cls-36{fill:url(#linear-gradient-35);}.cls-37{fill:url(#linear-gradient-36);}.cls-38{fill:url(#linear-gradient-37);}.cls-39{fill:url(#linear-gradient-38);}.cls-40{fill:url(#linear-gradient-39);}.cls-41{fill:url(#linear-gradient-40);}.cls-42{fill:url(#linear-gradient-41);}.cls-43{fill:url(#linear-gradient-42);}.cls-44{fill:url(#linear-gradient-43);}.cls-45{fill:url(#linear-gradient-44);}.cls-46{fill:url(#linear-gradient-45);}.cls-47{fill:url(#linear-gradient-46);}.cls-48{fill:url(#linear-gradient-47);}.cls-49{fill:url(#linear-gradient-48);}.cls-50{fill:url(#linear-gradient-49);}.cls-51{fill:url(#linear-gradient-50);}.cls-52{fill:url(#linear-gradient-51);}.cls-53{fill:url(#linear-gradient-52);}.cls-54{fill:url(#linear-gradient-53);}.cls-55{fill:url(#linear-gradient-54);}.cls-56{fill:url(#linear-gradient-55);}.cls-57{fill:url(#linear-gradient-56);}.cls-58{fill:url(#linear-gradient-57);}.cls-59{fill:url(#linear-gradient-58);}.cls-60{fill:url(#linear-gradient-59);}.cls-61{fill:url(#linear-gradient-60);}</style><linearGradient id="linear-gradient" x1="-2.94" y1="62.9" x2="-2.93" y2="62.9" gradientTransform="matrix(1, -0.06, 0.06, 1, 260.23, 11.34)" gradientUnits="userSpaceOnUse"><stop offset="0.13" stop-color="#ff6839"/><stop offset="0.54" stop-color="#a0a28b"/><stop offset="0.85" stop-color="#5ecac3"/><stop offset="1" stop-color="#45d9d9"/></linearGradient><linearGradient id="linear-gradient-2" x1="6.85" y1="59.18" x2="6.89" y2="59.17" xlink:href="#linear-gradient"/><linearGradient id="linear-gradient-3" x1="81.01" y1="189.35" x2="81.03" y2="189.35" xlink:href="#linear-gradient"/><linearGradient id="linear-gradient-4" x1="83.97" y1="190.97" x2="84" y2="190.97" xlink:href="#linear-gradient"/><linearGradient id="linear-gradient-5" x1="96.57" y1="191.2" x2="96.58" y2="191.2" xlink:href="#linear-gradient"/><linearGradient id="linear-gradient-6" x1="86.9" y1="192.28" x2="86.94" y2="192.27" xlink:href="#linear-gradient"/><linearGradient id="linear-gradient-7" x1="92.48" y1="189.63" x2="92.51" y2="189.62" xlink:href="#linear-gradient"/><linearGradient id="linear-gradient-8" x1="99.28" y1="192.59" x2="99.32" y2="192.58" xlink:href="#linear-gradient"/><linearGradient id="linear-gradient-9" x1="99.31" y1="192.56" x2="99.34" y2="192.55" xlink:href="#linear-gradient"/><linearGradient id="linear-gradient-10" x1="96.58" y1="191.18" x2="96.6" y2="191.17" xlink:href="#linear-gradient"/><linearGradient id="linear-gradient-11" x1="94.02" y1="189.35" x2="94.05" y2="189.34" xlink:href="#linear-gradient"/><linearGradient id="linear-gradient-12" x1="73.8" y1="178.31" x2="73.82" y2="178.3" xlink:href="#linear-gradient"/><linearGradient id="linear-gradient-13" x1="85.96" y1="178.99" x2="85.98" y2="178.99" xlink:href="#linear-gradient"/><linearGradient id="linear-gradient-14" x1="83.04" y1="176.29" x2="83.09" y2="176.28" xlink:href="#linear-gradient"/><linearGradient id="linear-gradient-15" x1="77.58" y1="165.61" x2="77.6" y2="165.6" xlink:href="#linear-gradient"/><linearGradient id="linear-gradient-16" x1="90.16" y1="180.16" x2="90.17" y2="180.16" xlink:href="#linear-gradient"/><linearGradient id="linear-gradient-17" x1="89.33" y1="179.03" x2="89.36" y2="179.03" xlink:href="#linear-gradient"/><linearGradient id="linear-gradient-18" x1="101.1" y1="180.27" x2="101.13" y2="180.27" xlink:href="#linear-gradient"/><linearGradient id="linear-gradient-19" x1="99.02" y1="179.21" x2="99.03" y2="179.21" xlink:href="#linear-gradient"/><linearGradient id="linear-gradient-20" x1="99.02" y1="179.19" x2="99.04" y2="179.19" xlink:href="#linear-gradient"/><linearGradient id="linear-gradient-21" x1="106.88" y1="183.52" x2="106.9" y2="183.52" xlink:href="#linear-gradient"/><linearGradient id="linear-gradient-22" x1="100.05" y1="176.53" x2="100.07" y2="176.52" xlink:href="#linear-gradient"/><linearGradient id="linear-gradient-23" x1="87.06" y1="177.79" x2="87.08" y2="177.78" xlink:href="#linear-gradient"/><linearGradient id="linear-gradient-24" x1="101.12" y1="180.25" x2="101.15" y2="180.24" xlink:href="#linear-gradient"/><linearGradient id="linear-gradient-25" x1="13.06" y1="64.76" x2="13.15" y2="64.74" xlink:href="#linear-gradient"/><linearGradient id="linear-gradient-26" x1="47.27" y1="159.85" x2="47.29" y2="159.85" xlink:href="#linear-gradient"/><linearGradient id="linear-gradient-27" x1="74.99" y1="181.09" x2="75.16" y2="181.04" xlink:href="#linear-gradient"/><linearGradient id="linear-gradient-28" x1="98.82" y1="186.8" x2="98.85" y2="186.79" xlink:href="#linear-gradient"/><linearGradient id="linear-gradient-29" x1="85.96" y1="176.2" x2="85.96" y2="176.2" xlink:href="#linear-gradient"/><linearGradient id="linear-gradient-30" x1="94.55" y1="171.14" x2="94.82" y2="171.06" xlink:href="#linear-gradient"/><linearGradient id="linear-gradient-31" x1="98.55" y1="173.5" x2="98.56" y2="173.5" xlink:href="#linear-gradient"/><linearGradient id="linear-gradient-32" x1="83.66" y1="65.44" x2="83.69" y2="65.43" xlink:href="#linear-gradient"/><linearGradient id="linear-gradient-33" x1="6.98" y1="142.11" x2="7.03" y2="142.1" xlink:href="#linear-gradient"/><linearGradient id="linear-gradient-34" x1="7.03" y1="142.08" x2="7.07" y2="142.07" xlink:href="#linear-gradient"/><linearGradient id="linear-gradient-35" x1="-9.06" y1="154.87" x2="-9.05" y2="154.87" xlink:href="#linear-gradient"/><linearGradient id="linear-gradient-36" x1="-9.07" y1="154.82" x2="-9.07" y2="154.82" xlink:href="#linear-gradient"/><linearGradient id="linear-gradient-37" x1="-8.34" y1="170.6" x2="-8.08" y2="170.52" xlink:href="#linear-gradient"/><linearGradient id="linear-gradient-38" x1="5.02" y1="162.93" x2="5.04" y2="162.93" xlink:href="#linear-gradient"/><linearGradient id="linear-gradient-39" x1="-5.92" y1="174.08" x2="-5.91" y2="174.07" xlink:href="#linear-gradient"/><linearGradient id="linear-gradient-40" x1="-5.94" y1="174.04" x2="-5.92" y2="174.04" xlink:href="#linear-gradient"/><linearGradient id="linear-gradient-41" x1="-4.28" y1="168.44" x2="-4.25" y2="168.43" xlink:href="#linear-gradient"/><linearGradient id="linear-gradient-42" x1="-2.6" y1="168.96" x2="-2.57" y2="168.95" xlink:href="#linear-gradient"/><linearGradient id="linear-gradient-43" x1="-0.03" y1="165.81" x2="-0.02" y2="165.81" xlink:href="#linear-gradient"/><linearGradient id="linear-gradient-44" x1="-13.11" y1="176.93" x2="-13.1" y2="176.93" xlink:href="#linear-gradient"/><linearGradient id="linear-gradient-45" x1="2.49" y1="165.35" x2="2.51" y2="165.35" xlink:href="#linear-gradient"/><linearGradient id="linear-gradient-46" x1="61.03" y1="89.13" x2="61.09" y2="89.12" xlink:href="#linear-gradient"/><linearGradient id="linear-gradient-47" x1="61.06" y1="89.04" x2="61.32" y2="88.97" xlink:href="#linear-gradient"/><linearGradient id="linear-gradient-48" x1="71.83" y1="77.45" x2="71.99" y2="77.41" xlink:href="#linear-gradient"/><linearGradient id="linear-gradient-49" x1="65.89" y1="84.86" x2="65.9" y2="84.86" xlink:href="#linear-gradient"/><linearGradient id="linear-gradient-50" x1="-4.71" y1="178.08" x2="-4.68" y2="178.07" xlink:href="#linear-gradient"/><linearGradient id="linear-gradient-51" x1="13.72" y1="176.61" x2="13.74" y2="176.6" xlink:href="#linear-gradient"/><linearGradient id="linear-gradient-52" x1="4.02" y1="184.3" x2="4.03" y2="184.3" xlink:href="#linear-gradient"/><linearGradient id="linear-gradient-53" x1="-2.91" y1="162.02" x2="-2.78" y2="161.98" xlink:href="#linear-gradient"/><linearGradient id="linear-gradient-54" x1="-26.05" y1="174.24" x2="-26.01" y2="174.23" xlink:href="#linear-gradient"/><linearGradient id="linear-gradient-55" x1="14.64" y1="174.64" x2="14.78" y2="174.6" xlink:href="#linear-gradient"/><linearGradient id="linear-gradient-56" x1="104.75" y1="91.5" x2="104.77" y2="91.5" xlink:href="#linear-gradient"/><linearGradient id="linear-gradient-57" x1="69.14" y1="127.12" x2="69.25" y2="127.08" xlink:href="#linear-gradient"/><linearGradient id="linear-gradient-58" x1="40.67" y1="158" x2="40.7" y2="157.99" xlink:href="#linear-gradient"/><linearGradient id="linear-gradient-59" x1="30.24" y1="167.51" x2="30.27" y2="167.5" xlink:href="#linear-gradient"/><linearGradient id="linear-gradient-60" x1="-38.9" y1="151.05" x2="112.1" y2="106.33" xlink:href="#linear-gradient"/></defs><g id="Layer_2" data-name="Layer 2"><g id="Layer_2-2" data-name="Layer 2"><path class="cls-1" d="M75.61,195.73H39.17V39.17H0L21.37,5.34H75.61Z"/><path class="cls-1" d="M170.53,201.07q-21.24,0-35.61-9.86-14.94-10.28-23-31.09-8.9-20.28-8.9-57.8,0-52.18,16.85-75.61Q137.66,0,169.71,0,191.07,0,206,10.41t23.29,31.37q7.94,21.22,7.94,58.76,0,38.76-7.94,59.58-9,20.82-23.15,31.09Q191.89,201.07,170.53,201.07Zm0-34.79q13.42,0,21.37-12.46,8.9-16.17,8.9-53.28,0-37.4-8.08-51.64-8.91-14.25-22.19-14.25-19.59,0-26.71,26.71-3.57,14-3.56,41.78,0,36,8.08,49.86Q157.1,166.27,170.53,166.28Z"/><path class="cls-2" d="M261.14,74.29v0Z"/><path class="cls-3" d="M270.72,70l0,0S270.67,70,270.72,70Z"/><path class="cls-4" d="M352.68,195.39l0,0Z"/><path class="cls-5" d="M355.72,196.84v0S355.74,196.81,355.72,196.84Z"/><path class="cls-6" d="M368.31,196.27v0S368.3,196.29,368.31,196.27Z"/><path class="cls-7" d="M358.77,198l-.06,0S358.72,197.93,358.77,198Z"/><path class="cls-8" d="M364.15,195l0,0C364.17,195,364.17,195,364.15,195Z"/><path class="cls-9" d="M371.12,197.47v0S371.09,197.52,371.12,197.47Z"/><path class="cls-10" d="M371.15,197.46h0S371.16,197.45,371.15,197.46Z"/><path class="cls-11" d="M368.33,196.25l0,0Z"/><path class="cls-12" d="M365.66,194.58l0,0,0,0Z"/><path class="cls-13" d="M344.79,184.8h0l0,0Z"/><path class="cls-14" d="M357,184.75s0,0,0,0Z"/><path class="cls-15" d="M353.94,182.24s-.06,0-.06,0Z"/><path class="cls-16" d="M347.78,171.9c0-.05,0,0,0,0Z"/><path class="cls-17" d="M361.23,185.65h0S361.23,185.64,361.23,185.65Z"/><path class="cls-18" d="M360.34,184.59a0,0,0,0,0,0,0S360.36,184.57,360.34,184.59Z"/><path class="cls-19" d="M372.18,185.08v0S372.15,185.11,372.18,185.08Z"/><path class="cls-20" d="M370,184.15v0S370,184.17,370,184.15Z"/><path class="cls-21" d="M370,184.14h0Z"/><path class="cls-22" d="M378.13,188h0S378.12,188,378.13,188Z"/><path class="cls-23" d="M370.89,181.43s0,0,0,0Z"/><path class="cls-24" d="M358,183.48h0Z"/><path class="cls-25" d="M372.2,185.07h0Z"/><path class="cls-26" d="M277.3,75.13l0,.07C277.18,75.22,277.27,75.15,277.3,75.13Z"/><path class="cls-27" d="M317.19,168Z"/><path class="cls-28" d="M346.35,187.57c0,.2-.23-.15-.26-.22h0S346.34,187.49,346.35,187.57Z"/><path class="cls-29" d="M370.31,191.75h0S370.28,191.74,370.31,191.75Z"/><path class="cls-30" d="M356.79,182Z"/><path class="cls-31" d="M365.24,176.25c.05,0,0,.07.08.11C365.64,176.61,364.57,176.12,365.24,176.25Z"/><path class="cls-32" d="M369.2,178.49Z"/><path class="cls-33" d="M347.75,71.55l0,0S347.76,71.55,347.75,71.55Z"/><path class="cls-34" d="M275.89,152.75h0C275.87,152.77,275.88,152.76,275.89,152.75Z"/><path class="cls-35" d="M275.93,152.74s0,0,0,0Z"/><path class="cls-36" d="M260.65,166.48v0C260.67,166.54,260.67,166.51,260.65,166.48Z"/><path class="cls-37" d="M260.65,166.44s0,0,0,0S260.63,166.4,260.65,166.44Z"/><path class="cls-38" d="M262.35,182.17l.22-.18A1.75,1.75,0,0,1,262.35,182.17Z"/><path class="cls-39" d="M275.21,173.65h0Z"/><path class="cls-40" d="M265,185.47v0S265,185.48,265,185.47Z"/><path class="cls-41" d="M265,185.43l0,0Z"/><path class="cls-42" d="M266.26,179.72c.05,0,0,0,0,0Z"/><path class="cls-43" d="M268,180.15h0a.05.05,0,0,1,0,0S268,180.14,268,180.15Z"/><path class="cls-44" d="M270.34,176.84s0,0,0,0Z"/><path class="cls-45" d="M258,188.78c-.12-.23,0,.08,0,0Z"/><path class="cls-46" d="M272.84,176.23s0,0,0,0Z"/><path class="cls-47" d="M326.6,96.59s0,0,0,0Z"/><path class="cls-48" d="M326.85,96.34l-.21.21Z"/><path class="cls-49" d="M336.8,84.16c-.2.27-.15.09,0,0Z"/><path class="cls-50" d="M331.19,92v0S331.16,92,331.19,92Z"/><path class="cls-51" d="M266.43,189.36s-.06,0,0,0Z"/><path class="cls-52" d="M284.72,186.78h0Z"/><path class="cls-53" d="M275.5,195a.05.05,0,0,0,0,0S275.49,195,275.5,195Z"/><path class="cls-54" d="M267.32,173.21a.22.22,0,0,1-.07.06C267.18,173.33,267.41,173,267.32,173.21Z"/><path class="cls-55" d="M244.91,186.83l0,0S244.91,186.82,244.91,186.83Z"/><path class="cls-56" d="M285.61,184.73a.22.22,0,0,1-.07.06C285.47,184.85,285.7,184.54,285.61,184.73Z"/><path class="cls-57" d="M370.37,96.27h0Z"/><path class="cls-58" d="M337.05,134c-.09,0,0-.23.07-.1A.1.1,0,0,1,337.05,134Z"/><path class="cls-59" d="M310.48,166.53a.05.05,0,0,1,0,0S310.44,166.52,310.48,166.53Z"/><path class="cls-60" d="M300.67,176.68s0,0,0,0Z"/><path class="cls-61" d="M248.45,191.18a8.05,8.05,0,0,0,.76-.58c0,.26.27.08.34,0s0,0,0,0c.24-.18.1-.28-.07-.27a13.07,13.07,0,0,1,1-.85,6.78,6.78,0,0,0,1.67-1.17c.43-.56,1.23-.69,1.63-1.29-.1-.07-1.56-.12-.63-.54.47-.21,1.16,0,1.47-.52s-.07-.94.79-.91a1.55,1.55,0,0,0,1.51-1.18l.17.13a.17.17,0,0,0,0,.1l.08,0c.24.19.37.26.76-.1s.65-.83,1-1.22.42-.26.49-.64a.81.81,0,0,1,.35-.5,9.15,9.15,0,0,0,.86-.79,2.57,2.57,0,0,0,.39-.63,3.63,3.63,0,0,1,.57-.48,3.54,3.54,0,0,0,.67-.37,6.75,6.75,0,0,0-.82,1,2.9,2.9,0,0,0,1.41-.65c.27-.26-.24-.76-.38-.93a1,1,0,0,1-.16.52.46.46,0,0,0,0-.35q-.16.16-.33.3a2.85,2.85,0,0,1,0-1,4.11,4.11,0,0,0-.32.35.38.38,0,0,1-.09-.18.33.33,0,0,0,.15-.33,1.28,1.28,0,0,0,.34-.41.19.19,0,0,0,0,.12s.05,0,.06,0,.42-.28.28-.36a.27.27,0,0,0-.36.14.45.45,0,0,0-.17-.36c-.4.27-.56.75-1,.95a2.37,2.37,0,0,1-.57.14l.12-.1c.32-.22.45,0,.65-.35s.44-.79.9-.83a1.18,1.18,0,0,0-.11.19c.33-.42,1.08.08,1.41-.51a1.19,1.19,0,0,0-.7-.1c.08-.46.27-.24.68-.24.16,0,.48-.26.64-.33v.09s0-.06,0-.09c0,.2,0,.16,0,.09-.08.36-.51.54-.28,1l1-1.35.06,0,.06.32a1.76,1.76,0,0,1,.24-.3h.11a.46.46,0,0,0,.44-.47.4.4,0,0,0,0-.15h0s0,0,0,.05.27.08.23-.12h0c.12-.08.17-.21.06-.48a2.54,2.54,0,0,0-.41.18c.15-.16,0-.33-.13-.42l0,0a.87.87,0,0,1,.12-.14c.17-.16.41-.05.58-.26a2.24,2.24,0,0,1,.39-.33c0,.18.09.42.18.37s.2-.5.11-.58a.85.85,0,0,0,.26-.29,1,1,0,0,1,.28-.43,2,2,0,0,0,0,.25.34.34,0,0,0,.19.16s0,.09-.08.14-.05.06-.07.06c-.21.2-.6.49-.5.77s.92-.49,1-.58a2,2,0,0,0,.34-.42,5.39,5.39,0,0,1,.52-.3c-.28.28-.63.52-.57.86a2.87,2.87,0,0,0,1-.69s0,0,0,0,0,0,0,0a1.19,1.19,0,0,1,.46-.27c.23-.07.31,0,.33.07a1.26,1.26,0,0,0-.38.74,1.27,1.27,0,0,1-1,.51,7.86,7.86,0,0,0-.94.65.54.54,0,0,1,.17-.43c.16-.2.27-.72-.16-.44s-.6.76-.88,1.15-.73.42-1,.76-.14.38,0,.51a3.27,3.27,0,0,0-.86.56v0c0-.11-.11-.2-.16-.07s-.05.21.08.16l-.33.34a3.86,3.86,0,0,0,1.39-.86,1.19,1.19,0,0,1,.18.15c.1-.51.32-.48.67-.73.18-.13,0-.4.12-.53s.23,0,.41.06a.68.68,0,0,0,.2.35c-.29.13-.31.17-.36.5a1.15,1.15,0,0,0-.48.22,9.13,9.13,0,0,0-1.15,1c0,.18.35.44.47.53s.2.65.35.62.17-.09.26-.11l-.46.4c-.08-.17-.23.06-.46,0s-.15-.23-.57-.23a.31.31,0,0,1-.23-.1.8.8,0,0,0,.2-.36,1,1,0,0,1-.26.16.76.76,0,0,1,.06-.26,3.25,3.25,0,0,0-.61.29c-.21-.44-.65.59-.66.68.32.1.59.09.69-.11.06,0,.1,0,.1.09s-.28.25-.26.46c.07.58.81-.15,1.1,0a2.37,2.37,0,0,1-.22.8.5.5,0,0,0-.1.19,1.81,1.81,0,0,1-.44.48.59.59,0,0,0,.44-.11v.08c0,.19.17-.19.56-.21a5.48,5.48,0,0,0,1.12-.38c.2,0,.65.4.64.58s-.37.13-.43.37-.35.27-.43.06c-.18-.45-.92-.63-1-.26-.26.84-.56.58-.92,1.33,0,.06,0-.12-.06.2l.12,0a2.32,2.32,0,0,1,.53,0c-.27.27-.46.82-.6.11,0-.21-.28-.17-.36-.34s-.35-.32-.27-.49c.14-.32.65-.24,1-.36-.13-.28-.31-.93-.74-.69-.23.14-.83.54-.86.85a.46.46,0,0,0,.06.23,1.39,1.39,0,0,0-.15.19l.21-.09c.17.22.47.41.58.62s-.36.45-.53.54c-.17-.28,0-.88-.52-.53-.34.23-.1.62-.17.94a.88.88,0,0,1-.74.63,2,2,0,0,0-.83.66,1.68,1.68,0,0,1-.91.67c-.3,0-.53,0-.53.38,0,.62.28.07.55.2s.18.35.32.11,0-.31.15-.42.29,0,.44-.13.33-.57.54-.53.39.33.7,0,.14-.5.3-.75.38-.22.53-.35a3.78,3.78,0,0,0,.49-.49c.05,0,.57-.58.61-.21,0,.2-.2.62.26.24a3.7,3.7,0,0,1,1.07-.73c-.44-.27-.33-1.25.11-.9.23.18-.08.52.19.68-.15.1-.34.14-.31.34s.13.16.26.09a.78.78,0,0,1,.23-.25l-.11.17a3,3,0,0,0-.26.24,3.2,3.2,0,0,0-.68.79c-.1.23-.71.29-.92.38a1.27,1.27,0,0,0-.67.58c-.06.1-.17.84-.45.64s-.49-.22-.55.13-.32.49-.62.75-.27.35-.51.16-.5.13-.71.27l-1.12.79a2.55,2.55,0,0,1-.81.36c-.24.08-.12.39,0,.52s.51-.08.67-.12c.69-.2.95-.77,1.67-.78a1.2,1.2,0,0,0,.59-.15c.15.1.38.14.42-.15a.38.38,0,0,0,0-.15,3.88,3.88,0,0,1,.73-.58,2.58,2.58,0,0,0,.79-.56.67.67,0,0,1,.33-.13c-.05.06-.17.25.15.09s.88-.5.82-.7c.21-.07.32-.31.45-.47s.56,0,.84-.22a.66.66,0,0,0,.15-.23c.14,0,.25,0,.18-.17l0-.07a.25.25,0,0,1,.2-.1c.52.07,1,.2,1.47-.27.19-.21.13-.53.32-.76a4.77,4.77,0,0,1,.59-.6.9.9,0,0,0,.28-.27l.34-.34c.23-.07.53-.26.68-.19a2.5,2.5,0,0,1-.05.29h0a1,1,0,0,0-.53.35.86.86,0,0,0-.53.67,6.36,6.36,0,0,0,.58-.3l.12.1a2.76,2.76,0,0,1-.3.29.6.6,0,0,0,.49-.16.5.5,0,0,1,.12.14c.42-.08.67-1,1.21-.83a11.55,11.55,0,0,1-1.36,1.06.47.47,0,0,0,.11-.21c-.35.05-.54.33-.75.6a2,2,0,0,0-.43.35c-.13.15-.22.38-.39.49s-.63.09-.77.38c-.21.44-.71.63-1.1.87l-.37.24-.13.09c-.26.18-.52.38-.78.58-.84.64-1.66,1.29-2.53,1.9-.11.07-1.1.61-.61.77.18.06.6-.49.81-.57s.75-.19.94-.57.65-.31.94-.53c.13-.09.89.47.63.76s-.29.2-.42.13a.08.08,0,0,1,.05-.07l-.09.06a2.39,2.39,0,0,1-.22-.16c-.26-.2-.63-.3-.81,0a6.28,6.28,0,0,1-.77.83c-.35.32-.91.29-1,.8,0,.31-.37.22-.58.24s-.25.47-.44.67c-.52.51-1.29.77-1.72,1.39a1,1,0,0,1,1.21.08,2.07,2.07,0,0,1,.71-1.37c.13-.11.28-.2.42,0s.37.11.57-.14,0-.61.26-.69.46.17.73.07.34-.27.52-.16c-.15.05-.27.13-.22.33.09.36-.15.61-.41.84h0c-.33.17-.56,0-.83.35s-.26.42-.57.57a2.83,2.83,0,0,0-.7.55,2.32,2.32,0,0,1-.91.61c-.35.11,0,.41.29.33s.35-.26.74-.27a3.68,3.68,0,0,0-.73.51.44.44,0,0,0-.12.26c-.06.07-.12.15-.18.21a3.41,3.41,0,0,1-.47.46c0-.08-.11-.12-.16,0a.22.22,0,0,0,0,.13,1.76,1.76,0,0,1-.55.22c-.69.11.17.49.23.59.27.43-.59.58-.6.92a.27.27,0,0,1,.12,0,.17.17,0,0,0,0,.12c.08.12.41,0,.44.14s-.27.25-.25.44a1.32,1.32,0,0,0-.3.37c-.31,0-.67.08-.43.33a.38.38,0,0,0,.44.1.14.14,0,0,0,.08.09c.21.15.42-.23.28-.41h0v0c0-.06,0-.1-.06-.09H259l.24-.13a.71.71,0,0,0,.32-.08.39.39,0,0,0-.08.14c-.1.3.28.14.6-.06a1.84,1.84,0,0,1-.68,1.18c.44.09.82-.56,1.18-.77.12-.06.27-.1.41-.17.17.15.31-.05.32-.19a.5.5,0,0,0,.12-.48c-.19.05-.32.11-.39-.06.21-.1.39-.23.36-.39-.06-.32-.29-.18-.5,0-.07,0-.15.06-.27.06h0c.37-.26-.16-.36-.3-.13-.06-.06-.1-.11-.34-.11a.24.24,0,0,1-.23-.11,2.59,2.59,0,0,0,.88-.65l.18.15c.15.11.19.61.33.58s.27-.18.34-.08a2.14,2.14,0,0,1,.17.34l-.07.09.11,0a.9.9,0,0,0,.27.2,1.46,1.46,0,0,0-.23.37c.21-.22.69-.24.82-.52s0-.2,0-.21a1.08,1.08,0,0,1,.14-.21l.09-.09h.08l0-.07L263,196a1.5,1.5,0,0,0-.11.22.6.6,0,0,0,.71-.29.72.72,0,0,0-.4-.1l.44-.32c.19.07.33,0,.47-.26H264l.1-.08c.12-.09.22-.18.33-.28a.24.24,0,0,0,.12,0c.31-.09.32-.24.21-.27l.19-.11a1,1,0,0,0,.46-.49,1.41,1.41,0,0,1,.55-.08c.22,0,.39-.21.52-.39l.29-.2a.51.51,0,0,0-.17.05,4.65,4.65,0,0,1,.72-.61l.32-.26h0a7,7,0,0,1,.76-.59h0a1.39,1.39,0,0,0,.46-.23c-.05.36-.46.48-.51.84a2.9,2.9,0,0,0,.33-.2.57.57,0,0,0,.05.3l.65-.87.18-.17.2-.22c0,.08,0,.17,0,.26a2.17,2.17,0,0,1,.24-.29.2.2,0,0,0,.11,0,.42.42,0,0,0,.41-.44,0,0,0,0,0,0,0c.14,0,.3.3.46.31.37,0,.66-.49.75-.79.26-.87,1.67.84.55.78a.64.64,0,0,0,0-.07l-.12,0c-.24-.1-.27-.72-.57-.21-.11.2-.49.38-.19.62s.33.64.63.53.64-.65,1.09-.65h.12a1.39,1.39,0,0,0,.26.29.84.84,0,0,0,.17.34c.2.19.45.84.18.63a.68.68,0,0,0,.19.49c-.1,0-.16,0-.19-.25-.07-.43-.2-.15-.44-.18.08-.28-.66-.69-.68-.28,0,0,0,0,0,0-.27,0-.26-.35-.17-.54a2.09,2.09,0,0,0-.87.5c-.05-.15-.15-.23-.35-.14s-.12.32-.27.43a1.3,1.3,0,0,1-.38.17c-.35.12-.06.67.25.43a3.78,3.78,0,0,1,.84-.34c0-.06,0-.13,0-.21s.3,0,.32.1-.28.26-.26.46a.24.24,0,0,0,.1.2.27.27,0,0,1-.14.17h-.22c-.17,0-.29-.18-.47,0l.06.11c-.17,0-.25.14-.1.3a.57.57,0,0,0,.3.14.67.67,0,0,1,0,.19c0,.24-.28.2-.39.36s-.17.39-.3.56a.26.26,0,0,1-.43.05c-.22-.19-.13.16-.15.26-.06.43-.63.76-.83,1.18l-.1.09a1,1,0,0,0-.11.1c-.22.22-.51.37-.64.73a3.16,3.16,0,0,0,.68-.41c0,.14.15,0,.23-.12a.87.87,0,0,1,.28,0c.42,0,.54-.64.71-.94a2.7,2.7,0,0,0-.7.35,14,14,0,0,0,1.51-1.11c.39-.4.58-1.15,1.28-1.11-.15-.39.18-.47.4-.62a1.82,1.82,0,0,1-.68,1.08.45.45,0,0,0,.28,0c0,.29.52.8.49.49s-.07-.56-.24-.63c.14-.12.29-.27.43-.41a.17.17,0,0,0,.11-.1.94.94,0,0,1,.18-.12,1,1,0,0,1,.23-.1,3.73,3.73,0,0,1,.38.28.37.37,0,0,1,0,.47.76.76,0,0,0-.19.61c.18.74.57-.63.92-.87s.2-.44-.09-.58a2.5,2.5,0,0,1-.41-.25.43.43,0,0,0,.09-.26h.12c.54-.1,1.46.6,1.56.67s.33.37.48.21a.2.2,0,0,0-.06-.31c-.25-.16.13-.3,0-.55a.22.22,0,0,0-.18-.11c.13-.08.15-.17.2-.43a2.32,2.32,0,0,0-.41.34h0c-.06-.07-.37-.15-.38-.18-.15-.5.75-.07.86-.22s0-.51.23-.64.39,0,.5-.2,0-.39.12-.58a2,2,0,0,1,.73-.42c.38-.2.44-.13.47-.55,0-.2.2-.32.34-.43s.47-.3.51-.49l.06-.09c.09-.14.18-.29.28-.43l.08,0c.26-.08.55,0,.82-.11s.48.07.59,0,.12-.42.1-.54-.19-.2-.36-.15c.08-.43.26-.22.67-.22h0c0,.08,0,.08.12.11a.08.08,0,0,0,0-.12c.17-.06.43-.26.56-.32v.09s0-.06,0-.09c0,.2,0,.16,0,.09-.08.36-.51.54-.28,1l1-1.35.06,0v0l-.17.19c-.23.24-.14.48.14.63s.16.17.13.27a.44.44,0,0,1-.2.15c-.12,0-.3.08-.25.25.12.43-.54.61-.52.95a1.62,1.62,0,0,0-.15.41c.17,0,.42-.1.49-.3s.05-.22,0-.27a1.43,1.43,0,0,1,.53-.39c.34-.11.12.22.21.3.29-.08.16-.4,0-.61a.3.3,0,0,1,.08-.08,0,0,0,0,0,.06,0l.07-.08.06,0c.38,0,.27-.44.14-.63a1.33,1.33,0,0,1-.16-.34.08.08,0,0,0,0,0,.11.11,0,0,1,0-.06l-.06,0c0-.14.06-.25.28-.29s.36.23.53.29a.31.31,0,0,0,0,.1c.15.29.24-.3.25-.33a.62.62,0,0,1,.61-.28c.21,0,0,.26.12.34h0a.59.59,0,0,0,0,.14,1,1,0,0,0,.37-.34.53.53,0,0,1,.22,0c-.1.16.07.55-.25.47-.13,0-.45.16-.25.28.42.26-.85.39-.82.13-.25.18.13.31,0,.42s-.24.16-.1.3-.07.33-.2.34-.15-.22-.31-.08-.5.4-.7.62.15.09.13.18-.29,0-.4,0-.14.2-.22.25c-.36.19.12.55-.43.49-.37,0-.71-.22-.43-.57.1-.12.16-.43-.1-.26a2.29,2.29,0,0,0-.51.69.74.74,0,0,1-.25.21c-.1-.14-.11-.36.19-.35s.26-.71-.07-.6-.59.69-.78.93a4.34,4.34,0,0,0-.86,1.19c.52.12.45-.17.63-.55a.45.45,0,0,1,.49-.28c-.08.17.09.21.26.35a.38.38,0,0,1,.06-.17c.28.25.26.08.45-.21.07-.1.33-.09.22-.28a.12.12,0,0,0-.07-.07c.22.07.54.25.64.26-.13.09-.22.32-.41.28a.58.58,0,0,0-.56.12,4.51,4.51,0,0,0-.68.59c0,.1.21.26.29.31s.12.39.21.37.17-.11.21,0,.07.28.34.39.32-.28.4-.38a6.41,6.41,0,0,1,.86-.7,5.43,5.43,0,0,1,.53-.42c.29-.14.24-.35.48-.52s.27,0,.39-.22.25-.48.53-.5.32.08.35-.19.14-.21.41-.21c.09,0,.28-.16.38-.2v0c0,.12,0,.09,0,.05-.05.22-.3.33-.16.59l.59-.81h0a1.29,1.29,0,0,1,0,.19,1.24,1.24,0,0,1,.14-.18h.07a.28.28,0,0,0,.26-.28.3.3,0,0,0,0-.1c.16,0,.29-.09.18-.33a1.66,1.66,0,0,0-.27.13l0,0a.38.38,0,0,0-.17-.08,1.32,1.32,0,0,1,.18-.26c.1-.1.25,0,.34-.16s.49-.33.56-.51a1,1,0,0,1,.38-.44.42.42,0,0,1,.37-.08l.5.42c-.21-.39.26-.56.47-.78s.22-.28.39-.33.27.09.43.09c.36,0,.09-.15.23-.38s.33-.61.48-.6c.08.16-.17.26-.06.44.31-.12.23-.55.5-.68a.53.53,0,0,1-.25,0c.07-.43.53-.51.8-.77,0,.3-.68.55-.16.59.14,0,.57-.72.57-.72s.23-.09.36-.09a.93.93,0,0,0,.23,0c.29-.08-.05-.29.06-.4s.38,0,.49-.13c.26-.28.6-.46.86-.73.46-.49-.66-.49-.21-1a.53.53,0,0,1,.65-.2c.1.12-.14.2,0,.32.12-.06.44-.19.39-.38s-.3-.28-.25-.41c.1-.31.34.1.46.15s.42-.31.38-.45a.2.2,0,0,1-.1,0c.2,0,.77-.62.84-.65s.42,0,.59-.1a.14.14,0,0,0-.05-.27c-.19,0-.31-.62,0-.46a.73.73,0,0,0,.93-.18,1.28,1.28,0,0,0,.29-.61c.07-.31.25-.33.47-.51s-.12-.36,0-.41.24,0,.36-.15a.23.23,0,0,0,.11-.11,0,0,0,0,1,0,0c.13-.1.24,0,.44-.08s.3-.2.42-.34.26-.41,0-.27c0,0-.1.21-.16.17a3.83,3.83,0,0,1,.89-1.16c.2-.22.38.19.66-.17s-.19-.59-.06-.78.21.06.32-.05,0-.24.05-.37c.11.15.26,0,.4,0s.23.36.39,0c.07-.13.26-.11.3-.27a.36.36,0,0,1-.17-.23c-.07-.39,0-.2-.26-.38.09,0,.13-.2.25-.17s.22.17.38.06.16-.28.32-.37a1.72,1.72,0,0,0,.37-.22c.12-.15.2-.32.43-.23.08,0,.06-.13,0-.15s.26-.4,0-.35c.12-.2.17-.33.39-.44s.36-.13.44-.26-.05-.28.07-.44.12-.12.16-.18a.32.32,0,0,0,.1-.19.47.47,0,0,0,.06-.09c.16-.14.43-.2.57-.43s.16-.44.33-.22.15.08.23,0,.16-.13.06-.27.08-.39.2-.53a4.32,4.32,0,0,0,.36-.46c.09,0,.37-.31.38-.33a2.49,2.49,0,0,0,.23-.23c.12,0,.28.06.42.06-.09.19-.32.26-.34.5.12-.11.54-.65.75-.47s-.18.73-.28.88a3.14,3.14,0,0,0,.7-.62l0,0s0,0,0,0,0-.08,0-.11c-.29-.32.3-.22.36-.26a3.54,3.54,0,0,0,.7-1c.3-.42.56-.87.84-1.31-.07,0-.28.21-.35.16s0-.34.09-.47a11.33,11.33,0,0,0,.88-1.4c.19.06.33-.2.46-.39s.49-.45.58-.65a.41.41,0,0,1,0-.08.4.4,0,0,0,.12.1c.29.18.39-.05.64-.13s.3.2.45.28c-.51.33-.32,0-.41.65a.62.62,0,0,1-.28.42c.08.27.4.23.53.45.3.5.38,0,.68-.11s.5.21.68-.06c.15.2-.08.45.11.63s.33-.26.56.05-.41.92,0,1.36c.5.59.78-.14,1.14.23a6.92,6.92,0,0,1,1.63,1.92c-.11.08-.23-.24-.3-.27-.44-.23,0,.43,0,.46.22.22.42.53.76.55s.54-.06.76.09a.05.05,0,0,0,0,0,.37.37,0,0,0,.19.18c.23.28.35.12.64.22s-.17.52.07.71.7.3.85.84a2.28,2.28,0,0,0,.54,1,1.25,1.25,0,0,0,1.61.22c.52-.28.37.72,0,.8a.24.24,0,0,0-.06.46c.3.13.7,0,1,.12.12.06,1.14,1,1.49,1.06a.53.53,0,0,1-.18,0c-.05.26.39.87.69.75s.58-.81.79-.3c.09.22-.34.52-.39.74s.48.52.69.62c.15-.22-.25-.34-.1-.56a.93.93,0,0,1,1.14.29c.81.85-1.1.94-.28,1.74.47.45,1.07.73,1.53,1.19.2.2.63,0,.86.18s-.36.57.13.68a1.38,1.38,0,0,0,.39-.09c.22,0,.57.34.64.13,0,0,.78,1.22,1,1.19.89-.1-.36-.48-.32-1,.49.43,1.27.52,1.44,1.26a1.07,1.07,0,0,1-.44-.05c.47.2.38.94.92,1.12.17-.3-.27-.46-.13-.75.24,0,.71.81.85,1,.28.39-.18.69.44.64.28,0,.42-.26.73-.19s.48.33.69.53c.39.36,1.21.61.88,1.3,0-.06.82-.76.81-.75a.66.66,0,0,1,.65.1c.35.27.55.38.7.73s.75.54,1,.82.42.08.6.24a3,3,0,0,1,.33.44.7.7,0,0,0-.28.15l0,0a3,3,0,0,0-.48-.19c-.15.43.07.53.35.56a.46.46,0,0,0,.44.62l.11,0a2.61,2.61,0,0,1,.27.31c0-.11,0-.22,0-.34l.07,0,1.08,1.34c.21-.47-.22-.64-.32-1,0,.07,0,.11,0-.1a.36.36,0,0,0,0,.1s0-.08,0-.1c.17.07.51.33.67.32.46,0,.63-.28.73.33.06.45.22.27.61.29s.71.47.95.81.34.13.68.35a1,1,0,0,1,.3.29c0,.16,0,.31.22.32a1,1,0,0,0,.35.25,3.5,3.5,0,0,1,.71.5.35.35,0,0,0,0,.23c.08.17.32.2.49.21a.59.59,0,0,1,0-.08,10.77,10.77,0,0,1,.89.61.15.15,0,0,1-.15.05c-.11,0-.26-.22-.34,0s.16.15.24.24c.21.25.19.41.47.1l.1-.09a.23.23,0,0,1,.07.07c.15.16.41.76.73.61l.14-.07a.47.47,0,0,0,.32,0l-.11-.16c.08-.13.1-.27.21-.44s.16,0,.26,0a.4.4,0,0,0,.13.13l.2.18a.63.63,0,0,0,0,.21c0,.35-.2.26-.45.21a.55.55,0,0,0,0,.37c-.12,0-.17.29,0,.43s.28,0,.25-.19c.21.12.49.18.68.27.4.2.83.9,1.31.77a2,2,0,0,1-.8-1.31.17.17,0,0,0,.11,0,.31.31,0,0,0,.15-.12c.35.1.79.39.83-.05,0-.2-.25-.27-.28-.43a.78.78,0,0,1,.21,0c.22.09.13.4.28.56s.9-.36.81.12c0,0-.16.08-.26.15a3.36,3.36,0,0,0-.76-.07c-.06,0-.1,0-.06.1a.44.44,0,0,0,.08.11c-.17,0-.36.05-.49-.1.24.44.33.49.64.26a.45.45,0,0,0,.17.11c0,.16.22.24,0,.38a.18.18,0,0,0,0,.29c.15.13.33-.16.42-.24a3.9,3.9,0,0,1,.3-.27,3.68,3.68,0,0,0,.49.29,1.11,1.11,0,0,0-.33-.41,1.58,1.58,0,0,1,.91-.39.35.35,0,0,0,.32-.14l.14.09a1.83,1.83,0,0,1-.59.55c-.26.16-.3.38,0,.54a1.19,1.19,0,0,1,.29.3c0,.23.11.29.23.31.2.29.37.48.42.1,0,0,0,0,0,0l0,0a.3.3,0,0,0,0-.1.73.73,0,0,0-.23-.43.34.34,0,0,1-.08-.43c.11-.17.38-.26.41-.46v0l.25.22a.33.33,0,0,0,.05.12c0,.07.12.11.17.09l.3.26a1.73,1.73,0,0,1-.25-.3.68.68,0,0,0,0-.44c0-.1-.11,0-.13,0-.13-.18-.18-.08-.18.08a3.45,3.45,0,0,0-.28-.26c-.07-.12-.17-.25-.23-.36a.78.78,0,0,1-.05.14l-.12-.09a.66.66,0,0,0,.06-.36c-.23.22-.07-.41.1-.6s0-.6.43-.65.68.4,1.08.49.35-.39.53-.56.1-.2,0-.28a2.51,2.51,0,0,0,.64.35,1.19,1.19,0,0,0-.37-.48h.06c.22,0,.37-.59.57-.2.06.13.15.2.29.15s.36.16.51.27a5,5,0,0,0,1.22.75c-.07-.27-.35-.37-.49-.59a3.74,3.74,0,0,0,.44.23c.34.16.21,0,.16-.09.29.17.57.38.87.56a4.81,4.81,0,0,1,.76.51,1.75,1.75,0,0,0,.42.39c.08.39.45.2.56,0l.09,0c.22.27.31.19.28.08.69.27,1.28,1,2.05,1-.15-.37-.55-.47-.86-.67-.13-.08-.33-.19-.2-.32s.16-.21.27-.22.36.35.58.41.49-.59.76-.27a1,1,0,0,0,.83.5c.36,0,.08.06.34.18s.35,0,.46.17c.3.41.81.51,1.23.74.1.05.24.21.37.13s.18-.21.32-.14c0-.32-.86-.37-.65-.8.05-.09.8-.53.16-.57a2,2,0,0,1-1.2-.6c-.25-.23-.5-.58-.85-.29-.19.16-.64.55-.82.22s.57-.38.06-.62a3,3,0,0,1-1-.71c-.35-.36-.88-.33-1.16-.81.57,0,.78.74,1.21.67.66-.1.75.93,1.26.8s.67.06,1,.12.56-.27.23-.33a2.11,2.11,0,0,1-.91-.48,2.84,2.84,0,0,0-.7-.44c-.3-.1-.37-.24-.59-.46s-.47-.11-.8-.24-.43-.35-.67-.49a.3.3,0,0,1-.08-.46c.15-.23.36,0,.55,0s.42-.18.66-.14.15.44.31.61.35.31.54.07.27-.08.39,0a1.93,1.93,0,0,1,.81,1.19.91.91,0,0,1,1.11-.2c-.47-.52-1.2-.69-1.74-1.11-.2-.16-.2-.58-.47-.57s-.51.12-.56-.17c-.09-.46-.6-.37-1-.63a4.92,4.92,0,0,1-.8-.69c-.19-.22-.52-.08-.75.13s-.36.36-.62.11.38-.84.51-.77c.29.18.66.15.92.39s.58.33.93.43.64.52.8.45.11-.09.11-.13a1,1,0,0,0,.24.1c.11,0,.28,0,.17-.14s-.45-.18-.47-.08a2.62,2.62,0,0,0-.69-.4c-.86-.48-1.7-1-2.53-1.5-.42-.25-.84-.49-1.28-.7s-.87-.31-1.1-.7-.52-.15-.75-.27a1.21,1.21,0,0,1-.33-.31c-.15-.26-.67-.88-.85-.75a.15.15,0,0,0-.06.2,11,11,0,0,1-1.36-.78c.15,0,.12-.22.12-.31s0,0,0-.12-.37,0-.28.19a1.29,1.29,0,0,0,.09.16c-.23-.16-.46-.33-.66-.5a1,1,0,0,0-.24-.17l.15-.11s-.34-.4-.43-.28,0,.15,0,.23a1.58,1.58,0,0,1-.41-.29,2.24,2.24,0,0,0-.89-.5,9.15,9.15,0,0,1-2-1.47c-.76-.56-1.52-1.13-2.24-1.72a4,4,0,0,0-1-.7s-.36-.09-.34-.18a.36.36,0,0,0-.15-.36,24.77,24.77,0,0,1-2-1.68l-.06-.05c.22,0,.58.26.77.19.13.11.23.08.4.14h0a.13.13,0,0,0-.11,0h-.14a.05.05,0,0,0-.05.09c.13.22.45.55.76.23.17.23.24.47.61.63a4.48,4.48,0,0,1,.8.57.34.34,0,0,0,.06.06l.08.05c.19.14.38.26.57.38l0,.06c-.08.21.13.17.3.12a4.43,4.43,0,0,1,.54.43c-.38-.06.07.17.19.19.15.2.4.71.69.57l.08,0a3,3,0,0,0,.32.21.18.18,0,0,0,.18.09l.08,0c.06.33.4.44.7.54a.25.25,0,0,0,0,.17c.06.13.24.15.37.17a1.78,1.78,0,0,0-.1-.21c.24.14.49.44.75.61a.1.1,0,0,1-.11,0c-.08,0-.2-.17-.26,0s.12.12.18.18.15.33.36.09a.44.44,0,0,1,.23-.14.14.14,0,0,0,.11,0,.37.37,0,0,1,.22.16c.12.2.14.38.32.37a2,2,0,0,0,.95.59,3.13,3.13,0,0,0-.82-.68,3.4,3.4,0,0,0-.47-.55.28.28,0,0,0,.08-.11c-.07-.3-.33-.39-.46-.27-.14-.16-.3-.35-.44-.38h-.05a2.53,2.53,0,0,1-.16-.63c.29-.16,1.07.56,1.12,0a.2.2,0,0,0,0-.07h0a.44.44,0,0,1,.34.35.23.23,0,0,0,.07.1l-.44,0a.07.07,0,0,0-.07,0l-.24,0a4.67,4.67,0,0,0,.61.91,1.81,1.81,0,0,0,.11-.41.41.41,0,0,0,.4-.16l0-.06a.37.37,0,0,1,.16.17.15.15,0,0,0,.06.19c.05.14.12.13.35.22h0l.12.07s0,0,0,0a.9.9,0,0,1,.42.19c.12.13,0,.29.14.41a.24.24,0,0,0,.2.07.25.25,0,0,0,.29.22.46.46,0,0,0,.09.24c.1.1.7-.27.63.09,0,0-.22.1-.25.16s-.2,0-.26.17.19.26,0,.4a.14.14,0,0,0,0,.22c.12.1.25-.12.32-.18s.67-.64,1.05-.6.39-.52.36-.49,0-.31.08-.46,0-.46.34-.5.52.31.82.38h0a1.06,1.06,0,0,0,.26.17,1.46,1.46,0,0,0,0,.46,2.9,2.9,0,0,1,.63.18.17.17,0,0,0,.26-.1,1.78,1.78,0,0,0,1,.65,4,4,0,0,0-1-.8.15.15,0,0,0-.11-.08.71.71,0,0,1-.28-.09.34.34,0,0,1-.13-.16h0l-.1-.08h0a2.18,2.18,0,0,1-.3-.31,2,2,0,0,1,.12-.21l0,0c.29.29.51.64.82.91s.44.14.76-.09a1.32,1.32,0,0,0,.7.78l.07,0a1,1,0,0,0,.42,0c.66,0,.31.19.63.68s.78.21,1.14.36c.73.3-.39.38-.46.43.32.46.93.53,1.28,1a5.39,5.39,0,0,0,1.31.86c.75.5,1.75,1.63,2.69,1.59,0-.44-.49-.54-.8-.73-.57-.34-1.09-.76-1.62-1.15-.29-.22-1.29-.65-1.37-1,0-.07,0-.34,0-.49l.07,0a.76.76,0,0,0-.11-.14h0a2.52,2.52,0,0,0,.59.39l-.24,0a.54.54,0,0,0,.53.13l0,0c.35.15.13-.1.11-.13a3.78,3.78,0,0,0-.34-.39c.28,0,.57,0,.85,0-.25-.45-.73-.59-1.16-.81a1.31,1.31,0,0,1,.07-.27,1.26,1.26,0,0,0,.28.05.63.63,0,0,0-.2-.25.48.48,0,0,0,0-.4l.06,0c.24.07.38-.45.59-.21a.78.78,0,0,0,.64.38c.27,0,.05.05.26.14s.26,0,.35.14a1.37,1.37,0,0,0,.67.43l0,.05c.06.21.11.12.19,0l.07,0c.07,0,.18.16.28.11a.79.79,0,0,1,.15-.12c.15.15.07.49.23.75s.89.2,1,.52.58-.16.84,0,.11.31.08.52a.71.71,0,0,0-.4-.08c.08.07.26.3.39.33a.47.47,0,0,0,.12.27,2.45,2.45,0,0,0,1.27.73c.58.14,1,.66,1.59.74-.13-.37-.66-.56-.37-1,.07-.12-.92-.82-1-.91a.76.76,0,0,0-.41-.15,2.78,2.78,0,0,0-.43-.41,9,9,0,0,0-1-.6c-.36-.19-.88-.4-1-.79.14.13.37,0,.48-.1a.64.64,0,0,0-.5-.4c-.07-.39-.9-.4-1.2-.56a.68.68,0,0,1-.34-.62.22.22,0,0,0,.1-.09.23.23,0,0,0-.12-.08.46.46,0,0,0-.21-.31A.75.75,0,0,0,371,182a1.68,1.68,0,0,1-.67-.36,2,2,0,0,0-.54-.33l-.12-.06c0-.26.13-.55.09-.78l.13-.06a.37.37,0,0,1,.14.07,1.43,1.43,0,0,1,.62.91.7.7,0,0,1,.85-.15c-.35-.4-.92-.53-1.33-.85a.38.38,0,0,1-.09-.12.05.05,0,0,0,0,0s0-.05-.1-.12-.1-.18-.21-.18h-.1c-.14,0-.3,0-.33-.14-.07-.35-.47-.28-.74-.48a3.67,3.67,0,0,1-.61-.53c-.13-.15-.34-.09-.51,0a1.22,1.22,0,0,0-.53-.15c.1-.17.31-.33.37-.3.22.14.51.11.71.3s.45.25.71.33.5.4.62.34c.34-.15-.41-.45-.49-.5-.36-.19-.72-.4-1.07-.61a2.43,2.43,0,0,0,.66-.39c0,.24.56.1.17-.1,0,0,0,0-.06,0l.28-.22h0c.23.21.28.58.57.72s.27.17.45.61.95.67,1.33,1.11c.09-.39-.22-.37-.37-.64.07,0,.52.26.55.08s-.54-.37-.61-.51-.05-.39-.11-.57h0c.45-.2.37-.41.56-.71.06-.1.28.06.36.08s.18-.52.33-.65.45-.38.47-.56a8.5,8.5,0,0,0-1.22-1,1,1,0,0,0-1-.15c-.32.07-.49-.31-.72-.46.24,0,1.19-.68,1.41-.54s-.05.42.14.54c.37.24.6.2.71.72.34-.32.68-.38.33-.78s-.81-.42-1.06-.74-.49-.88-.94-1.15-.33.25-.15.45c.51.57-.05.92-.69,1-.94.15-.14-.51-.78-.81-.15-.07-.29-.39-.4-.41s-.6.29-.69,0c-.05-.15.42-.13.21-.33a15.25,15.25,0,0,0-1.26-1c-.28-.24-.27.16-.52.15s-.59-.33-.38-.56,0-.35-.18-.51.48-.44,0-.73c.08.44-2.13.33-1.43-.14.34-.23-.22-.54-.45-.47-.53.16-.28-.52-.46-.8a1.38,1.38,0,0,1,1,.38c.25-.16-.18-.51.17-.59a1,1,0,0,1,1.08.43s.22,1.06.46.54,0-.36-.12-.79c0-.07.93.45.68-.21-.2-.51-1-.09-1.33-.58s-.15-.63-.79-.64c-.45,0-1.05-1.11-1.48-1.34a1,1,0,0,0,.17.51c-.2-.11-.39-.23-.58-.35s-.22-.38-.36-.44c-.38-.16-.45.07-.68-.37s-.69-.4-.66-.81.38-.61.09-1.18c0,.89-.8.67-1.18.23.07-.12.3-.07.41-.13.26-.15-.15-.5.14-.67.66-.39,1,.71,1.47.79.08-.22.63-.42.56-.67s-.52-.48-.81-.55-.57-.5-.77-.74c-.43-.51-.9-1-1.37-1.45-.76-.76-1.43-1.56-2.14-2.36a8.74,8.74,0,0,0-1.19-1.09c-.29-.25-.82-.92-1.23-.95.33.81,1.26,1.16,1.54,2-.5-.25-.74-.7-1.19-.93s-.72-.88-1.29-1.15c-.3-.15-.52-.15-.71-.46s-.29-.53-.61-.43c-.72.23.71.73.71.73,1,1.21,2.23,2.17,3.26,3.35a1.48,1.48,0,0,0,.8.32c0,.26-.36,1-.75.64a13.38,13.38,0,0,1-1.71-1.57c-.44-.56-.51-.94-1.13-1.31a5.47,5.47,0,0,1-1.37-1,1.5,1.5,0,0,0-.82-.73c-.43-.17.06-.87-.5-.6-.39.19-.69-.83-1-1.08s-1-.6-1-1.17c-.4,0-.61.38-.93-.09a.45.45,0,0,1,0-.52c.06-.09-.29-.43-.34-.51-.29-.41-.39,0-.71,0-.64-.14-.14-.78-.41-1s-.85.23-.81-.35-.59-.85-.88-1.32-.65.27-.82-.37-1-.59-1.27-1c.38-.18.44-.73,1-.51-.08-.62-.66-1.11-1-.51a1.29,1.29,0,0,1-.87.4c-.54,0-.46-.51-.57-.85a1,1,0,0,0-.55-.6c-.63-.19-.16-.85-.58-1-.21-.08-.42,0-.42,0a3.7,3.7,0,0,0-.9-1.17c-.28-.26-.89-1.22-1.24-1.31s-.59.46-.19.54a1.09,1.09,0,0,1,.61.29c.11.12.08.44-.15.38-.43-.1-2-1.6-1.71-2.11s-.61-.28-.7-.28c-.6,0-.06-.77-.31-1,0,0-.34.34-.45.32-.22-.24.16-.27.12-.48s-.37-.38-.46-.12c0,.1-.11.12-.21.08a5.74,5.74,0,0,0,.65-.74c.18.31.47.6.35.94a.89.89,0,0,1,.59.26,2.07,2.07,0,0,0-.92-1.23c.25-.32.49-.66.76-1a7.32,7.32,0,0,0-1.61,1.63,3.93,3.93,0,0,1-.45-.4l.31-.44h0l.07-.07a5.93,5.93,0,0,0,.53-.47.2.2,0,0,0,0,.07l.32-.39c.06,0,.11.13.14.17.25.33.59-.51.79-.64s.25-.25.4-.13.12.23.22.08.31-.37.48-.56l0,0a1.88,1.88,0,0,0,.53-.89c-.36.12-.21-.09-.1-.34s-.14-.07-.15-.24c0,0,0,0,0-.06a2.42,2.42,0,0,1,.31-.25l-.06,0c.21-.06.06.21.19.31a6.43,6.43,0,0,0,1.47-1.38c-.54-.18-.87,1-1.35.95-.05-.16.27-.61.42-.65,0,.15-.18.21-.27.32.16.08.81-.52.74-.64s-.13.12-.18.14.14-.19,0-.29a5.82,5.82,0,0,0-1.1,1l-.11.15a1.24,1.24,0,0,0-.31-.17c.42-.37,1.45-1,1.51-1.31a4.16,4.16,0,0,0-.13-.67c-.17-.3-.08-.4.1-.7a2.13,2.13,0,0,0,.18-.26c.15-.09.12-.28.1-.47h0c.27-.22.47-.51.74-.71s.62-.2.54-.46a.29.29,0,0,0-.07-.12c.13-.23.16-.47.26-.69a.55.55,0,0,1,.14-.09c.17.12-.16.54.25.21s0-.46.15-.69a6.69,6.69,0,0,1,.43-.53.46.46,0,0,1,.35,0c.16,0,.31-.15.48-.26,0,.19-.13.36-.21.55a1.27,1.27,0,0,0,.53-.78l-.06.05a2.58,2.58,0,0,1,.13-.49c.12,0,.22-.06.14-.18a.26.26,0,0,1,0-.08l.08-.09a4,4,0,0,0,.52-.57.2.2,0,0,0,.23.16c.2-.06.52-.64.68-.8a2.42,2.42,0,0,0,.48-.71s.12,0,.24,0-.06-.48.3-.6a.62.62,0,0,0,.29-.38.29.29,0,0,0,0-.09l.05-.07a2.33,2.33,0,0,0,.14-.33h.1a.76.76,0,0,1,.52.19c.24.34.56,0,.58-.33-.3.15-.35-.17-.58-.26a.75.75,0,0,1,.15-.16c.23,0,.36.24.54.49a7.44,7.44,0,0,0,.36-1.15h0c0,.06,0,.11,0,.09,0,.29.08.08.11.12.29-.21.47-.91.61-1.21l0-.06c.09,0,.19,0,.24,0s0-.23,0-.36a1,1,0,0,0,.09-.21l.1,0c.19-.06.26.2.41,0,0,0,.21-.26.18-.31a.26.26,0,0,1,0-.3c.17-.28.31,0,.54-.08-.07-.33.31-.54.52-.71s.31-.77.55-.67,0-.25.26-.36A.85.85,0,0,0,351,117a3.36,3.36,0,0,1,.76-.63c.35-.23.38-.46.61-.8a8.62,8.62,0,0,1,.94-1c.21-.22.45.19.46.35a.88.88,0,0,0-.46.21c-.55.72-1.23,1.32-1.77,2.06,0,0-.81.34-.38.44.19,0,.27-.14.34-.27s.22-.19.39-.28.39-.53.71-.72.38-.42.66-.58c-.14.5-.67.74-.83,1.22.24,0,.52-.44.69-.59a6,6,0,0,0,.65-.68c.38-.49.74-1,1.16-1.44.25-.29.51-.58.74-.89.11-.15.23-.4.42-.46s.41-.15.45-.34-.28-.25-.34-.37a.58.58,0,0,0,0-.23.55.55,0,0,1-.12.27.86.86,0,0,0-.22.24l-.17.18a.29.29,0,0,1-.35,0c-.17-.09.06-.3-.1-.38s-.2,0-.24-.06c.2-.27.64-.43.69.09.15-.34-.06-.37-.09-.68s.26-.3.35-.49.17-.13.39-.24.14-.23.19-.27a3.62,3.62,0,0,1,.32-.22.61.61,0,0,0-.08.3c.24-.15.55-.81.81-.83s.29-.09.44-.4.65-.08.75-.38a.31.31,0,0,0,0-.16.29.29,0,1,0-.26,0c-.07,0-.14,0-.15,0,.07-.25.21-.16,0-.46s-.24.3-.25.33a.59.59,0,0,1-.61.29c-.21,0,0-.26-.12-.34a.77.77,0,0,1-.57.25s0,0,0,0a3,3,0,0,0,.84-.94l.06-.07c.21,0,.41,0,.4.13.25-.18-.14-.31-.05-.42s.23-.16.09-.3a0,0,0,0,0,0,0c.09-.11.17-.22.26-.32s.12.19.26.06.5-.4.7-.62-.16-.09-.14-.18.29,0,.4,0,.14-.2.22-.25c.36-.2-.12-.55.42-.5.38,0,.71.22.44.57-.1.12-.15.43.1.25a2.29,2.29,0,0,0,.51-.69c.13-.2.43-.26.59-.47s0-.27-.22-.44c-.05.3-.18.29-.39.44s0,.24-.06.32-.7-.26-.84-.27c.13-.09.22-.32.4-.28a.57.57,0,0,0,.56-.13,5.92,5.92,0,0,0,.68-.6c0-.1-.22-.26-.29-.31s-.13-.38-.22-.36-.13.08-.18.07c.1-.1.19-.21.28-.32,0,.22.13,0,.29.08s.09.14.34.13.2.2.15.33c.19-.06.65-.32.54-.48s-.26,0-.27-.09.16-.16.15-.28c-.05-.34-.48.1-.66,0a1.21,1.21,0,0,1,.43-.89h0a3,3,0,0,1,.25-.25l0,.08a2.34,2.34,0,0,0,.63-.55l-.09.05c.13-.12.27-.23.39-.35a.77.77,0,0,1-.07.16,2.35,2.35,0,0,0,.68-.43l.07-.06c.06-.07.13-.12.2-.19l.08.11c.42.55,1-.85,1.34-1,.18-.12.42-.43.66-.22s.2.39.38.14a3.15,3.15,0,0,1,.24-.3s0,0,0,0c0,.29.28.28.34,0a.27.27,0,0,0-.25-.13,5.94,5.94,0,0,0,1.37-1.83.28.28,0,0,0,.23-.1c0-.08-.05-.1-.11-.08l-.08,0s0,0,0-.08c-.59.2-.35-.16-.16-.58s-.23-.11-.24-.4a.73.73,0,0,1,.41-.59c.41-.14.13.35.35.51A10.78,10.78,0,0,0,371.76,94c-.91-.32-1.48,1.64-2.27,1.56-.09-.26.46-1,.71-1.08-.08.26-.31.34-.46.54.27.13,1.37-.87,1.24-1.07s-.2.19-.3.24.24-.33.09-.5a9.87,9.87,0,0,0-1.86,1.67c-.24.33-.61.8-1,.36-.24-.27,2.72-2,2.85-2.58a5.69,5.69,0,0,0-.21-1.11c-.28-.51-.13-.69.19-1.18.09-.13.58-.71.32-.88a1,1,0,0,1-.4-.59c-.08-.33,0-1-.47-1.11-.09.49-.57.74-.76,1.18-.08.2-.3,0,0-.35.14-.2.75-.86.54-1.12s-.68.45-.89,0-.18-.49-.69-.79a.9.9,0,0,1-.33-.31,2.16,2.16,0,0,0-.12-.53,1,1,0,0,1,0-.16c0-.16-.1-.15-.3-.08h0a1.74,1.74,0,0,0-.25.11c.08-.16.12-.3,0-.39a.12.12,0,0,0-.07,0c.25-.25.48-.52.48-.7,0-.46-.67.37-.71.4s-.32.3-.46.45a.2.2,0,0,1-.08-.11,2.67,2.67,0,0,0-.23-.44.74.74,0,0,0,.27-.46l-.37.36-.33-.21a.84.84,0,0,1-.37-.4c.12-.19.24-.36.3-.45l-.35.24a1,1,0,0,1,0-.33c.09-.4-1,.26-1,.36-.29.38-.37.91-.88,1.07a2.64,2.64,0,0,1,.82-1.3c.21-.23,1-.86,1-1.17s-.64.34-.67.37a5.86,5.86,0,0,0-1,1.09c-.17.27-.43.15-.68,0s-.15-.44.1-.31c.48.27.4-.25.48-.5s.54-.44.58-.86c-.15.14-.63.71-1,.77,0-.11,0-.21,0-.26a.91.91,0,0,1-.24-.24,4.18,4.18,0,0,1,.53-.93c-.1.07-.41.27-.69.5-.06-.33-.05-.89-.43-.94-.08.46-.55.7-.72,1.11-.08.19-.29,0,0-.33.14-.18.67-.76.54-1A8.15,8.15,0,0,0,364,79.86c-.91-.32-1.48,1.65-2.27,1.57-.08-.26.46-1,.71-1.08-.08.25-.31.34-.45.54.26.13,1.36-.87,1.23-1.07s-.2.19-.29.24.23-.33.08-.5a11.57,11.57,0,0,0-1.78,1.56,1,1,0,0,0-.36-.28c.82-.62,2.05-1.46,2.13-1.83a5.23,5.23,0,0,0-.21-1.12c-.27-.51-.12-.68.19-1.17.09-.13.58-.72.32-.88a1,1,0,0,1-.39-.59c-.09-.33,0-1-.48-1.11-.08.48-.57.74-.75,1.17-.09.21-.31,0,0-.34.15-.2.75-.86.54-1.12s-.68.44-.89,0-.18-.49-.69-.79a.85.85,0,0,1-.42-1c.09-.42-1,.27-1.1.38-.31.4-.39,1-.93,1.13A2.74,2.74,0,0,1,359,72.2c.22-.24,1.05-.91,1-1.24s-.67.37-.7.4a5.77,5.77,0,0,0-1,1.14c-.19.28-.46.16-.72.06s-.16-.47.1-.33c.51.28.42-.26.5-.53s.58-.46.62-.9c-.2.17-.93,1.06-1.27.76s.34-1.22.5-1.46c-.24.16-1.49,1-1.23,1.29s.05.39-.2.41a1.28,1.28,0,0,1-.14-.34c-.09-.33,0-1-.48-1.11-.08.49-.57.74-.75,1.18-.09.2-.31,0,0-.35.15-.2.75-.86.54-1.12s-.68.45-.89,0-.17-.49-.69-.79a.85.85,0,0,1-.42-1c.09-.41-1,.28-1.1.39-.31.39-.39,1-.93,1.12a2.74,2.74,0,0,1,.87-1.37c.22-.23,1.05-.91,1-1.24s-.67.37-.7.4a6.13,6.13,0,0,0-1,1.15c-.19.28-.46.15-.72,0s-.16-.47.1-.33c.51.29.42-.26.5-.53s.58-.46.62-.9c-.2.18-.93,1.07-1.27.76s.34-1.21.5-1.45c-.24.15-1.49,1-1.23,1.29.47.55-.52.35-.62.42a6.49,6.49,0,0,0-1.22,1.57c-.5.71-1,1.45-1.46,2.17.13,0,.49-.34.6-.25.32.27,0,.57-.17.78a7.06,7.06,0,0,0-.57.78c-.41.31-.84.71-.68.9a.28.28,0,0,1,.07.09l-.18.3c-.2,0-.46,0-.51,0A6.71,6.71,0,0,0,344.51,76c-.5.71-1,1.45-1.46,2.17a3,3,0,0,1,.51-.26l-.87,1c-.21-.13-.35-.6-.65-.88a.36.36,0,0,0-.24-.1.88.88,0,0,0,0-.17c-.49.24-.91.41-.88,1a.28.28,0,0,0,0,.35c-.06.38-.39.42-.74.76-.11.1-.23.51-.31.52s0-.19-.17-.16a.22.22,0,0,0-.16.32c-.11,0-.24,0-.4.09s-.27.14-.58.11a.57.57,0,0,0-.47.19c-.12.12-.55.57-.47.75s.78-.32.39.15a10,10,0,0,1-.75,1c-.26.25-1,.29-1.14.56s.15.64-.16,1c-.09.1-.4.25-.39.41a.54.54,0,0,1-.17.48,2.25,2.25,0,0,1-.88.37.23.23,0,0,0-.33-.12.87.87,0,0,0-.2.3,1.65,1.65,0,0,0-1.2,1.6l.21-.12a.89.89,0,0,0-.31.36,7.47,7.47,0,0,1-.49.93c-.18.34-.19.78-.48,1.06.11.14.23-.09.33-.09s0,.29.16.3.16-.38.38-.17a.21.21,0,0,1-.06.33.34.34,0,0,0-.09.18l-.34.38a.83.83,0,0,0-.32.2.79.79,0,0,0-.17.29c-.52.49-1,1-1.5,1.49-.27-.09.11-.19.26-.32s-.1-.5-.29-.35-.37.86-.61,1.27-.73.47-.89.87a8.48,8.48,0,0,1-.45.85.33.33,0,0,0-.13.07c-.22.15-.78.62-.77.93s.22.39.44.55a.69.69,0,0,0,0,.13c.06.33,0,.5-.26.42a.23.23,0,0,0,0-.25c-.1-.23-.26-.13-.42.07l-.08.06a.39.39,0,0,0-.15.28l-.11.21a.21.21,0,0,0,0,.12.41.41,0,0,0-.2-.1c-.41,0-1,.8-1.38,1.39-.08,0-.12.07-.12.18a3.78,3.78,0,0,1-.24.32c.74-.24,1-1.24,1.79-1.32a4.42,4.42,0,0,1-.34.6,2.07,2.07,0,0,0-.72.72,1.78,1.78,0,0,1-.8.74,5.15,5.15,0,0,0,.47-.6c-.05,0-.09-.09.06-.27-.17.2-.74.67-.6.89-.28.07-.49.05-.46.42a.55.55,0,0,0,0,.25,3,3,0,0,0-.87,1.63h0a.41.41,0,0,0,0,.12s0,0,.06,0a1.5,1.5,0,0,0,.17.23l-.13.06c-.23.1-.08.4.06.52a.17.17,0,0,0,.12,0v0h0c-.54,0-1-.4-1,.15-.12,0-.18.13-.06.28a.61.61,0,0,1,.07.1.52.52,0,0,0-.18-.08,1.14,1.14,0,0,0-.7.48c-.27,0-.26.16-.17.2-.36.45-.69,1-.87,1.21.74-.24,1-1.24,1.78-1.32a8.8,8.8,0,0,1-2.14,2.54,1.29,1.29,0,0,0-.48.29,1.18,1.18,0,0,0-.36.83,2.48,2.48,0,0,0-.17.48h0c-.46-.22-.06,0-.22-.37s-.6.59-.66.71c-.18.35-.2.74-.56,1-.16.1-.58.12-.58.39s.31-.06.45,0,.18.52.18.68c0,.49-.46,1.38-1.08,1.19-.33-.11-.24-.89-.78-.45-.21.18,0,.55-.44.64a.55.55,0,0,0-.51.53c-.06.51-.6-.47-.85-.08-.07.12-.39.79,0,.68l.2-.06h.06a.24.24,0,0,1,.2.06c-.2.48-.74.8-.25,1.32.14.14-.25.57-.39.46-.3-.21-.3-.29-.69-.17a6,6,0,0,1-.9,1.16.62.62,0,0,0-.38-.18c-.45-.07-.25-.46-.48-.63-.58-.43-.44.37-.78.49-.63.22-1.12-.68-1.15-1.17,0-.18,0-.59.15-.71s.38.16.46,0-.44-.28-.6-.37c-.38-.22-.42-.62-.62-1-.07-.12-.57-1-.7-.7s.25.14-.21.39c-.13.07-.29.32-.46.16s-.15-.24.06-.34c.45-.22.06-.92-.19-1.13a1.6,1.6,0,0,0-1.35-.33c-.3,0,.05-.43-.16-.61s-.68.26-.68-.15c0-.25.18-.42,0-.65a7.66,7.66,0,0,0-.72-.79,5.22,5.22,0,0,1-.6-.8c.14-.22.5,0,.52-.2.06-.81-.41-.28-1-.28-.83,0,.23-.73.18-1-.33-1.82-2.57-2.52-3.46-4.37.83.06,1.11,1.07,1.88,1.29-.35-.4-1.28-1.89-1.85-1.87-.15,0-.5.43-.62.24s0-.82-.32-.63-.4,0-.34-.39c.1-.64-.09-.26-.48-.34-.81-.15-.1-1.08-.47-1.23-.21-.09-.48-.12-.64-.3s.14-.6-.07-.9-.52-.56-.82-.5c-.61.13-.5-.35-.67-.74s-.62-.22-.81-.56-.12-.87-.46-1.19a.87.87,0,0,0-.5-.24c-.22,0-.14-.4-.3-.51a.22.22,0,0,1-.07-.34c.22-.22.22.18.4.16s0-.32.14-.32.24.23.35.08c-.31-.27-.34-.72-.53-1.06a8.78,8.78,0,0,1-.54-.94c-.18-.4-.71-.47-.95-.86s-.39-1.06-.67-1.27-.48.2-.29.36.75.27,0,.41c.33.29-.17.82.18,1.21.18-.06.93-.9.95-.14,0,.27-.35.35-.32.64a1.27,1.27,0,0,0,.55.77c.1-.2-.24-.2-.14-.4.24.1.9.63.67.93s-.29,0-.51.06-.18.61-.56.43a1,1,0,0,1-.58-.9c-.09-.64-1.29-.21-.61-.75.43-.35.34-.74-.08-1.06-.58-.43-.37.32-.94.1.2.45.79.78.23,1.25-.32-.06-.19-.47-.26-.69s-.47-.43-.67-.71a3.73,3.73,0,0,0-.69-.62c.08-.25.43-.31.15-.61-.14-.15-1.85-1.78-1.61-1.91.09,0,.2.18.31.16s-.11-.67-.17-.73c-.36-.41-.85-.44-1-1.05-.1-.37-.55-.28-.65-.59s0-.43-.1-.66c.45.09.73-.59.33-.66-.16,0,0,.19-.17.17s-.22-.42-.33-.51c-.46-.41-.85-.37-.8-1s-.4-.81-.94-1c.13.86.32,1.23-.28,1.84-1.38-1.55-2.87-3.11-4.1-4.78a27.82,27.82,0,0,0-1.75-2.44c-.19-.21-.51-.51-.2-.79.11-.1.49.18.62.23-.53-.71-1-1.46-1.58-2.16a6.6,6.6,0,0,0-1.3-1.57c-.11-.06-1.12.18-.65-.41.25-.32-1.06-1.13-1.32-1.27.18.23.92,1.13.57,1.46s-1.12-.55-1.33-.72c.06.45.53.52.66.9s0,.83.54.52c.26-.15.37.24.12.34s-.54.25-.74,0A5.83,5.83,0,0,0,272,71.63s-.75-.86-.74-.38.88,1,1.12,1.23a2.83,2.83,0,0,1,.94,1.37c-.56-.15-.66-.73-1-1.12-.1-.11-1.26-.77-1.14-.35a.88.88,0,0,1-.39,1l-.07,0a2.31,2.31,0,0,1,0-.59c.18-1.33-.36,0-.79-.6s.79-.93,0-1.52c-.08,0,0-.6-.05-.7a4.24,4.24,0,0,0-.46-1c-.23-.39-.27-.68-.75-.63-1.07.13-.37-.6-.79-.66s-1.24,1.41-.69,1.89c.26.24,0,.5-.17.68s-.55-.49-.64-.62c-.49-.63-1.21,1.56-1.3,1.89-.2.73-.52-.18-.62-.27-.28-.25-.21.67-.24.74-.6-.14-.78-1.39-1.3-.23-.14.28-.46.43-.6.73a1.1,1.1,0,0,0,.13,1.08h0l-.31-.28a.8.8,0,0,0,.31.48,2.54,2.54,0,0,1-.35.53c-.14-.14-.29-.28-.46-.42s-.75-.86-.74-.38c0,.29.68.83,1,1.12l-.1.24c-.34-.21-1.07-.57-1-.23a.89.89,0,0,1-.4,1c-.35.22-.43.27-.52.46-.16-.21-.31-.43-.47-.63a6.67,6.67,0,0,0-1.31-1.57c-.11-.06-1.12.18-.65-.41.25-.32-1.06-1.13-1.32-1.27.18.23.92,1.13.58,1.46s-1.13-.55-1.34-.72c.06.45.53.52.67.9s0,.83.54.52c.26-.15.36.24.12.34s-.54.25-.75,0a6.08,6.08,0,0,0-1.07-1.14s-.76-.86-.75-.38.89,1,1.12,1.23a2.83,2.83,0,0,1,.94,1.37c-.55-.15-.66-.73-1-1.12-.09-.11-1.25-.77-1.14-.35a.88.88,0,0,1-.39,1c-.52.33-.45.29-.68.84s-.69-.26-.91,0,.44.92.6,1.12c.32.39.1.56,0,.35-.2-.44-.71-.68-.82-1.17-.45.08-.37.81-.44,1.15a1,1,0,0,1-.39.62c-.25.18.27.76.36.89.35.5.51.67.25,1.2a6.06,6.06,0,0,0-.18,1.16c.09.34,1.17,1,2,1.61a.76.76,0,0,1-.23.33,15.73,15.73,0,0,0-1.76-1.38c-.15.18.13.49.1.5s-.26-.32-.31-.23,1.05,1.19,1.31,1c-.16-.2-.4-.28-.49-.54a1.72,1.72,0,0,1,.75.88,1.24,1.24,0,0,0-.2.18c-.71-.22-1.33-1.82-2.17-1.49a9.11,9.11,0,0,0,2,1.81l-.07.18c-.2.46-.69-.26-.91,0s.44.92.6,1.12c.32.39.1.56,0,.35-.2-.44-.71-.68-.81-1.17-.46.08-.38.81-.45,1.15a1.61,1.61,0,0,1-.12.33,1.55,1.55,0,0,0-.24.27s0,0,0,0a.24.24,0,0,0-.06.11c-.22.3-.4.51-.73,0-.1.15-.15.36-.3.48s-.47,0-.48.23c0,.59,0,1.08-.62,1.4-.41.23-.26.76-.6,1.06a.4.4,0,0,0-.12.56c.14.25-.1.38-.22.56-.26.41.16.79.15,1.19s-.59.35-.27.85.57,1,.89,1.43c.18.27.71.84.68,1.16.3,0,.08-.32.26-.43l.06,0a2.18,2.18,0,0,0,0,.36c.1.35,1.25,1.09,2.11,1.69.15.23.19.56.4.75a3.59,3.59,0,0,0,.38.21c-.34.23-.68-.16-.9-.46a11,11,0,0,0-2-1.63c-.15.18.13.49.11.5s-.27-.32-.32-.23.12.31.37.53a.17.17,0,0,0,0,.14c-.37-.41-.75-.76-1.18-.59a7.91,7.91,0,0,0,1.34,1.31,4.56,4.56,0,0,0,1.81,2.36,6.18,6.18,0,0,0,1.26,1.52h0c-.22.29,1.07,1.38,1.32,1.5a4.14,4.14,0,0,0-.58-.9,1.49,1.49,0,0,1,.15-.2c.24-.22.5.09.69.2.36.19,1,1.61,1.42,1,.07-.1.2-.39.35-.32l.17.18a5.79,5.79,0,0,0,1.24,1.13,5.9,5.9,0,0,1,.81.77.55.55,0,0,0,.05.17,1,1,0,0,0,.41.37,8.86,8.86,0,0,0,.89,1c.37.32.3.4.48.77a.74.74,0,0,0,.41.11,1.22,1.22,0,0,1,.52.51c.65.93,1.49,1.7,2.15,2.62a2.5,2.5,0,0,0,1.26,1.08c.43.13.38.89.39,1s.46.19.58.2a1.31,1.31,0,0,1,.75.52c.6.67,1.25,1.3,1.86,2a17,17,0,0,0,1.86,1.94,2.5,2.5,0,0,1,1,1.58c.32.09.54.77.86.71s.59,0,.38.45c0,.06,1.12.93,1.26,1.14s.09.61.15.92a1.84,1.84,0,0,0,.47.81c.15.3.37,1,.66,1.22,0,0,.11.16.12-.13,0,.06-.06-.42,0-.31h0a.78.78,0,0,1,0,.14,6.57,6.57,0,0,0,.44,1.25c.24-.38.4-.72.88-.37-.27-.72-1.07-1.19-1.39-1.86a6.65,6.65,0,0,0,.49.53,4.56,4.56,0,0,1,1,.93,10.59,10.59,0,0,1,.54,1.13c.16.3.53.3.81.42a.36.36,0,0,1,.25.28c.05.48-.31.5.22.73.78.32,1.09,1.15,1.72,1.64a2.19,2.19,0,0,1,.38.95c.29,0,.51.38.76.32s.53.1.71.35a6.14,6.14,0,0,0,.51.51c.29.31.27.66.49,1s.48.11.78.26-.16.53.18.56c.64,0,0,.88.57.94.25,0,.61-.33.78.07s.59.61.82,1a4.06,4.06,0,0,0,1.07,1.08c.34.25-.17.41-.15.67a4.33,4.33,0,0,0,.2.77c.12.16.48.16.64.29a5.17,5.17,0,0,1,.93.94,17.4,17.4,0,0,0,1.75,2,.67.67,0,0,0-.12.29s-.2,0-.41.05,0,.66-.35.92l-.24-.18a12.06,12.06,0,0,0-1.1-1.16A2.05,2.05,0,0,0,288,140l.14-.09.12.14a1.47,1.47,0,0,0,0-.28.65.65,0,0,0,.11-.29l-.13.15c-.1-.32-.43-.48-.74-.75s-.46-.74-.89-.78c0,.41.47.52.68.82s.36.45.55.67a1.62,1.62,0,0,0-.53.35l-.25-.17.19.21c-.65.56-1.45,1.35-1.27,0-.26,0-1.07-.16-1.17.17s.15.65-.22,1-2.14,1.55-1.5,2c.36.28.44-.41.7-.56.42-.25.41.57.49.75.38.83,1.48-.37,1.82-.66a1.36,1.36,0,0,1,0,.17,1,1,0,0,0-.14.45l.1,0c-.25.52-1.22.59-1.08,1.4a2.61,2.61,0,0,1,.06.46.19.19,0,0,0-.1.1,1.74,1.74,0,0,1-.3.36l-.09.06a2.39,2.39,0,0,0-.34.21s0,0,0,0a.46.46,0,0,0-.07.07,2,2,0,0,1-.76.35c-.3.06-.58-.21-.59.21a5.24,5.24,0,0,0,.12.67c0,.2-.16.46-.37.7a.18.18,0,0,0-.17.08c-.23.12-.4.25-.41.52l.07-.08c-.05.07-.07.13-.05.16h0a2,2,0,0,1-.54.67.9.9,0,0,0-.34,0,.59.59,0,0,1,0,.23l-.17.08a1.32,1.32,0,0,0-.91.76c-.09.27,0,.57-.3.75a3.42,3.42,0,0,0-.49.44l-.1,0a.89.89,0,0,0,.12-.14s-.13.06-.23.15h0l-.11.11c0,.05-.06.13-.07.12s.08,0,.15-.08v.14l-.4.45a1.33,1.33,0,0,0-.47.5c-.16.16-.32.32-.5.47s-.33.28-.48.43l-.4.26c-.59.39-.65.76-1.05,1.32a3.79,3.79,0,0,1-.31.37,8.29,8.29,0,0,0-.84.73h0v0l-.59.58c-.31.1-.6-.47-.62-.69a1.44,1.44,0,0,0,.77-.34c.18-.22.37-.43.55-.64-.15.31-.28.67-.38.86a.11.11,0,0,0,0,.11c.12.27.59-.26.9-.65a.68.68,0,0,0,.12-.21c.24-.25.36-.5.11-.65a.25.25,0,0,0-.16,0c.56-.59,1.14-1.17,1.66-1.8.25-.2.44-.33.66-.53s.61-.35.47-.49c.16-.19.36-.44.59-.76a0,0,0,0,0,0-.05,9.55,9.55,0,0,0,.91-1s.19-.3.12-.25a1,1,0,0,1-1,.16.68.68,0,0,1,0,.74c-.37.15-.92,1-1.12,1.13a3.13,3.13,0,0,0-.67.73l-.28.13c-.53.29-.67.87-1.21,1.18s-.65.68-1.12.94a1.66,1.66,0,0,1,.27-.53.2.2,0,0,0,.08-.12,5.14,5.14,0,0,0,1.05-1.32.2.2,0,0,0,.2.07l.07,0c.24-.24.06-.71-.3-.51-.14.08-.1.31,0,.45-.39.08-.85.72-1.12.95a9,9,0,0,0-1.12,1.11c-.26.31-.51.63-.76.94a.29.29,0,0,0-.1,0c-.81,0-1.18,1.12-1.78,1.68a.29.29,0,0,0,.38.07c-.35.39-.7.77-1,1.18-.18.25-.39.66-.72.75s-.69.24-.77.57.48.42.57.63c.45-.09.72-1.09,1.34-.85l.06.13-.2.19-.38.35a.13.13,0,0,1,0-.06.54.54,0,0,0-.05.11,6.4,6.4,0,0,0-.67.71l-.71.87c-.23.08-.27.26-.41.5s-.57.68-.88,1l-.19.2c-.23.23-.48.45-.73.66a.25.25,0,0,0-.16.14l-.95.76c-.23,0-.45.08-.53.31a.49.49,0,0,0,0,.15l-.77.63s0-.05.05-.07-.31.17-.33.29h0c-.16.13-.31.27-.46.41-.36.32-.78,1-1.27,1.12-.22.07-.56-.14-.7.12a4.7,4.7,0,0,1-.29.7,9.62,9.62,0,0,1-1.6,1.45,29.16,29.16,0,0,0-3.17,2.57,6.56,6.56,0,0,1-1.31,1.27,8.85,8.85,0,0,0-1.73,1.09c-.7.68-2,1-2,2.16v0c.15.06,1.56,1.29,1.76.72.13-.39-.28-.66.09-1s.51-.19.74.09a.3.3,0,0,0,.12.11h0c.12,0,.17-.13.2-.32a9.06,9.06,0,0,1,1.18-1.07c.32-.21.87-.27.73-.75a1.78,1.78,0,0,1,1.44-.42.23.23,0,0,0,0,.11.23.23,0,0,0,.15.06c-.24.3-.78.34-.82.79.3.26.63-.15,1,0a.6.6,0,0,0-.09.13c-.32,0-1.09,0-.75.37l.13.1a2.83,2.83,0,0,0-.75,1c-.25,0-.83-.5-.71.15a2.39,2.39,0,0,1,0,.42,1.3,1.3,0,0,0-.43.34.5.5,0,0,0-.13.21.82.82,0,0,1-.38-.28l0,0c-.23-.28-.39-.65-.75-.79h0a6.36,6.36,0,0,0,.3,1.49,1.75,1.75,0,0,0-1.51.49,2.29,2.29,0,0,0-.56.53,6.08,6.08,0,0,1-1.67,1.08c-.72.33.28,1.25-.32,1.76a2.47,2.47,0,0,1-.95.58l-.15,0a.18.18,0,0,0,0-.11c0-.07-.16,0-.26.11a1.21,1.21,0,0,0-.66.1c-.49.31-.07,1-.58,1.37a.42.42,0,0,0-.38.17s0,0,0,0c-.54.17-1.39.29-1.25.85a1,1,0,0,1,0,.23c-.14,0-.22.15-.34.41a.83.83,0,0,0,.22,0,1.61,1.61,0,0,1-.54.49h0c.16-.34-.16-.22-.3-.13l0,0a1.82,1.82,0,0,0-.49.59l-.5.3c0-.14-.07-.24-.35,0a.11.11,0,0,0,0,.15l0,0c-.11.08-.21.15-.3.23a3.45,3.45,0,0,0-.54.54,1,1,0,0,0-.53.22c-.16.13-1.41,1.07-1.32,1.22.4.57-.28.84-.44,1.32.79-.12,1.29-.82,2-1a3.2,3.2,0,0,0,1.62-1c.38-.41-.15-1.07.2-1.36s.88.4,1.09-.08c.15.14.45.23.49-.11a.35.35,0,0,0,0-.21c.31-.08.69-.13.85-.43.29-.5-.11-1.21.8-1.09.18,0,.27.36.36,0a1.13,1.13,0,0,1,.51-.66c.53-.36,1.14-.63,1.68-1,.3-.18.59-.3.86-.43s.37,0,.41-.25a1.65,1.65,0,0,0,.45-.49,4.7,4.7,0,0,1,1.48-1.53l.51-.41h0c0,.18-.28.26-.26.46.07.58.81-.14,1.09,0v0a10.14,10.14,0,0,0-3.26,2.64c-.21.34-.24.52-.19.69l-.26.21-.11.1c-.22.22-.52.37-.64.73.41-.13.74-.58,1.19-.58,0,.07.05.15.07.23-.3.17-.62.31-.9.49s-.92,1-.71.86l.37-.24c.59,0,1.19,0,1.74,0-.2,0,0,.67,0,.78-.09.46-1.38,1.07-1.74,1.36-.68.54-1.33,1.11-2.06,1.58-.39.24-1.06.4-1,1a1.37,1.37,0,0,0,.53-.08.77.77,0,0,0-.07.17,4.11,4.11,0,0,1,.86-.44s.15-.08.1-.12ZM242.13,190c0,.05,0,.11-.09.14s-.12,0-.19.07A.3.3,0,0,1,242.13,190Zm12.56-13.74a2.21,2.21,0,0,0-.4.46,2.33,2.33,0,0,1-.22.32c0-.15,0-.31,0-.36C254.15,176.35,254.42,176.3,254.69,176.23Zm30-34.17c-.16-.26.36-1.29.64-.59C285.47,141.85,284.87,142.35,284.67,142.06ZM250.5,98.13c-.29.05-.57-.2-.85-.51a1.52,1.52,0,0,0,.48.27,1.62,1.62,0,0,1-.31-.41c.18.1.32.15.4.11-.16-.2-.4-.28-.49-.53C250,97.1,250.58,97.86,250.5,98.13Zm1,.79c0,.29-.37.12-.23.42s.48.78-.14.59a1.05,1.05,0,0,0,0,.19,7.54,7.54,0,0,0-1.38-1.91c.31.23.61.44.93.65.21-.18-.09-.66.33-.53A.73.73,0,0,1,251.52,98.92Zm2.61-16.17a1.58,1.58,0,0,0-.46-.16c-.2-.18-.13-.28.11-.59l.11.06.16.17A.69.69,0,0,1,254.13,82.75Zm2.43-5.83a.91.91,0,0,1-.41-.66C256.37,76.41,256.62,76.54,256.56,76.92Zm.69-2.32c-.15-.15-.34-.19-.3-.44C257.08,74.27,257.27,74.32,257.25,74.6Zm8.4-.84.42-.67C266.12,73.39,266.11,73.66,265.65,73.76Zm8.92,49.93a.86.86,0,0,0-.18-.34A1,1,0,0,1,274.57,123.69Zm-.9-48.85a.91.91,0,0,1-.41-.66C273.48,74.33,273.73,74.47,273.67,74.84Zm.69-2.32c-.15-.15-.34-.19-.3-.44C274.18,72.19,274.38,72.24,274.36,72.52Zm2.94,2.61s0,0,0,.07a.34.34,0,0,1-.32-.58C277.2,74.41,277.41,74.87,277.3,75.13Zm7.44,8.61h0c-.17.15-.45,0-.3-.25S285,83.56,284.74,83.74Zm83.81,9.76c.36.42.36.42-.27.88C368.18,94,368.18,93.7,368.55,93.5Zm-4.84-7.66a.84.84,0,0,1-.36.62C363.29,86.12,363.51,86,363.71,85.84Zm.5,15a1.27,1.27,0,0,0,.13-.19c.11-.17.21-.12.3,0A.87.87,0,0,1,364.21,100.88Zm-3.47-21.49c.36.43.36.43-.27.89C360.37,79.9,360.37,79.6,360.74,79.39Zm-2.51-5.5a.91.91,0,0,1-.38.65C357.78,74.18,358,74.05,358.23,73.89Zm-1.14-1.58c0-.28.16-.32.28-.44C357.41,72.11,357.23,72.16,357.09,72.31Zm-5.23-2.21a.91.91,0,0,1-.38.65C351.41,70.4,351.65,70.26,351.86,70.1Zm-1.13-1.57c0-.28.15-.33.27-.44C351,68.32,350.86,68.37,350.73,68.53ZM348,71.17c-.11-.24.07-.7.33-.5a.32.32,0,0,1-.26.58s0-.06-.07-.08a.18.18,0,0,0,.05.07C347.93,71.17,347.93,71.16,348,71.17Zm-4.11,6.37c-.12-.25.07-.7.33-.5,0,0,0,0,0,0s-.25.31-.37.46h0S343.83,77.53,343.84,77.54ZM341,79.84c-.21-.15.05-.35.21-.3v0c0,.12-.08.2-.21.27Zm1.89,45.79c.1-.14.2-.28.31-.41a.16.16,0,0,1,0,.21.62.62,0,0,1-.35.2Zm-4.06-44.46c0-.21.44-.35.53-.24a.38.38,0,0,1-.19.41l-.1,0C339,81.42,338.87,81.37,338.86,81.17Zm-5.27,5.6a1.33,1.33,0,0,1-.37.34A3.92,3.92,0,0,0,333.59,86.77ZM336,84.85c-.06-.34.56-.56.78-.69C336.59,84.45,336.44,84.84,336,84.85Zm-.3,1.86.16-.07c0,.06-.07.11-.09.11S335.73,86.74,335.72,86.71Zm1.16,46.36c.22.25.22.25-.15.53C336.66,133.37,336.66,133.19,336.88,133.07Zm-.25,1.12c0,.08.07.21.07.29a.27.27,0,0,1-.19-.1S336.53,134.28,336.63,134.19Zm-3.18-45.92c.11.19-.23.21-.13.4a1.22,1.22,0,0,0,.51-.77c0-.29-.33-.35-.33-.61,0-.75.75,0,.93.09.32-.38-.18-.88.13-1.18l-.3-.06a1.4,1.4,0,0,1,.64-.26c.08.2-.33.59-.06.72s.78-.52,1-.7h0c.1.36-.21.48-.44.68a.87.87,0,0,0-.16.23A.6.6,0,0,0,335,87c-.34.27-.44.59-.2.88a2.1,2.1,0,0,0-.42.36l-.08,0c0-.09,0-.2-.1-.21s-.16.24-.08.32a2.19,2.19,0,0,0-.67.54l-.29.37c-.11,0-.17.16-.36-.07S333.22,88.38,333.45,88.27ZM331.19,92s0,0,0,0a.14.14,0,0,1,0,.09l-.1,0C331,92.11,331.14,92,331.19,92Zm44.91,95a.2.2,0,0,1,.21.15.48.48,0,0,1-.15,0A.39.39,0,0,1,376.1,187Zm-7.17-7a.16.16,0,0,1,.1,0,.17.17,0,0,1,.14.13Zm-4.5-6.15q-.35-.28-.72-.54c.41,0,.57-.25.66.34A1,1,0,0,0,364.43,173.81Zm2.83,2.13a7.09,7.09,0,0,0-1.36-.79,4.64,4.64,0,0,1-1-.94l-.31-.3c.1,0,.24,0,.44,0,.47,0,.71.47.95.81s.34.13.68.35.36.64.87.86a5.67,5.67,0,0,1,.94.69,9.45,9.45,0,0,1,1.53,1.13,1.7,1.7,0,0,1,.15.21c-.41-.24-.83-.59-1.27-.39C368.84,176.7,367.8,176.46,367.26,175.94Zm-.58,2.28a.29.29,0,0,0,0-.09,1.29,1.29,0,0,1,.21.19Zm-.11,5h.08l.07.08,0,0,0,.07C366.69,183.37,366.51,183.36,366.57,183.19Zm-.61-5.45a1.2,1.2,0,0,1,.42.17l-.07.11A2.39,2.39,0,0,1,366,177.74Zm-.16.57c0,.07-.09,0-.13,0a.61.61,0,0,0-.07-.1S365.83,178.25,365.8,178.31Zm-2-2.6a2,2,0,0,1,.58-.05l0,0c-.1.28.31.12.45.08a2.3,2.3,0,0,1,.33.21,1.08,1.08,0,0,0,0,.18l.12-.08c.18.15.36.33.58.51a.41.41,0,0,0,.11.07c-.06.16.33.41.66.57,0,.17.07.36.17.32h0a.29.29,0,0,0,.08-.08c.17-.22.34-.31.56-.09s0,.45.08.69l-.58-.35-.14-.08v-.09h0l-.06,0a8,8,0,0,0-.76-.41,1.94,1.94,0,0,1-.85-.54c-.12-.19-.39-.12-.57-.21l0,0h0C364.44,176,363.91,176,363.77,175.71Zm-4.38,4.44v-.09S359.52,180.15,359.39,180.15Zm.37-10.23a2.66,2.66,0,0,1-.71-.47,2.07,2.07,0,0,1-.17-.24.64.64,0,0,1,.25.12A2.26,2.26,0,0,1,359.76,169.92Zm.46,11.7h0a2.86,2.86,0,0,0-.46-.46C360.1,181.2,360.43,181.26,360.22,181.62Zm-.36-1a.06.06,0,0,1,.08,0,.68.68,0,0,0,.18.13C360.14,180.87,359.83,180.8,359.86,180.63Zm-.69-7.95a.91.91,0,0,1,.07-.14.05.05,0,0,1,.05,0c0,.06.07.12.11.17a.46.46,0,0,0,.07.14Zm1.51,8.11c0,.11-.15,0-.16-.07S360.71,180.71,360.68,180.79Zm-.16-10.16a.38.38,0,0,1-.21,0,.88.88,0,0,1-.28-.13.22.22,0,0,0,.08-.15Zm.39,1.75a.22.22,0,0,1-.24.21h-.07A2.28,2.28,0,0,1,360.91,172.38Zm2.31,2.38c-.07,0-.25-.28,0-.27h0C363.41,174.58,363.27,174.79,363.22,174.76Zm-.7-.06c.26,0,.35.16.5.31s.39-.06.57.08C363.12,175.79,362.86,175.21,362.52,174.7Zm-.32-.67a.24.24,0,0,0,.09-.06.37.37,0,0,0,.06-.1c.07.06.14.13.13.18s0,0,0,0Zm.23,7.09a.46.46,0,0,1,.13.18.61.61,0,0,1-.05.12C362.48,181.32,362.45,181.22,362.43,181.12Zm-.68-9.56a.45.45,0,0,0-.23.11,2.5,2.5,0,0,1-.43-.43A.91.91,0,0,1,361,171c.15.07.32,0,.46.14A2.53,2.53,0,0,1,361.75,171.56Zm-1.14,1.95,0-.15a.41.41,0,0,1,.22,0c.37.33.95.41,1,1C361.17,174.39,361,173.8,360.61,173.51Zm.44,7.11c-.4.19-.14-.19-.06-.32a.2.2,0,0,0,0-.24h0a.35.35,0,0,0-.05-.08c.1,0,.24.1.3.11s.07,0,.1-.09l.13.22C361.43,180.4,361.19,180.56,361.05,180.62Zm-.17.84c0-.06.31,0,.34.16C361.31,181.93,360.86,181.74,360.88,181.46Zm-.26.92c-.06-.11,0-.58.16-.56S360.78,182.33,360.62,182.38Zm-.3.08a1.13,1.13,0,0,0,.28.34c.15.12-.06.27-.19.23C360.1,182.91,360,182.18,360.32,182.46Zm-1.09-1.36a.87.87,0,0,0,.27.05,6.67,6.67,0,0,1,.65.56C359.86,182,359.4,181.28,359.23,181.1Zm0,.57s.09,0,.1.06S359.22,181.76,359.23,181.67Zm-.16-1.19s.18,0,.11.08S359,180.58,359.07,180.48Zm-1.54-1.54c.06,0,.26.08.17.2S357.49,179,357.53,178.94Zm-3.06,1.31c.19-.13.23-.31,0-.46.13,0,.17-.47.3-.61l.11.1c.22.18-.11.18-.07.35s.29-.1.38-.11c.36,0,0-.12.1-.3s.21-.19.31-.05-.25.58-.07.58.27-.14.43-.13h0a.28.28,0,0,1-.25.16c-.44,0-.28.14-.58.26s-.45-.26-.5.22c0,.23-.1.28-.22.26S354.34,180.34,354.47,180.25Zm-.53-.1c.05-.09.08-.18.13-.29a.42.42,0,0,1,0,.37Zm-1.89-4.81h0l-.12-.1,0,0A.64.64,0,0,1,352.05,175.34Zm.34,1.69a2,2,0,0,0,.35-.15c.15.17.3.32.48.49l0,.07-.15,0C352.8,177.55,352.62,177.17,352.39,177Zm-1.06-1.32a1.13,1.13,0,0,1,.22-.11c.25-.07.16.46.22.57s.24.08.31.1a.85.85,0,0,1,.32.21,1.1,1.1,0,0,1-.26.06c-.93.15-.14-.51-.78-.82Zm-1.06-.41c0-.06,0-.09.09-.12a.87.87,0,0,1-.07.17Zm0-.56c.14-.08.4-.08.2,0a.13.13,0,0,0,0,.1Zm-.73-.55c.13-.13.66-.21.6.09,0,0-.05.16-.08.29Zm20.41,21.12c0-.09.17-.14.24.1C370,195.45,369.87,195.39,369.91,195.31Zm-2.78-1.67s0,0,0,0a.42.42,0,0,1,0,.1s0,0-.05,0S367.06,193.56,367.13,193.64Zm-1.7-3.6c.12,0,.4,0,.34.17S365.42,190.19,365.43,190Zm.21,4.54s0,0,0,0l0,0c.21.16-.06.28-.23.2S365.46,194.5,365.64,194.58Zm-.7-4.09c.13-.13.68-.18.42.16-.07.09-.06.25-.23.23S364.8,190.67,364.94,190.49Zm-2.12-1.83c-.05.1-.11,0-.17,0l-.08-.13C362.52,188.5,362.86,188.58,362.82,188.66Zm.21-.74a2.68,2.68,0,0,1,1.24.76A3.31,3.31,0,0,1,363,187.92Zm1.23,3.35s0,0,0,0a.06.06,0,0,0,0,0s0-.06,0-.05.34,0,.31.17S364.3,191.38,364.26,191.27Zm-2.21,1.3a8,8,0,0,1,1.49.82.91.91,0,0,0,.54.05c.31-.05.45.58.61.81s-.5-.27-1.21-.76a.39.39,0,0,0-.23-.2.13.13,0,0,0,0,.06C362.84,193.06,362.39,192.77,362.05,192.57Zm-.71-4.84c.16.1.43,0,.52.2S361.4,187.88,361.34,187.73Zm.16,4.15c.22.16,0,.32-.17.22,0,0-.06-.07,0,0C361.19,191.89,361.21,191.66,361.5,191.88Zm-.78.52a.43.43,0,0,1,.32.29C360.87,192.66,360.73,192.6,360.72,192.4Zm-.93-5.5c.44,0,.44,0,.73.41C360.15,187.22,359.89,187.24,359.79,186.9Zm-7,2.23a.23.23,0,0,1-.11,0s-.07-.1,0-.16S352.9,189,352.81,189.13Zm-.58-7.78,0,0,.37.21c.1.07,0-.1-.15-.3l.19-.05c.27-.14.29.17.37.34C353.36,182.24,352.38,181.73,352.23,181.35Zm2,1.42c-.24.31-.49-.16-.61-.29s-.54.14-.48-.22.47-.2.73-.06c0,0,.14.06.06,0C354.07,182.28,354.34,182.65,354.24,182.77Zm.24,8.18s.17.11,0,.11A.41.41,0,0,0,354.48,191Zm.33-.12c-.06,0-.34-.12-.2-.17A.33.33,0,0,1,354.81,190.83Zm.68-7.11a3.68,3.68,0,0,1-.88-.55C355.11,183.18,355.38,183.3,355.49,183.72Zm-.07,8.05c.11.25-.38.15-.33-.09S355.38,191.67,355.42,191.77Zm.74.12c-.05.14-.19,0-.21-.09S356.19,191.79,356.16,191.89Zm.38-7.57c-.07.12-.25,0-.2-.12s0,0,0,0,0,0,0,0h0C356.45,184.14,356.59,184.23,356.54,184.32Zm.55.45-.12,0C356.93,184.54,357.11,184.57,357.09,184.77Zm1.85,1.7a.92.92,0,0,1-.6-.42C358.79,186.06,358.79,186.06,358.94,186.47Zm-.1,5.22c.1-.08.45,0,.34.18S358.72,191.88,358.84,191.69Zm-.5.29a.26.26,0,0,1,.4.16l.07.13C358.68,192.18,358.52,192.08,358.34,192Zm-.28.27c.11.23.25.44.48.46,0,.09-.1.19-.19.21C357.76,193,357.82,192.58,358.06,192.25Zm-.69-.72.05,0,0-.05a.62.62,0,0,1,0-.1c.19.23.34.14.46.27a.22.22,0,0,1,.06.13l-.11,0a.91.91,0,0,1,.09.17.5.5,0,0,1-.25.31C357.08,192.49,357.25,191.85,357.37,191.53Zm-.23-.26a8.52,8.52,0,0,0-.87-.6h0a2.85,2.85,0,0,1-.34-.31,1.69,1.69,0,0,1,.49.27c.2.11.5.06.66.23A.31.31,0,0,1,357.14,191.27Zm-.5.4c-.52.25-.19-.25-.08-.42a.17.17,0,0,0,0-.14,1.57,1.57,0,0,0,.45.29A1.34,1.34,0,0,1,356.64,191.67Zm.2.78s.13,0,.16.11A.14.14,0,0,1,356.84,192.45Zm-.42.31c.05-.07.4.07.44.2C357,193.37,356.39,193.13,356.42,192.76Zm-.35,1.21c-.07-.15,0-.76.22-.73C356.7,193.28,356.29,193.9,356.07,194Zm-.39.1a1.57,1.57,0,0,0,.38.44c.19.16-.09.35-.26.29C355.4,194.65,355.22,193.7,355.68,194.07Zm-1.41-1.77c.36.15,1.72-.07,1.29.67S354.5,192.55,354.27,192.3Zm0,.74s.12,0,.13.08S354.25,193.16,354.27,193Zm-.21-1.56s.23,0,.15.11S354,191.62,354.06,191.48Zm-.79-2.94s0,0,0-.06a1.68,1.68,0,0,0,.19-.38,1.39,1.39,0,0,1,.53.66.17.17,0,0,1-.1,0c-.15-.08-.13-.14-.22-.21S353.38,188.63,353.27,188.54Zm-.91,4.75a.21.21,0,0,1,.08-.12l.1-.09c.06.1.17.1.41.2a1.91,1.91,0,0,1,.69.29.26.26,0,0,1-.27.23c-.42,0-.29.13-.55.25.09-.13,0-.31-.2-.42S352.47,193.38,352.36,193.29Zm-.3-3.81c.07,0,.33.11.22.26S352,189.59,352.06,189.48Zm-.62-9.12c.09,0,.11-.08.15-.12l.27.16a.47.47,0,0,1,0,.21c-.05.19-.17.31-.37.19S351.4,180.52,351.44,180.36Zm-1-.26c.28.12.19.15.41-.06a.05.05,0,0,1,0,0,.31.31,0,0,0,.14.09.61.61,0,0,1,.09.2c0,.39-.34.34-.56.24C350.55,180.51,350.24,180,350.47,180.1Zm-.83-1.1c-.18,0-.26-.13-.41-.32C349.45,178.79,349.59,178.84,349.64,179Zm.5,12,.18-.09a.57.57,0,0,1,0,.12Zm-.93-1.14c.08-.21.27-.25.4-.07s-.33.76-.09.76.35-.18.56-.17a.17.17,0,0,1,.11.06,2.12,2.12,0,0,1-.45.12c-.55.09-.5-.11-.5-.34.11,0,0-.1,0-.19a.19.19,0,0,0,0-.07A.12.12,0,0,1,349.21,189.85Zm-2.44-17.69a.32.32,0,0,1-.15.21v-.06a.31.31,0,0,1,.13-.12Zm.4-.2c-.06.13-.18.18-.32,0a.36.36,0,0,0,0-.09l.09-.16C347,171.82,347.08,171.9,347.17,172Zm.61-.06,0,0,0,0C348,171.74,347.86,172.23,347.78,171.9Zm.48.84a.27.27,0,0,0,.08.07v0a2.64,2.64,0,0,0,.57.44.22.22,0,0,1,0,.34,1,1,0,0,0-.26.52c-.23,0-.59-.33-.38-.56s.1-.15.09-.2a.12.12,0,0,0,0-.12h0c0-.06-.14-.11-.2-.18S348.17,172.86,348.26,172.74Zm-.65-.14h0c.08-.19.13-.37.4-.19,0,0,.06,0,.09.07l0,0h0A1.3,1.3,0,0,1,347.61,172.6ZM348,176c-.15,0-.11.13-.33.21a.22.22,0,0,1-.11,0,.08.08,0,0,1,0-.05.75.75,0,0,0-.35-.38,1.45,1.45,0,0,1,.09-.25l0,.15c.07.45.22.27.61.29Zm-.53,1.31.2.08a2.55,2.55,0,0,1,.4.31v.13C347.82,177.65,347.62,177.48,347.43,177.3Zm.56,12-.11-.05a.15.15,0,0,1,.09-.06.78.78,0,0,0,0,.09l.15.14a.22.22,0,0,1-.18,0A.21.21,0,0,0,348,189.31Zm-1.16-12.22a1.47,1.47,0,0,1,.71.55C347.18,177.55,347,177.44,346.83,177.09Zm-.35-.75,0,0a5.25,5.25,0,0,1,.49.33l-.21,0v.06Zm-.31-4.6a.4.4,0,0,1,.33-.18s0,.1,0,.16h-.18Zm0,4.81h0l.09,0a.09.09,0,0,1,0,.06C346.3,176.64,346.23,176.61,346.17,176.55Zm-1.2,8.16a.11.11,0,0,1-.16.1h0a.11.11,0,0,1,0-.09A.83.83,0,0,1,345,184.71Zm.85,2.09c.2.22.39.42.62.64s0,.47-.15.7c-.22,0-.58-.33-.37-.56s0-.35-.18-.51S345.75,186.9,345.82,186.8Zm-2.25-1.15a1.52,1.52,0,0,1,.66-.49,1.59,1.59,0,0,1,.21.15l0,0a.76.76,0,0,1,0,.16l-.16-.1a1.31,1.31,0,0,0,.17.31.88.88,0,0,0,0,.23c.06.11.31.1.4.13a1.4,1.4,0,0,1,.59.46l.05.07a2,2,0,0,1-1.34-.07l0-.06c0-.06,0-.13.13-.21.34-.23-.23-.53-.46-.46S343.62,185.74,343.57,185.65Zm-20.54-82c0,.07,0,.13,0,.17s0,.07-.05.1a.19.19,0,0,1-.16,0l.07,0a.25.25,0,0,0,.12-.24Zm3.88-6.12-.17-.11.14-.08Zm1.2-1.37H328c-.07-.07-.12-.14-.09-.22s0,0,0-.08h0C328.11,95.86,328,96.13,328.11,96.17Zm.37-.19a.5.5,0,0,1-.28.17C328.29,96.08,328.32,95.85,328.48,96Zm1.14-2.63a.87.87,0,0,0-.23.19C329.41,93.37,329.5,93.32,329.62,93.35Zm.81-.21,0,0c0-.08,0-.16,0-.24S330.5,93,330.43,93.14Zm-16.73,70c.09.1.23.34.38.53C313.93,163.52,313.79,163.28,313.7,163.18Zm-3.22,3.35s0,.05,0,0c.08.15,0,.42-.19.31A.2.2,0,0,1,310.48,166.53Zm-1.74,1.92c0-.14.08-.17.16-.27C308.92,168.35,308.81,168.38,308.74,168.45Zm-.45-.46a.56.56,0,0,1,.3.06c.15,0,.1.27-.06.19s-.16-.05-.2,0v-.06A.19.19,0,0,0,308.29,168Zm-5.94,6.12c.08-.12.16-.26.21-.32S302.43,174,302.35,174.11Zm-14.27-34.3v0h0Zm-.75,1c0-.14.14-.3.31-.47a9.66,9.66,0,0,0,.73.85C287.94,141.21,287.39,141.64,287.33,140.83Zm-5.73,49.86a.39.39,0,0,0-.21.11.1.1,0,0,1,0-.12S281.52,190.67,281.6,190.69Zm3.74-6.32a.56.56,0,0,1,0,.12.64.64,0,0,1-.1.13h0A.77.77,0,0,1,285.34,184.37Zm.36.21a1,1,0,0,0-.09.15s-.05.06-.07.06-.12.11-.18.17a.24.24,0,0,1,.05-.16A1.4,1.4,0,0,1,285.7,184.58Zm1.77-.91c.15.1-.07.3.09.38s.19,0,.24.06c-.14.18-.38.3-.54.22A.59.59,0,0,1,287.47,183.67Zm-3.4,2.94a.27.27,0,0,0,.16-.28,3.24,3.24,0,0,1,1-.71.6.6,0,0,0,.18-.07l.24-.09,0-.05a4.23,4.23,0,0,0,.48-.43,1.31,1.31,0,0,0,.42-.62.31.31,0,0,0,.13-.18.39.39,0,0,0-.18.06.21.21,0,0,0-.2,0,1,1,0,0,0-.21-.39l0,0a.63.63,0,0,1,.33-.09l0,.08c0,.15.29.25.34.37a.39.39,0,0,0,.21-.14l.22.19c0,.17.12.25.14.49s-.27.29-.36.48-.17.13-.39.24c-.07,0-.14.22-.19.27l-.33.21a.62.62,0,0,0,.09-.3c-.25.15-.56.8-.83.82s-.28.08-.44.39-.32.17-.51.2A.93.93,0,0,1,284.07,186.61Zm-.68-.48a3,3,0,0,1,.31-.43c.17-.16.41,0,.58-.26a5.48,5.48,0,0,1,.72-.57c-.25.27-.54.51-.76.8a3.8,3.8,0,0,0-.24.5,2.43,2.43,0,0,1-.28.14l0,0A.58.58,0,0,0,283.39,186.13Zm-4.85.63a.22.22,0,0,1,0,.21l-.16.13s0,0,0,0S278.46,186.74,278.54,186.76Zm-.83-.43c.05-.05.12-.09.13-.07s0,.12,0,.17l0,0A1.25,1.25,0,0,0,277.71,186.33Zm-4.79,7.06,0,.14a.4.4,0,0,1-.06-.16Zm-13,1.89c0-.27.19-.23.24-.14S260,195.3,259.91,195.28Zm2.18-1.38c-.12.3-.49.12-.74,0l.22-.14c.17-.12-.05-.38.12-.5h0a.2.2,0,0,0,.11,0l.14,0C261.44,193.55,262.29,193.41,262.09,193.9Zm.82-.87s0,0,0,0,.12,0,.1.1l0,0Zm1.21-1.69c-.23.56-.81.59-1.14,1a2.62,2.62,0,0,1-.52.53c-.11-.14-.11-.31.05-.54a.54.54,0,0,1,.4-.14C263.38,192.23,263.51,191.41,264.12,191.34Zm.19-2.37c0,.16-.24.39-.34.21S264.18,188.92,264.31,189Zm.35.35a2.61,2.61,0,0,0-.22.27C264.26,189.38,264.46,189.3,264.66,189.32Zm.24.4c0-.13-.14-.27-.2-.39a.33.33,0,0,1,.19.06A.21.21,0,0,1,264.9,189.72Zm1.53-.36c.48-.09-.36.34,0,0Zm-.72.73s0,0,0,0v0c0,.12-.27.31-.32.16S265.58,190,265.71,190.09Zm.92-3.67a3.71,3.71,0,0,1-1.24,1A2.69,2.69,0,0,1,266.63,186.42Zm.42.63,0,.06-.06.09,0,0S267,187.09,267.05,187.05Zm1.25-1a1.63,1.63,0,0,1-.25.27c-.11.05-.2.06-.17,0S268.14,186.09,268.3,186.05Zm1.23-2.66-.09.05-.12.08A1.07,1.07,0,0,1,269.53,183.39Zm.15,1.59c-.1.11-.18.31-.24.36l-.15.1-.05,0C269.43,185.12,269.48,185,269.68,185Zm1.88,5.16c-.06,0-.15,0-.24.09a.21.21,0,0,1-.1-.06c-.14-.19.23-.31.34-.23A.14.14,0,0,1,271.56,190.14Zm-5.3-10.42.15,0C266.34,179.92,266.12,179.93,266.26,179.72Zm.23-.65-.16,0a.23.23,0,0,0,0-.14l-.2.1a.31.31,0,0,1-.06-.13C266.32,179,266.53,178.9,266.49,179.07Zm4.36-7.88c0,.11-.34.21-.44.19S270.78,171,270.85,171.19Zm-.15-11h0a.16.16,0,0,1,0,.08.76.76,0,0,1-.31.33A3.47,3.47,0,0,1,270.7,160.18Zm2.58,9.43h0a.17.17,0,0,0-.19,0l.22-.22C273.34,169.43,273.3,169.52,273.28,169.61Zm1.05-.18a.5.5,0,0,0,0,.13,4,4,0,0,1-.92.27A1.35,1.35,0,0,1,274.33,169.43Zm-1.25,1.69a3,3,0,0,1,.54-.24h0c-.08.05-.11.12-.06.08A1.13,1.13,0,0,1,273.08,171.12Zm2.13,3.29a.17.17,0,0,1-.2-.11.5.5,0,0,0,0-.12.55.55,0,0,1,.21-.52c-.07,0-.19.07,0,0h0C275.6,173.54,275.54,174.34,275.21,174.41Zm1.12,11.92,0-.08h0a.53.53,0,0,0,.35-.53c.1-.12.19-.2.27-.2a.28.28,0,0,1,0,.2c-.13,0-.25.11-.27.23l-.05.05C276.56,186.11,276.63,186.17,276.33,186.33Zm.31,2.82h0s-.08.07-.17.09S276.61,189.13,276.64,189.15Zm-1.1-10.78-.23.22a.22.22,0,0,0,.05-.08,4.47,4.47,0,0,0,.35-.41l0,0a.61.61,0,0,1,.23-.1Zm.59,10.25s0,.08,0,.12C276,188.76,276.1,188.64,276.13,188.62Zm-.36-.09a.31.31,0,0,1,.19-.2C276.12,188.36,275.83,188.51,275.77,188.53Zm-.54,1.08c0-.05.08-.1.14-.14l.2.1C275.52,189.76,275.15,189.85,275.23,189.61Zm-.86-10.27a2.59,2.59,0,0,1,.59-.44.56.56,0,0,0,.15-.1c-.18.2-.35.4-.53.59A.31.31,0,0,1,274.37,179.34Zm.08,10.44h0l.05-.07a.14.14,0,0,1,.15,0c0,.07-.14.27-.21.12A0,0,0,0,1,274.45,189.78Zm-.82.87a.23.23,0,0,1,.12-.12h0s0,0,0,0A.16.16,0,0,1,273.63,190.65Zm-.3-1.8a.8.8,0,0,1,.41-.21l0,0a0,0,0,0,0,0,0,1.19,1.19,0,0,0,.26-.11,1.94,1.94,0,0,1,.49-.35c-.13.23-.8.72-.56,1l.1.12-.37.23C273.39,189.4,273.1,189.15,273.33,188.85Zm-.6-12.56a.09.09,0,0,0-.09-.08h0a.12.12,0,0,1,.2,0A.24.24,0,0,1,272.73,176.29Zm-.14,13.51c.12-.16.29-.08.46-.34.12.21.59,1.15-.16.94C272.69,190.34,272.44,190,272.59,189.8Zm-1.18-17.28.19-.15h0a.38.38,0,0,1-.08.27A.74.74,0,0,1,271.41,172.52Zm-.3,8.11c0,.05.06.08.1.07l.05,0-.2.25C271.05,180.81,271.05,180.67,271.11,180.63Zm-1.93-.53s.06,0,0,0C269.77,180.15,268.83,180.35,269.18,180.1Zm-2,1.4c-.32.27-.67.51-1,.8a.29.29,0,0,0,0-.09C266.28,182,266.91,181.67,267.21,181.5Zm1-5.88c-.21.15-.37.53-.68.47a2.18,2.18,0,0,0-.39-.05.76.76,0,0,0,.36-.43.32.32,0,0,0,.44-.07h0A1.34,1.34,0,0,0,268.16,175.62Zm.19,4.11c.14.15-.18.43-.35.42h0s0,0,0,0C267.86,179.92,268.14,179.51,268.35,179.73Zm.23.7a3.24,3.24,0,0,1-1.14,1.35c-.4.33-.95.59-1.4.91a4.87,4.87,0,0,1,.81-.72c.31-.2.81-.26.7-.7A9.21,9.21,0,0,0,268.58,180.43Zm.3-5.85c-.09.3.21.64-.49.56l-.08,0Zm.42,3.21c-.06-.27,0-.37-.26-.39h0a.71.71,0,0,1,.14-.1l.06.1C270.11,177.47,269.34,178,269.3,177.79Zm1.18,1.62a1.11,1.11,0,0,1-.81.46A.91.91,0,0,1,270.48,179.41Zm-.16-2.44c-.21-.11-.15-.29,0-.13A.59.59,0,0,1,270.32,177Zm-.4-3.29c.06.06.28.07.25.18s-.33.1-.54,0Zm-.21-1.71.13-.06c.08.05.16.14.24.07a.33.33,0,0,0,.14-.21,2.91,2.91,0,0,0,1-.53h0c.39,0,.34-.09.32-.28.26-.22.5-.45.76-.66l0,0a.6.6,0,0,0,.34-.32,4.17,4.17,0,0,0,.37-.36.11.11,0,0,0,0,.08.15.15,0,0,1,0,0,.23.23,0,0,0,.24,0,.13.13,0,0,0,.07.09.41.41,0,0,0-.24.17c-.17.33.09.64-.25.94l-.14.09a.18.18,0,0,0-.14-.05.5.5,0,0,0-.24.11c-.15,0-.25-.1-.24-.2a.25.25,0,0,0-.05.42,2.09,2.09,0,0,1-.25.18,4.3,4.3,0,0,0-.71.36.8.8,0,0,0-.23.29,2.68,2.68,0,0,0-.81.36A1.67,1.67,0,0,0,269.71,172Zm-3.23-5.19a.41.41,0,0,1,.11-.23.14.14,0,0,0,.09.14c.08.05.23,0,.33.06a.14.14,0,0,0,0,.1,1.07,1.07,0,0,1-.46.32A1.87,1.87,0,0,1,266.48,166.78Zm-.74.38.16.13A.24.24,0,0,1,265.74,167.16Zm-.69,1.59.17-.13c.68-.52.09-1-.07-1.68a.81.81,0,0,1,.56.19c-.37.28.24.51.08.68s-.39.26-.16.5l0,0a.72.72,0,0,0-.2.23c-.1.2-.17.26-.25.29A.42.42,0,0,1,265.05,168.75Zm-1.37,0a.81.81,0,0,1,.74-.37,2,2,0,0,1-.68.54A.7.7,0,0,0,263.68,168.72Zm-.26-.45.13-.1.06,0a1.72,1.72,0,0,1-.09.19A1.13,1.13,0,0,1,263.42,168.27Zm-.49.66h0l.05,0Zm-1.71,1.59a.47.47,0,0,1,.09-.12,2.87,2.87,0,0,1,.74.6c0,.07-.08.17-.14.28l0,.05-.27-.07A1.77,1.77,0,0,0,261.22,170.52Zm-.72,1.78.14-.12c.13.15.63-.15.67-.11a.61.61,0,0,1-.11.23h-.09A1,1,0,0,0,260.5,172.3Zm1.42,7a.5.5,0,0,0,0-.12l.07,0Zm-2.3-6.74a.94.94,0,0,1,.1-.26.48.48,0,0,1-.08.26Zm-.25-.15.2.16a1.81,1.81,0,0,1-.29,0C259.25,172.56,259.3,172.49,259.37,172.42Zm-1,1.13c-.06,0-.25-.22,0-.33,0,0,0,0,0,0l0,0h.05C258.65,173.18,258.43,173.48,258.34,173.55Zm.1.85h-.11a.56.56,0,0,1,.05-.29l-.32.12-.19-.22c.23-.19.53.1.75-.13a1.11,1.11,0,0,1,.41-.37.44.44,0,0,0,.09.16,4.34,4.34,0,0,1-.33.5C258.64,174.2,258.48,174.26,258.44,174.4Zm0,5.64a.25.25,0,0,1,0,.08.15.15,0,0,1-.07,0Zm-.51,1.71a.36.36,0,0,0,.15-.21c.1-.15.11-.4.3-.57a2.55,2.55,0,0,1,.69-.37c-.05.65-.56.6-.94,1C258.14,181.67,258,181.72,257.91,181.75Zm-.58-5.28a.53.53,0,0,0,0-.12.65.65,0,0,0,.21-.16C257.48,176.28,257.41,176.38,257.33,176.47Zm.33,5.26,0,0S257.62,181.74,257.66,181.73ZM254.5,181a.57.57,0,0,1-.15,0c.33-.22.63-.37.81-.27s.36.34.31.5c-.08-.05-.21.1-.4,0S254.92,181,254.5,181Zm-.43,3.88c.12-.32.23-.25.29-.24C254.43,184.88,254.21,184.9,254.07,184.9Z"/></g></g></svg>