<svg width="102" height="103" viewBox="0 0 102 103" fill="none" xmlns="http://www.w3.org/2000/svg">
<g clip-path="url(#clip0)">
<path d="M101.979 0.817383H0.0273438V102.817H101.979V0.817383Z" fill="#00538E"/>
<path d="M61.6764 76.0628C61.6764 83.2195 56.0493 86.2073 49.5587 85.9998C47.2545 85.9254 45.0107 85.3434 42.5661 84.547L43.1206 79.3952C45.1895 80.2457 47.8709 81.1675 50.1163 81.1331C53.0495 81.0876 55.9803 79.728 55.9803 76.3369C55.9803 73.725 53.8863 72.4398 51.8613 71.4161C47.3839 69.148 42.2344 67.5731 42.2344 61.2363C42.2344 55.245 47.0059 52.1201 52.9201 52.1201C55.0697 52.1201 57.6367 52.4937 60.213 53.4053L59.4405 58.4788C56.6352 57.38 55.4093 56.9899 53.1051 56.9899C50.5539 56.9899 47.9313 57.8851 47.9313 60.8244C47.9313 63.1215 50.292 64.3143 52.0472 65.1891C56.8038 67.559 61.6764 69.5052 61.6764 76.0628Z" fill="white"/>
<path d="M34.9715 84.4614C32.9073 85.1671 29.7467 85.9996 24.7038 85.9996C14.3554 85.9996 7.42871 79.3198 7.42871 68.9223C7.42871 58.8334 14.7812 52.1191 24.7501 52.1191C29.484 52.1191 31.5944 52.8209 34.5856 53.8515L34.1355 59.503C31.3827 57.7064 29.0393 56.9882 24.9799 56.9882C17.8509 56.9882 13.0919 62.14 13.1257 69.0586C13.1594 76.5035 18.3395 81.1321 24.7501 81.1321C26.6614 81.1321 28.2856 80.9927 29.4526 80.6865V72.2046H23.2874V67.4249H34.9715V84.4614Z" fill="white"/>
<path d="M80.0514 51.4004L87.9113 68.8896H82.4348L80.0514 63.0776L77.6633 68.8896H72.1875L80.0514 51.4004Z" fill="white"/>
<path d="M88.0023 69.0947L95.3188 85.4241H89.5693L84.1006 72.7444L88.0023 69.0947Z" fill="white"/>
<path d="M72.0985 69.0977L75.9987 72.7457L73.1173 79.3237L80.0408 75.6983L84.0265 78.7637L70.3943 85.4254H64.7812L72.0985 69.0977Z" fill="white"/>
</g>
<defs>
<clipPath id="clip0">
<rect width="102" height="102" fill="white" transform="translate(0 0.817383)"/>
</clipPath>
</defs>
</svg>
