<svg width="20" height="20" viewBox="0 0 20 20" fill="none" xmlns="http://www.w3.org/2000/svg">
<path d="M20 10C20 15.5229 15.5229 20 10 20C4.47714 20 0 15.5229 0 10C0 4.47714 4.47714 0 10 0C15.5229 0 20 4.47714 20 10ZM8.84331 15.2949L16.2627 7.87556C16.5146 7.62363 16.5146 7.21512 16.2627 6.96319L15.3503 6.05081C15.0983 5.79883 14.6898 5.79883 14.4379 6.05081L8.3871 12.1015L5.56214 9.27657C5.3102 9.02464 4.90169 9.02464 4.64972 9.27657L3.73734 10.189C3.4854 10.4409 3.4854 10.8494 3.73734 11.1013L7.93089 15.2949C8.18286 15.5469 8.59133 15.5469 8.84331 15.2949V15.2949Z" fill="#78E3FB"/>
<path d="M20 10C20 15.5229 15.5229 20 10 20C4.47714 20 0 15.5229 0 10C0 4.47714 4.47714 0 10 0C15.5229 0 20 4.47714 20 10ZM8.84331 15.2949L16.2627 7.87556C16.5146 7.62363 16.5146 7.21512 16.2627 6.96319L15.3503 6.05081C15.0983 5.79883 14.6898 5.79883 14.4379 6.05081L8.3871 12.1015L5.56214 9.27657C5.3102 9.02464 4.90169 9.02464 4.64972 9.27657L3.73734 10.189C3.4854 10.4409 3.4854 10.8494 3.73734 11.1013L7.93089 15.2949C8.18286 15.5469 8.59133 15.5469 8.84331 15.2949V15.2949Z" fill="url(#paint0_linear)"/>
<defs>
<linearGradient id="paint0_linear" x1="10" y1="0" x2="10" y2="20" gradientUnits="userSpaceOnUse">
<stop stop-color="#45D9D9" stop-opacity="0.25"/>
<stop offset="1" stop-color="white" stop-opacity="0"/>
</linearGradient>
</defs>
</svg>
