<svg width="60" height="45" viewBox="0 0 60 45" fill="none" xmlns="http://www.w3.org/2000/svg">
<path d="M58.8633 14.8594C59.3203 14.4961 60 14.8359 60 15.4102V39.375C60 42.4805 57.4805 45 54.375 45H5.625C2.51953 45 0 42.4805 0 39.375V15.4219C0 14.8359 0.667969 14.5078 1.13672 14.8711C3.76172 16.9102 7.24219 19.5 19.1953 28.1836C21.668 29.9883 25.8398 33.7852 30 33.7617C34.1836 33.7969 38.4375 29.918 40.8164 28.1836C52.7695 19.5 56.2383 16.8984 58.8633 14.8594ZM30 30C32.7188 30.0469 36.6328 26.5781 38.6016 25.1484C54.1523 13.8633 55.3359 12.8789 58.9219 10.0664C59.6016 9.53906 60 8.71875 60 7.85156V5.625C60 2.51953 57.4805 0 54.375 0H5.625C2.51953 0 0 2.51953 0 5.625V7.85156C0 8.71875 0.398437 9.52734 1.07812 10.0664C4.66406 12.8672 5.84766 13.8633 21.3984 25.1484C23.3672 26.5781 27.2812 30.0469 30 30Z" fill="#C2C2F5"/>
</svg>
