<svg width="26" height="18" viewBox="0 0 26 18" fill="none" xmlns="http://www.w3.org/2000/svg">
<g clip-path="url(#clip0)">
<path d="M20.7986 8.14975L12.9957 10.6944L5.03383 8.00903V11.9022C5.03383 11.9022 5.89703 14.8924 12.9162 14.8924C19.9354 14.8924 20.6055 12.6644 20.6055 12.6644C20.6055 12.6644 19.1744 11.1165 21.0371 9.53346L20.7986 8.14975Z" fill="#3A337B"/>
<path d="M0.638533 4.33876C1.43359 3.96352 13.03 0 13.03 0L25.2397 4.23322C25.2397 4.23322 25.978 4.67883 25.2397 5.01889C24.5015 5.35896 22.4457 6.05081 22.4457 6.05081C22.4457 6.05081 23.5815 7.08274 23.4793 9.59218C23.4793 9.59218 23.4793 9.60391 23.4793 9.62736C23.9904 9.80326 24.3538 10.2958 24.3538 10.8821C24.3538 11.4567 24.0017 11.9375 23.5133 12.1251C23.7178 13.6378 24.3425 15.5375 26.0234 16.9564C26.0234 16.9564 23.2635 19.8176 22.2867 16.03C21.8892 14.4938 22.0822 13.1687 22.264 11.914C21.9687 11.6678 21.7869 11.3042 21.7869 10.8821C21.7869 10.3779 22.0709 9.93225 22.4798 9.70945C22.4571 8.67752 22.1845 7.6456 21.2758 6.5316C20.7534 5.94528 19.4245 5.49967 19.4245 5.49967L13.4957 3.1544V3.16612C13.4048 3.10749 13.3026 3.07231 13.189 3.07231C12.8596 3.07231 12.587 3.35375 12.587 3.69381C12.587 4.02215 12.8256 4.28013 13.1322 4.31531L19.6403 6.95375L13.0414 9.35765L0.649891 5.01889C0.638535 5.01889 -0.156519 4.71401 0.638533 4.33876Z" fill="#3A337B"/>
</g>
<defs>
<clipPath id="clip0">
<rect width="25.7143" height="18" fill="white" transform="matrix(-1 0 0 1 26 0)"/>
</clipPath>
</defs>
</svg>
