<svg width="495" height="540" viewBox="0 0 495 540" fill="none" xmlns="http://www.w3.org/2000/svg">
<path d="M33.2128 0C29.3282 4.33739 26.3814 11.9278 22.0057 14.5612C23.8364 21.3771 29.1497 10.9984 33.8825 17.0397C34.7309 10.2238 34.0611 6.66099 33.2128 0ZM166.894 34.0795C165.555 29.2774 172.52 32.6853 174.574 31.601C174.619 30.0519 174.664 28.6577 175.289 29.1225C175.021 39.5012 169.439 31.4461 166.894 34.0795ZM131.889 36.4031C127.87 37.0227 122.959 34.5442 120.012 38.8816C120.682 29.2774 132.38 34.0795 131.889 36.4031ZM248.068 43.6837C244.987 44.768 243.156 41.2052 241.772 36.4031C244.139 37.9521 246.862 38.107 248.068 43.6837ZM215.875 46.1622C219.447 43.219 224.448 45.0778 227.752 41.3601C225.921 48.6407 218.688 50.1898 215.875 46.1622ZM82.9081 48.6407C78.4431 47.0916 73.4423 47.4014 70.3168 41.3601C74.3799 44.1484 80.6756 39.3463 82.9081 48.6407ZM53.5285 43.6837C55.6716 45.2327 59.5562 40.5855 60.5385 46.1622C58.3953 44.6131 54.4661 49.2603 53.5285 43.6837ZM179.486 65.5255C177.342 63.9764 173.458 68.6236 172.476 63.047C175.958 64.5961 177.7 56.6958 179.486 65.5255ZM105.322 70.4825C96.6156 69.2433 91.6148 76.5239 84.3369 65.6804C91.7041 69.8629 100.143 62.7372 105.322 70.4825ZM203.284 80.2416C201.141 78.6926 197.256 83.3398 196.274 77.7631C199.444 76.5239 201.453 73.4257 203.284 80.2416ZM147.293 80.2416C148.677 78.0729 155.509 70.7923 159.17 77.7631C155.018 81.6358 151.981 87.8321 147.293 80.2416ZM173.904 82.5652C174.217 80.8613 176.36 84.579 176.003 85.0437C173.637 88.1419 172.788 82.7201 170.422 87.5223C167.609 87.5223 164.841 87.5223 162.028 87.5223C163.456 81.9456 167.832 86.5928 170.422 85.0437C169.752 73.4257 173.547 86.283 173.235 80.2416C172.788 80.0867 172.386 79.7769 172.52 77.7631C177.432 79.3122 184.397 73.8905 187.21 82.5652C184.888 81.326 178.905 89.2262 179.53 82.5652C180.513 81.326 183.102 85.3536 182.968 80.2416C178.682 82.5652 175.155 75.4395 173.904 82.5652ZM332.769 89.8459C330.402 83.4947 323.213 93.8734 322.99 80.2416C326.83 81.326 331.697 79.0024 332.769 89.8459ZM152.205 97.1265C149.749 97.5912 147.74 96.5068 146.623 92.3244C149.034 91.8596 151.088 92.944 152.205 97.1265ZM449.594 102.083C452.854 103.633 457.989 98.8304 460.087 104.562C456.783 102.858 451.693 107.66 449.594 102.083ZM475.491 118.968C472.946 118.968 469.955 120.208 469.196 114.166C471.785 114.011 474.018 115.096 475.491 118.968ZM416.041 254.976C406.798 253.582 423.943 243.668 427.515 254.976C426.801 254.976 426.087 254.976 416.041 254.976ZM473.416 318.023C470.737 314.615 468.325 324.375 467.12 318.023C467.656 314.306 475.202 314.306 473.416 318.023ZM459.44 340.02C461.271 336.612 467.432 335.528 469.218 340.02C467.075 342.344 461.405 345.132 459.44 340.02ZM398.538 441.949C402.958 441.949 407.691 440.864 410.415 446.906C406.53 444.892 401.797 445.976 398.538 441.949ZM422.336 451.708C420.014 451.553 415.639 445.976 416.041 444.427C417.693 445.976 421.131 441.329 421.622 446.906C420.372 447.99 421.934 449.384 422.336 451.708ZM67.5039 36.4031C64.8249 35.7834 60.1366 33.7696 56.2967 36.4031C57.8595 27.2636 68.6647 33.4598 67.5039 36.4031ZM89.2037 50.9643C87.8196 46.0073 85.2745 45.2327 83.6224 41.2052C85.721 32.0657 87.9088 50.4996 89.9181 41.2052C90.4092 34.5442 86.614 42.9091 87.1051 36.4031C93.5347 36.8678 99.875 37.4874 105.322 41.2052C103.402 43.3739 100.411 41.9797 99.0266 46.0073C100.902 46.0073 102.777 46.0073 104.608 46.0073C105.322 57.4704 99.3392 45.5426 99.0266 53.2879C100.188 53.5977 105.367 51.8937 103.224 55.7664C97.8211 55.6115 84.828 57.0056 85.0513 53.2879C86.2568 52.0486 89.1144 56.386 89.2037 50.9643ZM22.0057 50.9643C37.0527 45.0778 48.0812 58.5547 62.5924 48.4858C62.0566 47.8662 61.2082 48.4858 61.2082 46.0073C67.6824 60.1038 72.9065 59.1743 82.1937 67.8491C63.798 67.5393 40.0443 52.3585 29.0158 87.2124C30.891 88.6066 33.3914 80.0867 34.5969 87.2124C31.5161 91.8596 26.7386 90.7753 23.3898 94.4931C23.4345 78.2279 16.0673 87.5222 13.6115 79.9318C14.4152 67.3844 18.6123 64.4412 16.4245 53.133C12.8078 54.9919 11.605 57.7802 13.1677 65.2157C12.5426 61.6528 12.1408 57.4704 10.3548 57.9351C9.41716 61.4979 9.01257 71.412 10.8432 77.2984C9.19116 73.4257 11.2924 64.4412 10.3548 57.9351C14.1054 54.0624 12.1909 40.5855 15.7182 35.9383C16.9238 37.4874 15.6736 47.4014 17.1024 48.176C26.3002 46.9367 28.6139 32.9951 37.4099 38.4168C31.3822 39.811 25.4884 41.2052 22.0057 50.9643ZM30.3999 77.7631C29.3283 73.4258 26.0688 81.9456 24.1042 82.5652C26.2474 90.6204 28.7478 79.3122 30.3999 77.7631ZM225.654 82.5652C226.502 82.2554 227.306 81.7907 227.038 77.7631C215.875 78.073 211.455 77.4533 204.624 82.5652C214.357 65.3706 233.78 81.6358 243.112 63.2019C243.38 68.7785 245.925 66.455 246.594 70.4825C239.54 75.1297 234.584 72.1865 227.707 77.7631C242.978 84.4241 265.615 65.0608 282.314 75.2846C282.18 72.1865 281.243 70.3276 283.029 70.4825C290.128 70.4825 293.253 71.8767 299.817 70.4825C309.372 96.9716 329.732 98.2108 343.217 92.3244C340.404 91.5498 336.251 95.4225 336.207 85.0437C346.387 81.1711 356.567 96.3519 365.586 97.1265C364.113 98.5206 360.987 94.0283 360.675 99.605C378.847 99.2952 427.582 103.478 437.628 102.083C440.129 100.844 448.21 103.478 441.825 104.562C438.789 106.111 433.922 101.464 432.047 107.04C443.299 111.997 450.532 105.646 459.373 116.645C455.935 118.039 460.087 117.884 460.087 121.447C447.764 126.559 436.601 124.235 427.18 136.008C429.457 137.092 436.735 133.53 435.574 138.487C432.315 140.036 427.18 135.388 425.082 140.965C444.683 138.641 468.883 143.134 485.27 145.767C485.582 145.767 494.512 148.555 490.851 150.569C476.295 166.68 453.613 151.963 436.959 145.767C438.7 159.089 435.664 144.993 434.86 155.371C429.368 147.781 422.671 156.456 415.259 157.85C427.18 162.807 443.477 153.358 453.032 160.328C450.175 160.019 447.317 160.019 446.022 165.13C452.095 166.37 457.319 161.568 459.328 172.411C450.398 175.199 441.156 173.031 432.047 179.692C438.521 177.833 443.343 183.1 434.146 182.17C426.6 183.409 417.089 178.143 412.446 189.451C421.778 191.929 433.431 184.804 439.727 191.929C438.878 192.239 438.075 192.704 438.343 196.731C441.066 194.253 447.63 199.984 445.353 199.21C440.039 207.265 433.521 195.337 426.466 204.012C435.53 207.575 444.46 199.365 450.264 211.293C448.835 212.687 445.665 208.349 445.353 213.771C447.719 213.616 450.22 212.997 450.934 218.573C444.37 215.475 434.19 224.77 429.949 213.771C430.529 213.771 436.869 216.559 439.727 211.293C433.208 209.589 424.457 201.224 418.741 211.293C421.867 215.01 425.394 207.265 428.52 213.771C427.18 214.856 424.323 210.518 425.037 218.573C427.046 221.981 428.877 210.983 428.52 221.052C424.903 221.517 420.438 218.883 418.741 225.854C422.581 225.544 426.287 225.544 429.234 228.332C430.35 228.023 429.77 222.136 431.333 223.375C434.726 228.178 439.771 224.615 441.825 228.332C444.147 228.332 446.514 228.332 448.835 228.332C450.041 227.713 450.577 230.966 448.835 230.656C447.451 230.656 446.022 230.656 444.638 230.656C436.601 231.895 426.734 226.938 421.554 237.937C423.028 239.331 426.153 234.993 426.466 240.415C417.313 247.541 398.761 245.062 391.438 252.498C405.101 263.961 394.117 243.358 405.101 259.778C402.958 253.737 406.619 264.116 406.485 257.3C406.173 251.878 402.645 257.61 403.003 250.019C407.914 244.907 410.057 266.285 412.781 250.019C416.666 273.565 431.489 255.286 439.392 262.102C442.607 264.89 438.41 276.663 442.607 266.904C441.893 265.2 446.67 264.735 448.501 262.102C451.537 262.102 452.385 269.692 456.181 266.904C456.181 263.651 454.975 264.735 454.796 262.102C469.084 264.89 479.893 254.667 490.921 259.624C498.646 263.341 493.028 264.89 493.017 264.735C493.017 267.214 493.597 267.679 493.731 269.538C472.746 263.341 476.731 269.284 463.737 285.085C454.54 276.72 444.002 283.536 437.126 287.563C440.921 297.322 455.924 281.832 452.53 290.042C458.692 285.24 471.283 287.563 473.516 290.042C471.864 296.548 466.015 288.183 464.407 294.844C484.098 295.154 472.88 288.901 488.775 296.182C490.07 296.801 488.373 300.209 489.489 300.984C494.267 299.589 492.66 305.321 488.775 303.462C474.889 301.293 458.145 303.927 446.09 315.545C448.501 326.078 458.904 317.249 464.977 318.023C468.37 318.798 464.307 321.896 462.878 320.502C458.815 325.769 446.938 320.812 441.893 330.261C443.143 331.655 446.001 327.318 446.09 332.739C443.098 333.359 439.973 336.302 439.08 337.542C440.732 346.681 448.59 346.061 441.893 340.02C446.447 344.357 451.537 330.726 453.1 340.02C448.992 342.189 449.528 339.4 446.09 347.301C447.653 346.991 452.877 346.061 450.287 352.103C448.099 348.385 444.884 348.23 441.893 347.301C435.195 357.06 406.441 350.244 395.725 366.664C405.726 366.044 417.559 366.199 423.72 371.466C418.362 373.635 425.908 375.184 425.819 381.225C422.247 381.07 418.63 380.606 416.71 386.027C428.721 386.492 440.553 386.182 451.716 383.549C453.725 387.576 448.144 385.408 446.804 386.027C432.472 396.251 409.566 376.733 398.538 398.11C395.903 390.829 392.555 401.518 390.144 402.912C396.082 409.573 402.824 399.814 408.316 405.391C412.96 409.418 402.78 407.404 402.02 407.869C395.814 410.967 385.857 421.346 380.321 422.43C384.964 424.134 389.563 421.501 395.725 422.43C398.538 420.572 403.092 425.219 397.823 424.909C394.787 424.909 391.751 424.909 388.715 424.909C381.169 435.288 361.255 419.487 356.522 434.513C356.924 433.274 370.565 435.288 370.341 436.992C365.921 437.921 360.697 436.062 358.42 444.272C364.894 441.329 374.806 446.906 377.307 436.992C379.494 438.386 382.754 443.033 384.317 449.074C387.576 447.215 387.822 444.427 392.198 446.596C390.947 447.215 388.715 444.117 389.385 451.398C397.243 447.68 407.914 444.582 418.094 453.876C408.182 457.439 395.948 453.102 387.286 461.157C398.806 462.551 412.781 455.271 419.479 473.24C413.897 474.789 409.834 471.071 404.789 470.761C404.699 474.634 404.878 479.126 403.405 478.042C393.135 482.689 388.224 470.297 380.321 480.52C382.285 482.689 384.562 483.619 385.902 487.801C381.08 489.97 377.24 483.154 375.409 487.801C377.061 492.603 384.161 491.364 383.803 495.082C380.812 493.997 376.57 497.405 374.695 492.603C374.605 495.546 374.829 499.574 373.98 499.884C367.461 497.095 356.433 498.025 350.182 499.884C320.133 508.713 288.565 511.812 257.801 519.247C250.97 520.796 244.317 522.965 237.486 524.049C187.21 532.259 136.22 507.009 84.9173 516.769C84.828 523.43 86.0782 521.571 84.9173 526.528C69.4238 530.71 38.4034 530.865 24.9192 536.132C25.5443 535.357 28 529.626 26.3033 528.851C17.284 532.724 19.6952 496.786 10.8991 499.729C12.6405 471.691 9.91683 437.147 1.79056 429.401C2.23706 425.993 4.46955 429.091 4.6035 424.599C-4.86226 390.365 3.81091 366.664 0.194271 327.473C4.30206 317.404 0.953388 302.688 5.10582 295.872C3.54308 291.534 0.50682 292.309 0.194271 283.789C1.84631 283.014 3.23047 281.31 3.67697 276.508C2.56073 264.581 3.76629 251.878 2.29284 249.71C1.8017 240.725 5.2844 245.527 5.77555 239.95C2.24821 236.078 4.9718 210.518 0.194271 210.828C1.89096 200.759 0.551465 194.873 3.00721 188.986C-1.94893 155.836 6.61277 131.826 3.93378 111.223C1.07619 118.039 3.53189 113.237 1.1208 111.223C4.15699 103.323 17.8979 103.787 20.5323 94.1832C39.1066 96.3519 53.5731 76.6788 73.0404 74.8199C72.5939 71.412 70.3615 74.5101 70.2275 70.0178C73.5316 69.0884 75.0497 74.3552 78.6217 72.4963C79.2468 83.8045 76.2999 70.7923 76.5231 77.2984C87.9089 85.5085 102.375 78.5377 115.011 74.8199C113.984 74.3552 112.422 75.7493 112.198 72.3414C122.245 77.4533 132.201 73.2708 138.81 84.4241C131.621 83.4947 122.78 85.1987 119.208 89.2262C124.209 96.197 134.345 95.7323 140.194 91.7047C140.104 98.5206 142.158 97.901 143.007 101.464C147.025 96.3519 164.171 108.744 169.618 94.1832C177.298 106.111 191.139 91.8596 198.328 96.6617C195.694 96.5068 193.506 97.5912 192.032 101.464C203.105 100.07 212.169 96.9716 222.126 94.1832C229.627 92.0145 237.932 98.9853 244.54 84.4241C238.066 78.6926 231.592 89.2262 225.654 82.5652ZM255.748 80.2416C258.159 87.6772 264.678 87.6772 270.437 89.8459C265.66 80.8613 261.15 85.1987 255.748 80.2416ZM281.644 94.648C283.475 99.605 285.886 102.548 288.654 104.407C288.788 102.238 285.082 92.6342 281.644 94.648ZM263.472 102.083C262.311 92.3244 256.328 99.2952 252.979 97.2814C248.648 101.464 261.775 99.4501 263.472 102.083ZM279.546 104.407C278.564 98.8304 274.679 103.478 272.536 101.929C273.518 107.505 277.447 102.858 279.546 104.407ZM419.5 218.573C419.724 212.997 413.473 220.122 412.49 213.771C411.463 214.856 412.758 216.869 412.49 221.052C414.857 220.277 418.161 222.911 419.5 218.573ZM428.732 292.365C430.518 292.52 429.58 290.506 429.446 287.563C426.857 285.085 420.74 289.267 416.141 287.563C414.712 286.169 410.649 289.267 414.042 290.042C420.74 288.802 422.526 296.238 428.732 292.365ZM114.386 50.9643C113.404 44.6131 104.519 52.8232 106.706 43.6837C106.93 47.8662 116.083 41.6699 114.386 50.9643ZM274.679 58.2449C271.107 59.4842 259.096 57.0056 268.383 55.7664C270.348 52.5133 273.384 56.2311 275.393 48.4858C278.028 54.682 284.591 47.2465 285.172 60.5685C282.939 55.1468 271.241 68.004 274.679 58.2449ZM303.344 55.9213C303.969 53.9075 305.532 58.2449 305.443 58.3998C300.978 60.8783 294.057 57.0056 294.95 68.1589C293.164 61.1881 289.547 62.7372 287.94 60.8783C289.19 59.6391 287.628 58.2449 287.226 56.0762C292.003 57.7802 296.959 58.5547 299.817 56.0762C299.817 52.8232 298.611 53.9075 298.433 51.2741C304.327 48.9505 324.866 62.8921 311.024 56.0762C310.979 59.3292 311.337 61.343 311.738 63.3568C309.551 62.2725 306.38 46.3171 303.344 55.9213ZM316.65 89.8459C313.167 80.5515 301.648 74.3552 301.96 68.004C307.541 71.412 316.65 67.8491 316.65 89.8459ZM210.294 92.3244C208.419 92.3244 206.543 92.3244 204.713 92.3244C205.025 86.9026 208.151 91.3949 209.624 89.8459C210.874 87.8321 211.812 81.7907 212.437 89.8459C211.366 95.2676 210.651 86.7477 210.294 92.3244ZM467.767 220.897C465.445 217.644 463.123 214.236 461.471 208.814C463.391 212.067 469.999 211.448 469.151 216.095C468.124 216.559 466.561 215.165 466.338 218.573C467.365 218.418 469.062 219.038 467.767 220.897ZM476.161 233.135C473.036 236.078 465.624 236.388 465.668 225.854C468.347 231.585 473.661 222.756 476.161 233.135ZM439.392 257.3C435.642 254.512 429.525 256.835 428.9 250.019C432.114 253.582 437.07 250.949 439.392 257.3ZM436.312 376.423C437.83 369.143 439.928 375.029 442.607 376.423C447.027 374.564 450.287 379.986 443.991 378.902C440.955 377.353 436.088 382 434.213 376.423C435.954 379.676 436.401 366.819 437.026 373.945C436.579 374.1 436.178 374.254 436.312 376.423ZM17.9985 536.597C16.7483 533.189 13.3102 542.948 9.60429 539.075C9.55964 520.641 18.5789 529.471 17.9985 536.597Z" fill="#4E5164"/>
<path d="M33.2128 0C29.3282 4.33739 26.3814 11.9278 22.0057 14.5612C23.8364 21.3771 29.1497 10.9984 33.8825 17.0397C34.7309 10.2238 34.0611 6.66099 33.2128 0ZM166.894 34.0795C165.555 29.2774 172.52 32.6853 174.574 31.601C174.619 30.0519 174.664 28.6577 175.289 29.1225C175.021 39.5012 169.439 31.4461 166.894 34.0795ZM131.889 36.4031C127.87 37.0227 122.959 34.5442 120.012 38.8816C120.682 29.2774 132.38 34.0795 131.889 36.4031ZM248.068 43.6837C244.987 44.768 243.156 41.2052 241.772 36.4031C244.139 37.9521 246.862 38.107 248.068 43.6837ZM215.875 46.1622C219.447 43.219 224.448 45.0778 227.752 41.3601C225.921 48.6407 218.688 50.1898 215.875 46.1622ZM82.9081 48.6407C78.4431 47.0916 73.4423 47.4014 70.3168 41.3601C74.3799 44.1484 80.6756 39.3463 82.9081 48.6407ZM53.5285 43.6837C55.6716 45.2327 59.5562 40.5855 60.5385 46.1622C58.3953 44.6131 54.4661 49.2603 53.5285 43.6837ZM179.486 65.5255C177.342 63.9764 173.458 68.6236 172.476 63.047C175.958 64.5961 177.7 56.6958 179.486 65.5255ZM105.322 70.4825C96.6156 69.2433 91.6148 76.5239 84.3369 65.6804C91.7041 69.8629 100.143 62.7372 105.322 70.4825ZM203.284 80.2416C201.141 78.6926 197.256 83.3398 196.274 77.7631C199.444 76.5239 201.453 73.4257 203.284 80.2416ZM147.293 80.2416C148.677 78.0729 155.509 70.7923 159.17 77.7631C155.018 81.6358 151.981 87.8321 147.293 80.2416ZM173.904 82.5652C174.217 80.8613 176.36 84.579 176.003 85.0437C173.637 88.1419 172.788 82.7201 170.422 87.5223C167.609 87.5223 164.841 87.5223 162.028 87.5223C163.456 81.9456 167.832 86.5928 170.422 85.0437C169.752 73.4257 173.547 86.283 173.235 80.2416C172.788 80.0867 172.386 79.7769 172.52 77.7631C177.432 79.3122 184.397 73.8905 187.21 82.5652C184.888 81.326 178.905 89.2262 179.53 82.5652C180.513 81.326 183.102 85.3536 182.968 80.2416C178.682 82.5652 175.155 75.4395 173.904 82.5652ZM332.769 89.8459C330.402 83.4947 323.213 93.8734 322.99 80.2416C326.83 81.326 331.697 79.0024 332.769 89.8459ZM152.205 97.1265C149.749 97.5912 147.74 96.5068 146.623 92.3244C149.034 91.8596 151.088 92.944 152.205 97.1265ZM449.594 102.083C452.854 103.633 457.989 98.8304 460.087 104.562C456.783 102.858 451.693 107.66 449.594 102.083ZM475.491 118.968C472.946 118.968 469.955 120.208 469.196 114.166C471.785 114.011 474.018 115.096 475.491 118.968ZM416.041 254.976C406.798 253.582 423.943 243.668 427.515 254.976C426.801 254.976 426.087 254.976 416.041 254.976ZM473.416 318.023C470.737 314.615 468.325 324.375 467.12 318.023C467.656 314.306 475.202 314.306 473.416 318.023ZM459.44 340.02C461.271 336.612 467.432 335.528 469.218 340.02C467.075 342.344 461.405 345.132 459.44 340.02ZM398.538 441.949C402.958 441.949 407.691 440.864 410.415 446.906C406.53 444.892 401.797 445.976 398.538 441.949ZM422.336 451.708C420.014 451.553 415.639 445.976 416.041 444.427C417.693 445.976 421.131 441.329 421.622 446.906C420.372 447.99 421.934 449.384 422.336 451.708ZM67.5039 36.4031C64.8249 35.7834 60.1366 33.7696 56.2967 36.4031C57.8595 27.2636 68.6647 33.4598 67.5039 36.4031ZM89.2037 50.9643C87.8196 46.0073 85.2745 45.2327 83.6224 41.2052C85.721 32.0657 87.9088 50.4996 89.9181 41.2052C90.4092 34.5442 86.614 42.9091 87.1051 36.4031C93.5347 36.8678 99.875 37.4874 105.322 41.2052C103.402 43.3739 100.411 41.9797 99.0266 46.0073C100.902 46.0073 102.777 46.0073 104.608 46.0073C105.322 57.4704 99.3392 45.5426 99.0266 53.2879C100.188 53.5977 105.367 51.8937 103.224 55.7664C97.8211 55.6115 84.828 57.0056 85.0513 53.2879C86.2568 52.0486 89.1144 56.386 89.2037 50.9643ZM22.0057 50.9643C37.0527 45.0778 48.0812 58.5547 62.5924 48.4858C62.0566 47.8662 61.2082 48.4858 61.2082 46.0073C67.6824 60.1038 72.9065 59.1743 82.1937 67.8491C63.798 67.5393 40.0443 52.3585 29.0158 87.2124C30.891 88.6066 33.3914 80.0867 34.5969 87.2124C31.5161 91.8596 26.7386 90.7753 23.3898 94.4931C23.4345 78.2279 16.0673 87.5222 13.6115 79.9318C14.4152 67.3844 18.6123 64.4412 16.4245 53.133C12.8078 54.9919 11.605 57.7802 13.1677 65.2157C12.5426 61.6528 12.1408 57.4704 10.3548 57.9351C9.41716 61.4979 9.01257 71.412 10.8432 77.2984C9.19116 73.4257 11.2924 64.4412 10.3548 57.9351C14.1054 54.0624 12.1909 40.5855 15.7182 35.9383C16.9238 37.4874 15.6736 47.4014 17.1024 48.176C26.3002 46.9367 28.6139 32.9951 37.4099 38.4168C31.3822 39.811 25.4884 41.2052 22.0057 50.9643ZM30.3999 77.7631C29.3283 73.4258 26.0688 81.9456 24.1042 82.5652C26.2474 90.6204 28.7478 79.3122 30.3999 77.7631ZM225.654 82.5652C226.502 82.2554 227.306 81.7907 227.038 77.7631C215.875 78.073 211.455 77.4533 204.624 82.5652C214.357 65.3706 233.78 81.6358 243.112 63.2019C243.38 68.7785 245.925 66.455 246.594 70.4825C239.54 75.1297 234.584 72.1865 227.707 77.7631C242.978 84.4241 265.615 65.0608 282.314 75.2846C282.18 72.1865 281.243 70.3276 283.029 70.4825C290.128 70.4825 293.253 71.8767 299.817 70.4825C309.372 96.9716 329.732 98.2108 343.217 92.3244C340.404 91.5498 336.251 95.4225 336.207 85.0437C346.387 81.1711 356.567 96.3519 365.586 97.1265C364.113 98.5206 360.987 94.0283 360.675 99.605C378.847 99.2952 427.582 103.478 437.628 102.083C440.129 100.844 448.21 103.478 441.825 104.562C438.789 106.111 433.922 101.464 432.047 107.04C443.299 111.997 450.532 105.646 459.373 116.645C455.935 118.039 460.087 117.884 460.087 121.447C447.764 126.559 436.601 124.235 427.18 136.008C429.457 137.092 436.735 133.53 435.574 138.487C432.315 140.036 427.18 135.388 425.082 140.965C444.683 138.641 468.883 143.134 485.27 145.767C485.582 145.767 494.512 148.555 490.851 150.569C476.295 166.68 453.613 151.963 436.959 145.767C438.7 159.089 435.664 144.993 434.86 155.371C429.368 147.781 422.671 156.456 415.259 157.85C427.18 162.807 443.477 153.358 453.032 160.328C450.175 160.019 447.317 160.019 446.022 165.13C452.095 166.37 457.319 161.568 459.328 172.411C450.398 175.199 441.156 173.031 432.047 179.692C438.521 177.833 443.343 183.1 434.146 182.17C426.6 183.409 417.089 178.143 412.446 189.451C421.778 191.929 433.431 184.804 439.727 191.929C438.878 192.239 438.075 192.704 438.343 196.731C441.066 194.253 447.63 199.984 445.353 199.21C440.039 207.265 433.521 195.337 426.466 204.012C435.53 207.575 444.46 199.365 450.264 211.293C448.835 212.687 445.665 208.349 445.353 213.771C447.719 213.616 450.22 212.997 450.934 218.573C444.37 215.475 434.19 224.77 429.949 213.771C430.529 213.771 436.869 216.559 439.727 211.293C433.208 209.589 424.457 201.224 418.741 211.293C421.867 215.01 425.394 207.265 428.52 213.771C427.18 214.856 424.323 210.518 425.037 218.573C427.046 221.981 428.877 210.983 428.52 221.052C424.903 221.517 420.438 218.883 418.741 225.854C422.581 225.544 426.287 225.544 429.234 228.332C430.35 228.023 429.77 222.136 431.333 223.375C434.726 228.178 439.771 224.615 441.825 228.332C444.147 228.332 446.514 228.332 448.835 228.332C450.041 227.713 450.577 230.966 448.835 230.656C447.451 230.656 446.022 230.656 444.638 230.656C436.601 231.895 426.734 226.938 421.554 237.937C423.028 239.331 426.153 234.993 426.466 240.415C417.313 247.541 398.761 245.062 391.438 252.498C405.101 263.961 394.117 243.358 405.101 259.778C402.958 253.737 406.619 264.116 406.485 257.3C406.173 251.878 402.645 257.61 403.003 250.019C407.914 244.907 410.057 266.285 412.781 250.019C416.666 273.565 431.489 255.286 439.392 262.102C442.607 264.89 438.41 276.663 442.607 266.904C441.893 265.2 446.67 264.735 448.501 262.102C451.537 262.102 452.385 269.692 456.181 266.904C456.181 263.651 454.975 264.735 454.796 262.102C469.084 264.89 479.893 254.667 490.921 259.624C498.646 263.341 493.028 264.89 493.017 264.735C493.017 267.214 493.597 267.679 493.731 269.538C472.746 263.341 476.731 269.284 463.737 285.085C454.54 276.72 444.002 283.536 437.126 287.563C440.921 297.322 455.924 281.832 452.53 290.042C458.692 285.24 471.283 287.563 473.516 290.042C471.864 296.548 466.015 288.183 464.407 294.844C484.098 295.154 472.88 288.901 488.775 296.182C490.07 296.801 488.373 300.209 489.489 300.984C494.267 299.589 492.66 305.321 488.775 303.462C474.889 301.293 458.145 303.927 446.09 315.545C448.501 326.078 458.904 317.249 464.977 318.023C468.37 318.798 464.307 321.896 462.878 320.502C458.815 325.769 446.938 320.812 441.893 330.261C443.143 331.655 446.001 327.318 446.09 332.739C443.098 333.359 439.973 336.302 439.08 337.542C440.732 346.681 448.59 346.061 441.893 340.02C446.447 344.357 451.537 330.726 453.1 340.02C448.992 342.189 449.528 339.4 446.09 347.301C447.653 346.991 452.877 346.061 450.287 352.103C448.099 348.385 444.884 348.23 441.893 347.301C435.195 357.06 406.441 350.244 395.725 366.664C405.726 366.044 417.559 366.199 423.72 371.466C418.362 373.635 425.908 375.184 425.819 381.225C422.247 381.07 418.63 380.606 416.71 386.027C428.721 386.492 440.553 386.182 451.716 383.549C453.725 387.576 448.144 385.408 446.804 386.027C432.472 396.251 409.566 376.733 398.538 398.11C395.903 390.829 392.555 401.518 390.144 402.912C396.082 409.573 402.824 399.814 408.316 405.391C412.96 409.418 402.78 407.404 402.02 407.869C395.814 410.967 385.857 421.346 380.321 422.43C384.964 424.134 389.563 421.501 395.725 422.43C398.538 420.572 403.092 425.219 397.823 424.909C394.787 424.909 391.751 424.909 388.715 424.909C381.169 435.288 361.255 419.487 356.522 434.513C356.924 433.274 370.565 435.288 370.341 436.992C365.921 437.921 360.697 436.062 358.42 444.272C364.894 441.329 374.806 446.906 377.307 436.992C379.494 438.386 382.754 443.033 384.317 449.074C387.576 447.215 387.822 444.427 392.198 446.596C390.947 447.215 388.715 444.117 389.385 451.398C397.243 447.68 407.914 444.582 418.094 453.876C408.182 457.439 395.948 453.102 387.286 461.157C398.806 462.551 412.781 455.271 419.479 473.24C413.897 474.789 409.834 471.071 404.789 470.761C404.699 474.634 404.878 479.126 403.405 478.042C393.135 482.689 388.224 470.297 380.321 480.52C382.285 482.689 384.562 483.619 385.902 487.801C381.08 489.97 377.24 483.154 375.409 487.801C377.061 492.603 384.161 491.364 383.803 495.082C380.812 493.997 376.57 497.405 374.695 492.603C374.605 495.546 374.829 499.574 373.98 499.884C367.461 497.095 356.433 498.025 350.182 499.884C320.133 508.713 288.565 511.812 257.801 519.247C250.97 520.796 244.317 522.965 237.486 524.049C187.21 532.259 136.22 507.009 84.9173 516.769C84.828 523.43 86.0782 521.571 84.9173 526.528C69.4238 530.71 38.4034 530.865 24.9192 536.132C25.5443 535.357 28 529.626 26.3033 528.851C17.284 532.724 19.6952 496.786 10.8991 499.729C12.6405 471.691 9.91683 437.147 1.79056 429.401C2.23706 425.993 4.46955 429.091 4.6035 424.599C-4.86226 390.365 3.81091 366.664 0.194271 327.473C4.30206 317.404 0.953388 302.688 5.10582 295.872C3.54308 291.534 0.50682 292.309 0.194271 283.789C1.84631 283.014 3.23047 281.31 3.67697 276.508C2.56073 264.581 3.76629 251.878 2.29284 249.71C1.8017 240.725 5.2844 245.527 5.77555 239.95C2.24821 236.078 4.9718 210.518 0.194271 210.828C1.89096 200.759 0.551465 194.873 3.00721 188.986C-1.94893 155.836 6.61277 131.826 3.93378 111.223C1.07619 118.039 3.53189 113.237 1.1208 111.223C4.15699 103.323 17.8979 103.787 20.5323 94.1832C39.1066 96.3519 53.5731 76.6788 73.0404 74.8199C72.5939 71.412 70.3615 74.5101 70.2275 70.0178C73.5316 69.0884 75.0497 74.3552 78.6217 72.4963C79.2468 83.8045 76.2999 70.7923 76.5231 77.2984C87.9089 85.5085 102.375 78.5377 115.011 74.8199C113.984 74.3552 112.422 75.7493 112.198 72.3414C122.245 77.4533 132.201 73.2708 138.81 84.4241C131.621 83.4947 122.78 85.1987 119.208 89.2262C124.209 96.197 134.345 95.7323 140.194 91.7047C140.104 98.5206 142.158 97.901 143.007 101.464C147.025 96.3519 164.171 108.744 169.618 94.1832C177.298 106.111 191.139 91.8596 198.328 96.6617C195.694 96.5068 193.506 97.5912 192.032 101.464C203.105 100.07 212.169 96.9716 222.126 94.1832C229.627 92.0145 237.932 98.9853 244.54 84.4241C238.066 78.6926 231.592 89.2262 225.654 82.5652ZM255.748 80.2416C258.159 87.6772 264.678 87.6772 270.437 89.8459C265.66 80.8613 261.15 85.1987 255.748 80.2416ZM281.644 94.648C283.475 99.605 285.886 102.548 288.654 104.407C288.788 102.238 285.082 92.6342 281.644 94.648ZM263.472 102.083C262.311 92.3244 256.328 99.2952 252.979 97.2814C248.648 101.464 261.775 99.4501 263.472 102.083ZM279.546 104.407C278.564 98.8304 274.679 103.478 272.536 101.929C273.518 107.505 277.447 102.858 279.546 104.407ZM419.5 218.573C419.724 212.997 413.473 220.122 412.49 213.771C411.463 214.856 412.758 216.869 412.49 221.052C414.857 220.277 418.161 222.911 419.5 218.573ZM428.732 292.365C430.518 292.52 429.58 290.506 429.446 287.563C426.857 285.085 420.74 289.267 416.141 287.563C414.712 286.169 410.649 289.267 414.042 290.042C420.74 288.802 422.526 296.238 428.732 292.365ZM114.386 50.9643C113.404 44.6131 104.519 52.8232 106.706 43.6837C106.93 47.8662 116.083 41.6699 114.386 50.9643ZM274.679 58.2449C271.107 59.4842 259.096 57.0056 268.383 55.7664C270.348 52.5133 273.384 56.2311 275.393 48.4858C278.028 54.682 284.591 47.2465 285.172 60.5685C282.939 55.1468 271.241 68.004 274.679 58.2449ZM303.344 55.9213C303.969 53.9075 305.532 58.2449 305.443 58.3998C300.978 60.8783 294.057 57.0056 294.95 68.1589C293.164 61.1881 289.547 62.7372 287.94 60.8783C289.19 59.6391 287.628 58.2449 287.226 56.0762C292.003 57.7802 296.959 58.5547 299.817 56.0762C299.817 52.8232 298.611 53.9075 298.433 51.2741C304.327 48.9505 324.866 62.8921 311.024 56.0762C310.979 59.3292 311.337 61.343 311.738 63.3568C309.551 62.2725 306.38 46.3171 303.344 55.9213ZM316.65 89.8459C313.167 80.5515 301.648 74.3552 301.96 68.004C307.541 71.412 316.65 67.8491 316.65 89.8459ZM210.294 92.3244C208.419 92.3244 206.543 92.3244 204.713 92.3244C205.025 86.9026 208.151 91.3949 209.624 89.8459C210.874 87.8321 211.812 81.7907 212.437 89.8459C211.366 95.2676 210.651 86.7477 210.294 92.3244ZM467.767 220.897C465.445 217.644 463.123 214.236 461.471 208.814C463.391 212.067 469.999 211.448 469.151 216.095C468.124 216.559 466.561 215.165 466.338 218.573C467.365 218.418 469.062 219.038 467.767 220.897ZM476.161 233.135C473.036 236.078 465.624 236.388 465.668 225.854C468.347 231.585 473.661 222.756 476.161 233.135ZM439.392 257.3C435.642 254.512 429.525 256.835 428.9 250.019C432.114 253.582 437.07 250.949 439.392 257.3ZM436.312 376.423C437.83 369.143 439.928 375.029 442.607 376.423C447.027 374.564 450.287 379.986 443.991 378.902C440.955 377.353 436.088 382 434.213 376.423C435.954 379.676 436.401 366.819 437.026 373.945C436.579 374.1 436.178 374.254 436.312 376.423ZM17.9985 536.597C16.7483 533.189 13.3102 542.948 9.60429 539.075C9.55964 520.641 18.5789 529.471 17.9985 536.597Z" fill="url(#paint0_linear)"/>
<defs>
<linearGradient id="paint0_linear" x1="247.5" y1="0" x2="247.272" y2="489.767" gradientUnits="userSpaceOnUse">
<stop stop-color="#292A2B" stop-opacity="0.4"/>
<stop offset="1" stop-color="#7A7C8A" stop-opacity="0.63"/>
</linearGradient>
</defs>
</svg>
