<svg width="49" height="25" viewBox="0 0 49 25" fill="none" xmlns="http://www.w3.org/2000/svg">
<path d="M13.607 10.0347C13.291 10.027 12.9774 10.023 12.6639 10.0153C18.0178 9.80615 23.6796 10.0447 28.7216 9.70214C29.0383 9.647 29.6695 9.533 29.9839 9.47413C32.5021 9.33609 35.6489 9.46495 38.1655 9.64125C39.4237 9.73125 40.3556 10.4421 40.3556 10.4421C40.67 10.5756 40.9803 10.8347 40.6628 10.9527C40.0324 11.0038 38.4598 10.9727 38.4566 11.2242C38.4558 11.287 38.7693 11.2947 39.0853 11.2987C39.0821 11.5502 40.0164 12.0762 40.3323 12.0802C40.6443 12.2173 42.5257 12.6333 42.8376 12.7667C43.7783 12.9747 40.9321 13.8667 39.6706 14.0319C39.0394 14.1459 39.6666 14.3462 39.6617 14.5384C39.033 14.4639 38.7146 14.6447 38.0859 14.5701C38.0851 14.633 36.1957 14.6607 35.2525 14.6413C35.2525 14.6413 34.9398 14.5707 33.9942 14.555C33.6783 14.5473 33.6815 14.4844 33.6823 14.4216C33.6815 14.4844 33.6815 14.4844 33.6807 14.5473C33.3663 14.4138 32.7352 14.5279 32.4224 14.4573C32.4216 14.5202 32.4216 14.5202 32.4208 14.583C31.7953 14.4456 31.1617 14.5596 30.5354 14.4813C30.5346 14.5442 30.5346 14.5442 30.5338 14.6071C30.2179 14.5993 29.9043 14.5953 29.9035 14.6582C29.9027 14.7211 29.9027 14.7211 29.9019 14.7839C29.5851 14.8391 28.9572 14.7016 28.9556 14.8273C28.9564 14.7645 28.9564 14.7645 28.9572 14.7016C27.6981 14.6782 26.7542 14.7216 25.8079 14.765C23.2865 14.9659 20.1404 14.7779 17.3103 14.5976C16.9967 14.5899 16.6823 14.4602 16.9999 14.3385C16.6864 14.3308 16.3704 14.3267 16.0568 14.319C15.4273 14.3073 15.7457 14.1228 15.1161 14.111C10.0838 13.6956 5.04592 13.9088 0.01202 13.619C1.27192 13.5796 2.21902 13.4733 3.47488 13.5633C3.47568 13.5004 3.47728 13.3747 3.79327 13.3787C5.68268 13.3547 7.88328 13.5233 8.83203 13.2876C9.14877 13.2325 9.46478 13.0479 10.4103 13.0673C10.0943 13.0596 9.78073 13.0556 9.46478 13.0479C9.46558 12.985 9.46718 12.8593 9.46718 12.8593C10.7271 12.8199 12.3029 12.7882 13.5628 12.7524C13.5628 12.7524 13.5644 12.6267 13.5652 12.5639L14.1947 12.5756C14.8299 12.1473 11.3678 12.1401 9.79598 12.0461C9.79678 11.9833 9.79839 11.8576 9.79919 11.7947L10.4287 11.8064L10.4303 11.6807C8.54174 11.6418 6.96908 11.6107 5.08044 11.5755C5.39638 11.5833 6.02594 11.595 6.33954 11.599C6.34034 11.5361 6.34114 11.4733 6.65713 11.4773C5.39803 11.4538 3.82219 11.4855 2.56713 11.3327C2.25438 11.2622 2.57033 11.0813 3.51668 11.0342C4.46218 11.0536 5.08933 11.0653 6.03483 11.0847L6.03643 10.959C5.40688 10.9473 4.46058 10.9907 3.83183 10.9161C3.51908 10.8456 4.46379 10.7393 4.15103 10.6687C3.83509 10.661 3.52149 10.657 3.20634 10.5864C4.15184 10.6058 5.41013 10.6921 6.35404 10.6487C6.66839 10.5935 6.98519 10.5347 6.98679 10.409C8.55864 10.503 9.82015 10.3378 10.7696 10.0429C11.0872 9.92125 12.6615 10.0153 13.607 10.0347Z" fill="#45D9D9"/>
<path d="M34.4604 5.07075C34.7763 5.07847 35.0899 5.08247 35.4035 5.09016C30.0496 5.29932 24.3877 5.06075 19.3458 5.40333C19.029 5.45847 18.3979 5.57247 18.0835 5.63134C15.5653 5.76937 12.4185 5.64052 9.90192 5.46422C8.64367 5.37422 7.71177 4.66336 7.71177 4.66336C7.39742 4.52991 7.08707 4.27077 7.40462 4.15277C8.03497 4.10163 9.60763 4.13276 9.61083 3.88131C9.61163 3.81845 9.29808 3.81076 8.98208 3.80673C8.98529 3.55528 8.05103 3.02931 7.73504 3.02528C7.42313 2.88817 5.54173 2.47217 5.22978 2.33875C4.28908 2.13076 7.13528 1.23873 8.39678 1.07359C9.02794 0.959585 8.40079 0.75928 8.40563 0.567028C9.03438 0.641609 9.35273 0.460748 9.98148 0.535329C9.98228 0.472468 11.8717 0.444766 12.8148 0.464179C12.8148 0.464179 13.1276 0.534734 14.0731 0.55048C14.3891 0.558204 14.3859 0.621035 14.3851 0.683897C14.3859 0.621035 14.3859 0.621035 14.3867 0.558174C14.701 0.691621 15.3322 0.577617 15.6449 0.648173C15.6457 0.585311 15.6457 0.585311 15.6465 0.522449C16.2721 0.659862 16.9056 0.545889 17.5319 0.624137C17.5327 0.561276 17.5327 0.561276 17.5335 0.498414C17.8495 0.506138 18.1631 0.510134 18.1639 0.447272C18.1647 0.38441 18.1647 0.384411 18.1655 0.321549C18.4822 0.266411 19.1102 0.403854 19.1118 0.278131C19.111 0.340993 19.111 0.340993 19.1102 0.403854C20.3693 0.427294 21.3132 0.383845 22.2595 0.340428C24.7809 0.139558 27.927 0.327578 30.7571 0.507874C31.0707 0.515568 31.3851 0.645317 31.0675 0.767015C31.381 0.774708 31.697 0.778735 32.0106 0.786428C32.6401 0.798148 32.3217 0.982707 32.9513 0.994427C37.9836 1.40989 43.0215 1.1967 48.0554 1.48644C46.7955 1.52587 45.8484 1.63215 44.5925 1.54218C44.5917 1.60504 44.5901 1.73076 44.2741 1.72674C42.3847 1.75074 40.1841 1.58216 39.2354 1.81786C38.9186 1.873 38.6026 2.05759 37.6571 2.03815C37.9731 2.04587 38.2867 2.04987 38.6026 2.05759C38.6018 2.12045 38.6002 2.24618 38.6002 2.24618C37.3403 2.2856 35.7645 2.3173 34.5046 2.35302C34.5046 2.35302 34.503 2.47875 34.5022 2.54161L33.8726 2.52989C33.2375 2.9582 36.6995 2.96533 38.2714 3.05932C38.2706 3.12219 38.269 3.24791 38.2682 3.31077L37.6386 3.29905L37.637 3.42477C39.5256 3.46363 41.0983 3.49476 42.9869 3.52992C42.671 3.5222 42.0414 3.51048 41.7278 3.50648C41.727 3.56935 41.7262 3.63221 41.4102 3.62818C42.6693 3.65162 44.2452 3.61992 45.5003 3.77275C45.813 3.84331 45.4971 4.0242 44.5507 4.07132C43.6052 4.05187 42.978 4.04018 42.0326 4.02074L42.031 4.14646C42.6605 4.15818 43.6068 4.11476 44.2355 4.18935C44.5483 4.2599 43.6036 4.36621 43.9163 4.43677C44.2323 4.44449 44.5459 4.44849 44.861 4.51907C43.9155 4.49963 42.6572 4.41333 41.7133 4.45678C41.399 4.51194 41.0822 4.57078 41.0806 4.6965C39.5087 4.60251 38.2472 4.76765 37.2977 5.06252C36.9801 5.18422 35.4059 5.09019 34.4604 5.07075Z" fill="#C2C2F5"/>
<path d="M34.4604 24.0707C34.7763 24.0785 35.0899 24.0825 35.4035 24.0902C30.0496 24.2993 24.3877 24.0608 19.3458 24.4033C19.029 24.4585 18.3979 24.5725 18.0835 24.6313C15.5653 24.7694 12.4185 24.6405 9.90192 24.4642C8.64367 24.3742 7.71177 23.6634 7.71177 23.6634C7.39742 23.5299 7.08707 23.2708 7.40462 23.1528C8.03497 23.1016 9.60763 23.1328 9.61083 22.8813C9.61163 22.8185 9.29808 22.8108 8.98208 22.8067C8.98529 22.5553 8.05103 22.0293 7.73504 22.0253C7.42313 21.8882 5.54173 21.4722 5.22978 21.3388C4.28908 21.1308 7.13528 20.2387 8.39678 20.0736C9.02794 19.9596 8.40079 19.7593 8.40563 19.567C9.03438 19.6416 9.35273 19.4607 9.98148 19.5353C9.98228 19.4725 11.8717 19.4448 12.8148 19.4642C12.8148 19.4642 13.1276 19.5347 14.0731 19.5505C14.3891 19.5582 14.3859 19.621 14.3851 19.6839C14.3859 19.621 14.3859 19.621 14.3867 19.5582C14.701 19.6916 15.3322 19.5776 15.6449 19.6482C15.6457 19.5853 15.6457 19.5853 15.6465 19.5224C16.2721 19.6599 16.9056 19.5459 17.5319 19.6241C17.5327 19.5613 17.5327 19.5613 17.5335 19.4984C17.8495 19.5061 18.1631 19.5101 18.1639 19.4473C18.1647 19.3844 18.1647 19.3844 18.1655 19.3215C18.4822 19.2664 19.1102 19.4039 19.1118 19.2781C19.111 19.341 19.111 19.341 19.1102 19.4039C20.3693 19.4273 21.3132 19.3838 22.2595 19.3404C24.7809 19.1396 27.927 19.3276 30.7571 19.5079C31.0707 19.5156 31.3851 19.6453 31.0675 19.767C31.381 19.7747 31.697 19.7787 32.0106 19.7864C32.6401 19.7981 32.3217 19.9827 32.9513 19.9944C37.9836 20.4099 43.0215 20.1967 48.0554 20.4864C46.7955 20.5259 45.8484 20.6321 44.5925 20.5422C44.5917 20.605 44.5901 20.7308 44.2741 20.7267C42.3847 20.7507 40.1841 20.5822 39.2354 20.8179C38.9186 20.873 38.6026 21.0576 37.6571 21.0381C37.9731 21.0459 38.2867 21.0499 38.6026 21.0576C38.6018 21.1205 38.6002 21.2462 38.6002 21.2462C37.3403 21.2856 35.7645 21.3173 34.5046 21.353C34.5046 21.353 34.503 21.4787 34.5022 21.5416L33.8726 21.5299C33.2375 21.9582 36.6995 21.9653 38.2714 22.0593C38.2706 22.1222 38.269 22.2479 38.2682 22.3108L37.6386 22.2991L37.637 22.4248C39.5256 22.4636 41.0983 22.4948 42.9869 22.5299C42.671 22.5222 42.0414 22.5105 41.7278 22.5065C41.727 22.5693 41.7262 22.6322 41.4102 22.6282C42.6693 22.6516 44.2452 22.6199 45.5003 22.7728C45.813 22.8433 45.4971 23.0242 44.5507 23.0713C43.6052 23.0519 42.978 23.0402 42.0326 23.0207L42.031 23.1465C42.6605 23.1582 43.6068 23.1148 44.2355 23.1893C44.5483 23.2599 43.6036 23.3662 43.9163 23.4368C44.2323 23.4445 44.5459 23.4485 44.861 23.5191C43.9155 23.4996 42.6572 23.4133 41.7133 23.4568C41.399 23.5119 41.0822 23.5708 41.0806 23.6965C39.5087 23.6025 38.2472 23.7677 37.2977 24.0625C36.9801 24.1842 35.4059 24.0902 34.4604 24.0707Z" fill="#FF6839"/>
</svg>
