<svg width="21" height="24" viewBox="0 0 21 24" fill="none" xmlns="http://www.w3.org/2000/svg">
<path d="M10.5 12C13.8141 12 16.5 9.31406 16.5 6C16.5 2.68594 13.8141 0 10.5 0C7.18594 0 4.5 2.68594 4.5 6C4.5 9.31406 7.18594 12 10.5 12ZM14.7 13.5H13.9172C12.8766 13.9781 11.7188 14.25 10.5 14.25C9.28125 14.25 8.12813 13.9781 7.08281 13.5H6.3C2.82187 13.5 0 16.3219 0 19.8V21.75C0 22.9922 1.00781 24 2.25 24H18.75C19.9922 24 21 22.9922 21 21.75V19.8C21 16.3219 18.1781 13.5 14.7 13.5Z" fill="white"/>
</svg>
