<svg width="34" height="24" viewBox="0 0 34 24" fill="none" xmlns="http://www.w3.org/2000/svg">
<path d="M5.1 10.2C6.97531 10.2 8.5 8.67531 8.5 6.8C8.5 4.92469 6.97531 3.4 5.1 3.4C3.22469 3.4 1.7 4.92469 1.7 6.8C1.7 8.67531 3.22469 10.2 5.1 10.2ZM28.9 10.2C30.7753 10.2 32.3 8.67531 32.3 6.8C32.3 4.92469 30.7753 3.4 28.9 3.4C27.0247 3.4 25.5 4.92469 25.5 6.8C25.5 8.67531 27.0247 10.2 28.9 10.2ZM30.6 11.9H27.2C26.265 11.9 25.4203 12.2772 24.8041 12.8881C26.945 14.0622 28.4644 16.1819 28.7938 18.7H32.3C33.2403 18.7 34 17.9403 34 17V15.3C34 13.4247 32.4753 11.9 30.6 11.9ZM17 11.9C20.2884 11.9 22.95 9.23844 22.95 5.95C22.95 2.66156 20.2884 0 17 0C13.7116 0 11.05 2.66156 11.05 5.95C11.05 9.23844 13.7116 11.9 17 11.9ZM21.08 13.6H20.6391C19.5341 14.1313 18.3069 14.45 17 14.45C15.6931 14.45 14.4713 14.1313 13.3609 13.6H12.92C9.54125 13.6 6.8 16.3413 6.8 19.72V21.25C6.8 22.6578 7.94219 23.8 9.35 23.8H24.65C26.0578 23.8 27.2 22.6578 27.2 21.25V19.72C27.2 16.3413 24.4587 13.6 21.08 13.6ZM9.19594 12.8881C8.57969 12.2772 7.735 11.9 6.8 11.9H3.4C1.52469 11.9 0 13.4247 0 15.3V17C0 17.9403 0.759687 18.7 1.7 18.7H5.20094C5.53563 16.1819 7.055 14.0622 9.19594 12.8881Z" fill="white"/>
</svg>
